<svg width="42" height="2837" viewBox="0 0 42 2837" fill="none" xmlns="http://www.w3.org/2000/svg">
<path d="M21.7645 637.233C20.7864 636.257 19.2035 636.257 18.229 637.233L2.34875 653.143C1.37426 654.119 1.37721 655.702 2.35534 656.678C3.33347 657.655 4.91638 657.655 5.89087 656.678L20.0066 642.536L34.1751 656.678C35.1533 657.654 36.7362 657.654 37.7107 656.678C38.6852 655.702 38.6822 654.119 37.7041 653.143L21.7645 637.233ZM23.0406 929L22.5001 639.001L17.5001 639.001L18.0406 929L23.0406 929Z" fill="#FE6807"/>
<path d="M21.7645 1273.23C20.7864 1272.26 19.2035 1272.26 18.229 1273.23L2.34875 1289.14C1.37426 1290.12 1.37721 1291.7 2.35534 1292.68C3.33347 1293.65 4.91638 1293.65 5.89087 1292.68L20.0066 1278.54L34.1751 1292.68C35.1533 1293.65 36.7362 1293.65 37.7107 1292.68C38.6852 1291.7 38.6822 1290.12 37.7041 1289.14L21.7645 1273.23ZM23.0406 1565L22.5001 1275L17.5001 1275L18.0406 1565L23.0406 1565Z" fill="#FE6807"/>
<path d="M20.7645 1.23237C19.7864 0.256055 18.2035 0.256065 17.229 1.23239L1.34875 17.1424C0.374256 18.1187 0.377207 19.7016 1.35534 20.6779C2.33347 21.6542 3.91638 21.6542 4.89087 20.6779L19.0066 6.53565L33.1751 20.6777C34.1533 21.654 35.7362 21.654 36.7107 20.6777C37.6852 19.7013 37.6822 18.1184 36.7041 17.1421L20.7645 1.23237ZM22.0406 292.999L21.5001 3.00012L16.5001 3.00015L17.0406 293L22.0406 292.999Z" fill="#FE6807"/>
<path d="M21.7645 319.233C20.7864 318.257 19.2035 318.257 18.229 319.233L2.34875 335.143C1.37426 336.119 1.37721 337.702 2.35534 338.678C3.33347 339.655 4.91638 339.655 5.89087 338.678L20.0066 324.536L34.1751 338.678C35.1533 339.654 36.7362 339.654 37.7107 338.678C38.6852 337.702 38.6822 336.119 37.7041 335.143L21.7645 319.233ZM23.0406 611L22.5001 321.001L17.5001 321.001L18.0406 611L23.0406 611Z" fill="#181BDF"/>
<path d="M21.7645 955.233C20.7864 954.257 19.2035 954.257 18.229 955.233L2.34875 971.143C1.37426 972.119 1.37721 973.702 2.35534 974.678C3.33347 975.655 4.91638 975.655 5.89087 974.678L20.0066 960.536L34.1751 974.678C35.1533 975.654 36.7362 975.654 37.7107 974.678C38.6852 973.702 38.6822 972.119 37.7041 971.143L21.7645 955.233ZM23.0406 1247L22.5001 957.001L17.5001 957.001L18.0406 1247L23.0406 1247Z" fill="#181BDF"/>
<path d="M22.7645 1591.23C21.7864 1590.26 20.2035 1590.26 19.229 1591.23L3.34875 1607.14C2.37426 1608.12 2.37721 1609.7 3.35534 1610.68C4.33347 1611.65 5.91638 1611.65 6.89087 1610.68L21.0066 1596.54L35.1751 1610.68C36.1533 1611.65 37.7362 1611.65 38.7107 1610.68C39.6852 1609.7 39.6822 1608.12 38.7041 1607.14L22.7645 1591.23ZM24.0406 1883L23.5001 1593L18.5001 1593L19.0406 1883L24.0406 1883Z" fill="#181BDF"/>
<path d="M24.7645 2545.23C23.7864 2544.26 22.2035 2544.26 21.229 2545.23L5.34875 2561.14C4.37426 2562.12 4.37721 2563.7 5.35534 2564.68C6.33347 2565.65 7.91638 2565.65 8.89087 2564.68L23.0066 2550.54L37.1751 2564.68C38.1533 2565.65 39.7362 2565.65 40.7107 2564.68C41.6852 2563.7 41.6822 2562.12 40.7041 2561.14L24.7645 2545.23ZM26.0406 2837L25.5001 2547L20.5001 2547L21.0406 2837L26.0406 2837Z" fill="#FE6807"/>
<path d="M23.7645 1909.23C22.7864 1908.26 21.2035 1908.26 20.229 1909.23L4.34875 1925.14C3.37426 1926.12 3.37721 1927.7 4.35534 1928.68C5.33347 1929.65 6.91638 1929.65 7.89087 1928.68L22.0066 1914.54L36.1751 1928.68C37.1533 1929.65 38.7362 1929.65 39.7107 1928.68C40.6852 1927.7 40.6822 1926.12 39.7041 1925.14L23.7645 1909.23ZM25.0406 2201L24.5001 1911L19.5001 1911L20.0406 2201L25.0406 2201Z" fill="#FE6807"/>
<path d="M24.7645 2227.23C23.7864 2226.26 22.2035 2226.26 21.229 2227.23L5.34875 2243.14C4.37426 2244.12 4.37721 2245.7 5.35534 2246.68C6.33347 2247.65 7.91638 2247.65 8.89087 2246.68L23.0066 2232.54L37.1751 2246.68C38.1533 2247.65 39.7362 2247.65 40.7107 2246.68C41.6852 2245.7 41.6822 2244.12 40.7041 2243.14L24.7645 2227.23ZM26.0406 2519L25.5001 2229L20.5001 2229L21.0406 2519L26.0406 2519Z" fill="#181BDF"/>
</svg>
