<svg width="60" height="1574" viewBox="0 0 60 1574" fill="none" xmlns="http://www.w3.org/2000/svg">
<path d="M27 798C17 792 2.24789 774.889 2.24789 761.291C2.24789 747.199 11.2284 736.134 17.0223 730.695C22.8161 725.256 35.273 717.582 43.6741 717.582C52.0752 717.582 57 720.011 57 725.353C57 730.695 52.6546 734.095 44.2535 734.095C35.8524 734.095 18.7604 728.267 8.33146 710.783C-2.09751 693.3 2.53759 676.302 9.49023 668.046C16.4429 659.79 29.7688 647.163 41.6462 647.163C53.5237 647.163 57 648.134 57 654.933C57 661.732 46.571 665.617 38.1699 662.218C29.7688 658.818 13.5459 650.562 6.59329 635.021C-0.359359 619.48 2.82726 608.796 7.75206 599.569C12.6768 590.341 28.968 578.322 37.5905 576.257C45.7019 574.315 56.4206 573.343 56.4206 584.028C56.4206 594.756 43.0947 593.255 37.0111 591.312C30.9276 589.37 15.3058 577.724 9.20051 568.001C3.40663 558.774 -0.359337 549.061 3.69636 537.405C7.75205 525.749 19.6295 513.122 28.61 508.266C37.5905 503.409 52.0752 503.409 54.6824 506.809C57.2897 510.208 56.4206 516.522 53.8133 518.464C51.2061 520.407 37.0111 520.407 28.61 516.036C19.9266 511.518 5.47636 501.246 2.82727 484.469C0.220006 467.956 6.78642 453.387 18.7604 445.616C27.7409 439.788 44.8328 430.561 52.0752 434.446C58.4158 437.848 56.1309 449.502 50.337 449.502C45.6929 449.502 18.7604 449.502 7.17268 424.733C-2.23674 404.621 5.43449 388.309 9.77992 382.967C14.0684 377.695 28.8997 363.712 40.4874 362.57C48.8885 361.741 56.4206 364.512 56.4206 370.34C56.4206 376.168 50.6267 378.111 45.7019 379.082C40.8024 380.048 23.7521 378.242 16.7326 369.5C6.59329 356.873 4.5 352 3.98605 348.617" stroke="black" stroke-width="3"/>
<path d="M4 349C1.5 333.5 12.2284 325.134 18.0223 319.695C23.8161 314.256 36.273 306.582 44.6741 306.582C53.0752 306.582 58 309.011 58 314.353C58 319.695 53.6546 323.095 45.2535 323.095C36.8524 323.095 19.7604 317.267 9.33146 299.783C-1.09751 282.3 3.53759 265.302 10.4902 257.046C17.4429 248.79 30.7688 236.163 42.6462 236.163C54.5237 236.163 58 237.134 58 243.933C58 250.732 47.571 254.617 39.1699 251.218C30.7688 247.818 14.5459 239.562 7.59329 224.021C0.640641 208.48 3.82726 197.796 8.75206 188.569C13.6768 179.341 29.968 167.322 38.5905 165.257C46.7019 163.315 57.4206 162.343 57.4206 173.028C57.4206 183.756 44.0947 182.255 38.0111 180.312C31.9276 178.37 16.3058 166.724 10.2005 157.001C4.40663 147.774 0.640663 138.061 4.69636 126.405C8.75205 114.749 20.6295 102.122 29.61 97.2657C38.5905 92.4091 53.0752 92.4091 55.6824 95.8087C58.2897 99.2083 57.4206 105.522 54.8133 107.464C52.2061 109.407 38.0111 109.407 29.61 105.036C20.9266 100.518 6.47636 90.2457 3.82727 73.4687C1.22 56.9564 7.78642 42.3868 19.7604 34.6164C28.7409 28.7885 45.8328 19.5611 53.0752 23.4464C59.4158 26.8478 57.1309 38.5016 51.337 38.5016C46.6929 38.5016 19.7604 38.5016 8.17268 13.7333C7.28178 11.6555 5.5 6 5.5 0" stroke="black" stroke-width="3"/>
<path d="M42.5153 1572C37.5905 1571.03 24.844 1565.69 17.8913 1559.86C8.393 1551.9 2.24789 1541.89 2.24789 1528.29C2.24789 1514.2 11.2284 1503.13 17.0223 1497.7C22.8161 1492.26 35.273 1484.58 43.6741 1484.58C52.0752 1484.58 57 1487.01 57 1492.35C57 1497.7 52.6546 1501.09 44.2535 1501.09C35.8524 1501.09 18.7604 1495.27 8.33146 1477.78C-2.09751 1460.3 2.53759 1443.3 9.49023 1435.05C16.4429 1426.79 29.7688 1414.16 41.6462 1414.16C53.5237 1414.16 57 1415.13 57 1421.93C57 1428.73 46.571 1432.62 38.1699 1429.22C29.7688 1425.82 13.5459 1417.56 6.59329 1402.02C-0.359359 1386.48 2.82726 1375.8 7.75206 1366.57C12.6768 1357.34 28.968 1345.32 37.5905 1343.26C45.7019 1341.31 56.4206 1340.34 56.4206 1351.03C56.4206 1361.76 43.0947 1360.26 37.0111 1358.31C30.9276 1356.37 15.3058 1344.72 9.20051 1335C3.40663 1325.77 -0.359337 1316.06 3.69636 1304.4C7.75205 1292.75 19.6295 1280.12 28.61 1275.27C37.5905 1270.41 52.0752 1270.41 54.6824 1273.81C57.2897 1277.21 56.4206 1283.52 53.8133 1285.46C51.2061 1287.41 37.0111 1287.41 28.61 1283.04C19.9266 1278.52 5.47636 1268.25 2.82727 1251.47C0.220005 1234.96 6.78642 1220.39 18.7604 1212.62C27.7409 1206.79 44.8328 1197.56 52.0752 1201.45C58.4158 1204.85 56.1309 1216.5 50.337 1216.5C45.6929 1216.5 18.7604 1216.5 7.17268 1191.73C-2.23674 1171.62 5.43449 1155.31 9.77992 1149.97C14.0684 1144.69 28.8997 1130.71 40.4874 1129.57C48.8885 1128.74 56.4206 1131.51 56.4206 1137.34C56.4206 1143.17 50.6267 1145.11 45.7019 1146.08C40.8024 1147.05 23.7521 1145.24 16.7326 1136.5C6.59329 1123.87 4.5 1119 3.98605 1115.62" stroke="black" stroke-width="3"/>
<path d="M4 1116C1.5 1100.5 12.2284 1092.13 18.0223 1086.69C23.8161 1081.26 36.273 1073.58 44.6741 1073.58C53.0752 1073.58 58 1076.01 58 1081.35C58 1086.69 53.6546 1090.09 45.2535 1090.09C36.8524 1090.09 19.7604 1084.27 9.33146 1066.78C-1.09751 1049.3 3.53759 1032.3 10.4902 1024.05C17.4429 1015.79 30.7688 1003.16 42.6462 1003.16C54.5237 1003.16 58 1004.13 58 1010.93C58 1017.73 47.571 1021.62 39.1699 1018.22C30.7688 1014.82 14.5459 1006.56 7.59329 991.021C0.640641 975.48 3.82726 964.796 8.75206 955.569C13.6768 946.341 29.968 934.322 38.5905 932.257C46.7019 930.315 57.4206 929.343 57.4206 940.028C57.4206 950.756 44.0947 949.255 38.0111 947.312C31.9276 945.37 16.3058 933.724 10.2005 924.001C4.40663 914.774 0.640663 905.061 4.69636 893.405C8.75205 881.749 20.6295 869.122 29.61 864.266C38.5905 859.409 53.0752 859.409 55.6824 862.809C58.2897 866.208 57.4206 872.522 54.8133 874.464C52.2061 876.407 38.0111 876.407 29.61 872.036C20.9266 867.518 6.47636 857.246 3.82727 840.469C1.22001 823.956 7.78642 809.387 19.7604 801.616C28.7409 795.789 45.8328 786.561 53.0752 790.446C59.4158 793.848 56.9832 804.202 51.337 805.502C47 806.5 34.5 803 26.5 798" stroke="black" stroke-width="3"/>
</svg>
