<svg width="67" height="1115" viewBox="0 0 67 1115" fill="none" xmlns="http://www.w3.org/2000/svg">
<path d="M7.50016 77C-3 57 5.43537 40.6923 9.7808 35.3501C14.0693 30.0779 28.9006 16.0954 40.4883 14.9527C48.8894 14.1242 56.4215 16.8953 56.4215 22.7231C56.4215 28.551 50.6276 30.4936 45.7028 31.4649C40.8033 32.4312 23.753 30.6248 16.7335 21.8831C6.59417 9.25606 5.0004 5 3.98693 0.999939" stroke="black" stroke-width="3"/>
<path d="M8.05387 146C-2.44629 126 5.98908 109.692 10.3345 104.35C14.623 99.0779 29.4543 85.0954 41.042 83.9527C49.4431 83.1242 56.9752 85.8953 56.9752 91.7231C56.9752 97.551 51.1813 99.4936 46.2565 100.465C41.357 101.431 24.3067 99.6248 17.2872 90.8831C7.14788 78.2561 5.55411 74 4.54064 69.9999" stroke="black" stroke-width="3"/>
<path d="M9.05387 216C-1.44629 196 6.98908 179.692 11.3345 174.35C15.623 169.078 30.4543 155.095 42.042 153.953C50.4431 153.124 57.9752 155.895 57.9752 161.723C57.9752 167.551 52.1813 169.494 47.2565 170.465C42.357 171.431 25.3067 169.625 18.2872 160.883C8.14788 148.256 6.55411 144 5.54064 140" stroke="black" stroke-width="3"/>
<path d="M9.05387 284C-1.44629 264 6.98908 247.692 11.3345 242.35C15.623 237.078 30.4543 223.095 42.042 221.953C50.4431 221.124 57.9752 223.895 57.9752 229.723C57.9752 235.551 52.1813 237.494 47.2565 238.465C42.357 239.431 25.3067 237.625 18.2872 228.883C8.14788 216.256 6.55411 212 5.54064 208" stroke="black" stroke-width="3"/>
<path d="M9.60759 353C-0.892578 333 7.54279 316.692 11.8882 311.35C16.1767 306.078 31.008 292.095 42.5957 290.953C50.9968 290.124 58.5289 292.895 58.5289 298.723C58.5289 304.551 52.735 306.494 47.8102 307.465C42.9107 308.431 25.8604 306.625 18.8409 297.883C8.70159 285.256 7.10782 281 6.09435 277" stroke="black" stroke-width="3"/>
<path d="M10.6076 423C0.107422 403 8.54279 386.692 12.8882 381.35C17.1767 376.078 32.008 362.095 43.5957 360.953C51.9968 360.124 59.5289 362.895 59.5289 368.723C59.5289 374.551 53.735 376.494 48.8102 377.465C43.9107 378.431 26.8604 376.625 19.8409 367.883C9.70159 355.256 8.10782 351 7.09435 347" stroke="black" stroke-width="3"/>
<path d="M11.0539 492C0.553711 472 8.98908 455.692 13.3345 450.35C17.623 445.078 32.4543 431.095 44.042 429.953C52.4431 429.124 59.9752 431.895 59.9752 437.723C59.9752 443.551 54.1813 445.494 49.2565 446.465C44.357 447.431 27.3067 445.625 20.2872 436.883C10.1479 424.256 8.55411 420 7.54064 416" stroke="black" stroke-width="3"/>
<path d="M11.0539 560C0.553711 540 8.98908 523.692 13.3345 518.35C17.623 513.078 32.4543 499.095 44.042 497.953C52.4431 497.124 59.9752 499.895 59.9752 505.723C59.9752 511.551 54.1813 513.494 49.2565 514.465C44.357 515.431 27.3067 513.625 20.2872 504.883C10.1479 492.256 8.55411 488 7.54064 484" stroke="black" stroke-width="3"/>
<path d="M11.6076 629C1.10742 609 9.54279 592.692 13.8882 587.35C18.1767 582.078 33.008 568.095 44.5957 566.953C52.9968 566.124 60.5289 568.895 60.5289 574.723C60.5289 580.551 54.735 582.494 49.8102 583.465C44.9107 584.431 27.8604 582.625 20.8409 573.883C10.7016 561.256 9.10782 557 8.09435 553" stroke="black" stroke-width="3"/>
<path d="M12.6076 699C2.10742 679 10.5428 662.692 14.8882 657.35C19.1767 652.078 34.008 638.095 45.5957 636.953C53.9968 636.124 61.5289 638.895 61.5289 644.723C61.5289 650.551 55.735 652.494 50.8102 653.465C45.9107 654.431 28.8604 652.625 21.8409 643.883C11.7016 631.256 10.1078 627 9.09435 623" stroke="black" stroke-width="3"/>
<path d="M13.0539 768C2.55371 748 10.9891 731.692 15.3345 726.35C19.623 721.078 34.4543 707.095 46.042 705.953C54.4431 705.124 61.9752 707.895 61.9752 713.723C61.9752 719.551 56.1813 721.494 51.2565 722.465C46.357 723.431 29.3067 721.625 22.2872 712.883C12.1479 700.256 10.5541 696 9.54064 692" stroke="black" stroke-width="3"/>
<path d="M13.6076 837C3.10742 817 11.5428 800.692 15.8882 795.35C20.1767 790.078 35.008 776.095 46.5957 774.953C54.9968 774.124 62.5289 776.895 62.5289 782.723C62.5289 788.551 56.735 790.494 51.8102 791.465C46.9107 792.431 29.8604 790.625 22.8409 781.883C12.7016 769.256 11.1078 765 10.0943 761" stroke="black" stroke-width="3"/>
<path d="M14.6076 907C4.10742 887 12.5428 870.692 16.8882 865.35C21.1767 860.078 36.008 846.095 47.5957 844.953C55.9968 844.124 63.5289 846.895 63.5289 852.723C63.5289 858.551 57.735 860.494 52.8102 861.465C47.9107 862.431 30.8604 860.625 23.8409 851.883C13.7016 839.256 12.1078 835 11.0943 831" stroke="black" stroke-width="3"/>
<path d="M14.6076 975C4.10742 955 12.5428 938.692 16.8882 933.35C21.1767 928.078 36.008 914.095 47.5957 912.953C55.9968 912.124 63.5289 914.895 63.5289 920.723C63.5289 926.551 57.735 928.494 52.8102 929.465C47.9107 930.431 30.8604 928.625 23.8409 919.883C13.7016 907.256 12.1078 903 11.0943 899" stroke="black" stroke-width="3"/>
<path d="M15.1613 1044C4.66113 1024 13.0965 1007.69 17.4419 1002.35C21.7305 997.078 36.5617 983.095 48.1494 981.953C56.5506 981.124 64.0826 983.895 64.0826 989.723C64.0826 995.551 58.2887 997.494 53.3639 998.465C48.4644 999.431 31.4141 997.625 24.3946 988.883C14.2553 976.256 12.6615 972 11.6481 968" stroke="black" stroke-width="3"/>
<path d="M16.1613 1114C5.66113 1094 14.0965 1077.69 18.4419 1072.35C22.7305 1067.08 37.5617 1053.1 49.1494 1051.95C57.5506 1051.12 65.0826 1053.9 65.0826 1059.72C65.0826 1065.55 59.2887 1067.49 54.3639 1068.46C49.4644 1069.43 32.4141 1067.62 25.3946 1058.88C15.2553 1046.26 13.6615 1042 12.6481 1038" stroke="black" stroke-width="3"/>
</svg>
