<svg width="165" height="940" viewBox="0 0 165 940" fill="none" xmlns="http://www.w3.org/2000/svg">
<path d="M3 1C3.16667 14.1667 11.2693 42.5 50.5 51C100.067 61.7396 162.5 61.5 162.5 33.5C162.5 5.5 85 5 50.5 17.5C17.2293 29.5546 3 45.5 3 68.5" stroke="#181BDF" stroke-width="5"/>
<path d="M3 68C3.16667 81.1667 11.2693 109.5 50.5 118C100.067 128.74 162.5 128.5 162.5 100.5C162.5 72.5 85 72 50.5 84.5C17.2293 96.5546 3 112.5 3 135.5" stroke="#181BDF" stroke-width="5"/>
<path d="M3 135C3.16667 148.167 11.2693 176.5 50.5 185C100.067 195.74 162.5 195.5 162.5 167.5C162.5 139.5 85 139 50.5 151.5C17.2293 163.555 3 179.5 3 202.5" stroke="#181BDF" stroke-width="5"/>
<path d="M3 202C3.16667 215.167 11.2693 243.5 50.5 252C100.067 262.74 162.5 262.5 162.5 234.5C162.5 206.5 85 206 50.5 218.5C17.2293 230.555 3 246.5 3 269.5" stroke="#181BDF" stroke-width="5"/>
<path d="M3 269C3.16667 282.167 11.2693 310.5 50.5 319C100.067 329.74 162.5 329.5 162.5 301.5C162.5 273.5 85 273 50.5 285.5C17.2293 297.555 3 313.5 3 336.5" stroke="#181BDF" stroke-width="5"/>
<path d="M3 336C3.16667 349.167 11.2693 377.5 50.5 386C100.067 396.74 162.5 396.5 162.5 368.5C162.5 340.5 85 340 50.5 352.5C17.2293 364.555 3 380.5 3 403.5" stroke="#181BDF" stroke-width="5"/>
<path d="M3 403C3.16667 416.167 11.2693 444.5 50.5 453C100.067 463.74 162.5 463.5 162.5 435.5C162.5 407.5 85 407 50.5 419.5C17.2293 431.555 3 447.5 3 470.5" stroke="#181BDF" stroke-width="5"/>
<path d="M3 470C3.16667 483.167 11.2693 511.5 50.5 520C100.067 530.74 162.5 530.5 162.5 502.5C162.5 474.5 85 474 50.5 486.5C17.2293 498.555 3 514.5 3 537.5" stroke="#181BDF" stroke-width="5"/>
<path d="M3 537C3.16667 550.167 11.2693 578.5 50.5 587C100.067 597.74 162.5 597.5 162.5 569.5C162.5 541.5 85 541 50.5 553.5C17.2293 565.555 3 581.5 3 604.5" stroke="#181BDF" stroke-width="5"/>
<path d="M3 604C3.16667 617.167 11.2693 645.5 50.5 654C100.067 664.74 162.5 664.5 162.5 636.5C162.5 608.5 85 608 50.5 620.5C17.2293 632.555 3 648.5 3 671.5" stroke="#181BDF" stroke-width="5"/>
<path d="M3 671C3.16667 684.167 11.2693 712.5 50.5 721C100.067 731.74 162.5 731.5 162.5 703.5C162.5 675.5 85 675 50.5 687.5C17.2293 699.555 3 715.5 3 738.5" stroke="#181BDF" stroke-width="5"/>
<path d="M3 738C3.16667 751.167 11.2693 779.5 50.5 788C100.067 798.74 162.5 798.5 162.5 770.5C162.5 742.5 85 742 50.5 754.5C17.2293 766.555 3 782.5 3 805.5" stroke="#181BDF" stroke-width="5"/>
<path d="M3 805C3.16667 818.167 11.2693 846.5 50.5 855C100.067 865.74 162.5 865.5 162.5 837.5C162.5 809.5 85 809 50.5 821.5C17.2293 833.555 3 849.5 3 872.5" stroke="#181BDF" stroke-width="5"/>
<path d="M3 872C3.16667 885.167 11.2693 913.5 50.5 922C100.067 932.74 162.5 932.5 162.5 904.5C162.5 876.5 85 876 50.5 888.5C17.2293 900.555 3 916.5 3 939.5" stroke="#181BDF" stroke-width="5"/>
</svg>
