<svg width="8255" height="986" viewBox="0 0 8255 986" fill="none" xmlns="http://www.w3.org/2000/svg">
<rect x="82.3359" width="290.718" height="986" fill="#FE6807"/>
<path d="M190.943 77.8193C148.395 197.019 134.857 329.074 134.857 437.89C134.857 564.443 160.558 663.731 194.811 726.317C233.009 796.108 276.524 839.959 319.556 906.044" stroke="black" stroke-width="7"/>
<path d="M255.141 66.0723C230.13 136.684 193.87 282.886 173.614 381.009C154.603 473.097 150.908 556.268 152.992 645.828C154.681 718.376 175.532 858.054 198.072 905.697" stroke="black" stroke-width="7"/>
<path d="M136.21 60.9893C174.359 103.373 248.043 219.203 280.865 322.055C321.893 450.62 324.262 510.121 324.262 589.926C324.262 664.805 293.234 827.82 258.685 909.762" stroke="black" stroke-width="7"/>
<circle cx="140.275" cy="66.0724" r="19.8299" transform="rotate(-90 140.275 66.0724)" fill="black" stroke="black"/>
<circle cx="199.232" cy="66.0724" r="19.8299" transform="rotate(-90 199.232 66.0724)" fill="black" stroke="black"/>
<circle cx="259.207" cy="66.0724" r="19.8299" transform="rotate(-90 259.207 66.0724)" fill="black" stroke="black"/>
<circle cx="318.162" cy="66.0724" r="19.8299" transform="rotate(-90 318.162 66.0724)" fill="black" stroke="black"/>
<circle cx="139.26" cy="907.73" r="19.8299" transform="rotate(-90 139.26 907.73)" fill="black" stroke="black"/>
<circle cx="199.232" cy="907.73" r="19.8299" transform="rotate(-90 199.232 907.73)" fill="black" stroke="black"/>
<circle cx="259.207" cy="907.73" r="19.8299" transform="rotate(-90 259.207 907.73)" fill="black" stroke="black"/>
<circle cx="319.18" cy="907.73" r="19.8299" transform="rotate(-90 319.18 907.73)" fill="black" stroke="black"/>
<path d="M320.196 66.0723L139.26 909.763" stroke="black" stroke-width="7"/>
<rect x="372.451" width="290.718" height="986" fill="#FE6807"/>
<path d="M481.059 77.8193C434.785 199.162 418.601 332.739 416.911 442.527C414.946 570.21 440.238 669.734 475.028 732.011C513.824 801.458 553.115 845.5 608.615 904" stroke="black" stroke-width="7"/>
<path d="M545.115 66C525.139 136.643 496.178 282.911 479.999 381.077C464.815 473.206 461.864 556.414 463.529 646.015C464.877 718.596 474.113 862.836 492.115 910.5" stroke="black" stroke-width="7"/>
<path d="M426.115 61C460.805 103.395 527.808 219.256 557.654 322.136C594.961 450.735 597.115 510.252 597.115 590.078C597.115 664.977 582.032 824.535 550.615 906.5" stroke="black" stroke-width="7"/>
<circle cx="430.39" cy="66.0724" r="19.8299" transform="rotate(-90 430.39 66.0724)" fill="black" stroke="black"/>
<circle cx="489.347" cy="66.0724" r="19.8299" transform="rotate(-90 489.347 66.0724)" fill="black" stroke="black"/>
<circle cx="549.32" cy="66.0724" r="19.8299" transform="rotate(-90 549.32 66.0724)" fill="black" stroke="black"/>
<circle cx="608.277" cy="66.0724" r="19.8299" transform="rotate(-90 608.277 66.0724)" fill="black" stroke="black"/>
<circle cx="429.375" cy="907.73" r="19.8299" transform="rotate(-90 429.375 907.73)" fill="black" stroke="black"/>
<circle cx="489.347" cy="907.73" r="19.8299" transform="rotate(-90 489.347 907.73)" fill="black" stroke="black"/>
<circle cx="549.32" cy="907.73" r="19.8299" transform="rotate(-90 549.32 907.73)" fill="black" stroke="black"/>
<circle cx="609.295" cy="907.73" r="19.8299" transform="rotate(-90 609.295 907.73)" fill="black" stroke="black"/>
<path d="M610.311 66.0723C610.311 66.0723 567.445 328.759 532.115 493.5C496.785 658.241 429.375 909.763 429.375 909.763" stroke="black" stroke-width="7"/>
<rect x="7882.45" width="290.718" height="986" fill="#FE6807"/>
<path d="M7991.06 77.8193C7944.79 199.162 7928.6 332.739 7926.91 442.527C7924.95 570.21 7950.24 669.734 7985.03 732.011C8023.82 801.458 8063.12 845.5 8118.62 904" stroke="black" stroke-width="7"/>
<path d="M8055.11 66C8035.14 136.643 8006.18 282.911 7990 381.077C7974.81 473.206 7971.86 556.414 7973.53 646.015C7974.88 718.596 7984.11 862.836 8002.11 910.5" stroke="black" stroke-width="7"/>
<path d="M7936.11 61C7970.8 103.395 8037.81 219.256 8067.65 322.136C8104.96 450.735 8107.11 510.252 8107.11 590.078C8107.11 664.977 8092.03 824.535 8060.61 906.5" stroke="black" stroke-width="7"/>
<circle cx="7940.39" cy="66.0724" r="19.8299" transform="rotate(-90 7940.39 66.0724)" fill="black" stroke="black"/>
<circle cx="7999.35" cy="66.0724" r="19.8299" transform="rotate(-90 7999.35 66.0724)" fill="black" stroke="black"/>
<circle cx="8059.32" cy="66.0724" r="19.8299" transform="rotate(-90 8059.32 66.0724)" fill="black" stroke="black"/>
<circle cx="8118.28" cy="66.0724" r="19.8299" transform="rotate(-90 8118.28 66.0724)" fill="black" stroke="black"/>
<circle cx="7939.37" cy="907.73" r="19.8299" transform="rotate(-90 7939.37 907.73)" fill="black" stroke="black"/>
<circle cx="7999.35" cy="907.73" r="19.8299" transform="rotate(-90 7999.35 907.73)" fill="black" stroke="black"/>
<circle cx="8059.32" cy="907.73" r="19.8299" transform="rotate(-90 8059.32 907.73)" fill="black" stroke="black"/>
<circle cx="8119.29" cy="907.73" r="19.8299" transform="rotate(-90 8119.29 907.73)" fill="black" stroke="black"/>
<path d="M8120.31 66.0723C8120.31 66.0723 8077.44 328.759 8042.11 493.5C8006.78 658.241 7939.37 909.763 7939.37 909.763" stroke="black" stroke-width="7"/>
<rect x="662.822" width="290.718" height="986" fill="#FE6807"/>
<path d="M771.43 77.8193C729.807 196.487 716.926 328.163 717.346 436.738C717.834 563.01 743.637 662.24 777.758 724.902C815.806 794.778 844.692 845.952 898.371 905.5" stroke="black" stroke-width="7"/>
<path d="M835.486 66C815.51 136.643 770.079 280.833 753.9 379C738.716 471.129 752.235 556.414 753.9 646.015C755.248 718.596 764.484 862.836 782.486 910.5" stroke="black" stroke-width="7"/>
<path d="M716.371 61C745.583 103.421 802.007 219.349 827.14 322.29C858.557 450.966 860.371 510.518 860.371 590.391C860.371 665.334 860.371 832 839.371 909.5" stroke="black" stroke-width="7"/>
<circle cx="720.762" cy="66.0724" r="19.8299" transform="rotate(-90 720.762 66.0724)" fill="black" stroke="black"/>
<circle cx="779.719" cy="66.0724" r="19.8299" transform="rotate(-90 779.719 66.0724)" fill="black" stroke="black"/>
<circle cx="839.691" cy="66.0724" r="19.8299" transform="rotate(-90 839.691 66.0724)" fill="black" stroke="black"/>
<circle cx="898.648" cy="66.0724" r="19.8299" transform="rotate(-90 898.648 66.0724)" fill="black" stroke="black"/>
<circle cx="719.746" cy="907.73" r="19.8299" transform="rotate(-90 719.746 907.73)" fill="black" stroke="black"/>
<circle cx="779.719" cy="907.73" r="19.8299" transform="rotate(-90 779.719 907.73)" fill="black" stroke="black"/>
<circle cx="839.691" cy="907.73" r="19.8299" transform="rotate(-90 839.691 907.73)" fill="black" stroke="black"/>
<circle cx="899.666" cy="907.73" r="19.8299" transform="rotate(-90 899.666 907.73)" fill="black" stroke="black"/>
<path d="M900.682 66.0723C900.682 66.0723 896.202 350.259 860.872 515C825.542 679.741 719.746 909.763 719.746 909.763" stroke="black" stroke-width="7"/>
<rect x="7592.82" width="290.718" height="986" fill="#FE6807"/>
<path d="M7701.43 77.8193C7659.81 196.487 7646.93 328.163 7647.35 436.738C7647.83 563.01 7673.64 662.24 7707.76 724.902C7745.81 794.778 7774.69 845.952 7828.37 905.5" stroke="black" stroke-width="7"/>
<path d="M7765.49 66C7745.51 136.643 7700.08 280.833 7683.9 379C7668.72 471.129 7682.23 556.414 7683.9 646.015C7685.25 718.596 7694.48 862.836 7712.49 910.5" stroke="black" stroke-width="7"/>
<path d="M7646.37 61C7675.58 103.421 7732.01 219.349 7757.14 322.29C7788.56 450.966 7790.37 510.518 7790.37 590.391C7790.37 665.334 7790.37 832 7769.37 909.5" stroke="black" stroke-width="7"/>
<circle cx="7650.76" cy="66.0724" r="19.8299" transform="rotate(-90 7650.76 66.0724)" fill="black" stroke="black"/>
<circle cx="7709.72" cy="66.0724" r="19.8299" transform="rotate(-90 7709.72 66.0724)" fill="black" stroke="black"/>
<circle cx="7769.69" cy="66.0724" r="19.8299" transform="rotate(-90 7769.69 66.0724)" fill="black" stroke="black"/>
<circle cx="7828.65" cy="66.0724" r="19.8299" transform="rotate(-90 7828.65 66.0724)" fill="black" stroke="black"/>
<circle cx="7649.75" cy="907.73" r="19.8299" transform="rotate(-90 7649.75 907.73)" fill="black" stroke="black"/>
<circle cx="7709.72" cy="907.73" r="19.8299" transform="rotate(-90 7709.72 907.73)" fill="black" stroke="black"/>
<circle cx="7769.69" cy="907.73" r="19.8299" transform="rotate(-90 7769.69 907.73)" fill="black" stroke="black"/>
<circle cx="7829.67" cy="907.73" r="19.8299" transform="rotate(-90 7829.67 907.73)" fill="black" stroke="black"/>
<path d="M7830.68 66.0723C7830.68 66.0723 7826.2 350.259 7790.87 515C7755.54 679.741 7649.75 909.763 7649.75 909.763" stroke="black" stroke-width="7"/>
<rect x="952.52" width="290.718" height="986" fill="#FE6807"/>
<path d="M1061.13 77.8193C1025.14 193.245 1016.26 322.618 1019.24 429.722C1022.7 554.285 1049.12 653.158 1082.43 716.287C1119.57 786.685 1141.2 835.5 1183.2 907.5" stroke="black" stroke-width="7"/>
<path d="M1125.18 66C1105.21 136.643 1056.38 273.333 1040.2 371.5C1025.01 463.629 1058.53 557.4 1060.2 647C1061.55 719.581 1054.18 862.836 1072.18 910.5" stroke="black" stroke-width="7"/>
<path d="M1005.7 61C1029.84 103.446 1076.47 219.443 1097.24 322.444C1123.2 451.195 1124.7 510.783 1124.7 590.703C1124.7 665.69 1124.7 834.5 1124.7 908.5" stroke="black" stroke-width="7"/>
<circle cx="1010.46" cy="66.0724" r="19.8299" transform="rotate(-90 1010.46 66.0724)" fill="black" stroke="black"/>
<circle cx="1069.42" cy="66.0724" r="19.8299" transform="rotate(-90 1069.42 66.0724)" fill="black" stroke="black"/>
<circle cx="1129.39" cy="66.0724" r="19.8299" transform="rotate(-90 1129.39 66.0724)" fill="black" stroke="black"/>
<circle cx="1188.35" cy="66.0724" r="19.8299" transform="rotate(-90 1188.35 66.0724)" fill="black" stroke="black"/>
<circle cx="1009.44" cy="907.73" r="19.8299" transform="rotate(-90 1009.44 907.73)" fill="black" stroke="black"/>
<circle cx="1069.42" cy="907.73" r="19.8299" transform="rotate(-90 1069.42 907.73)" fill="black" stroke="black"/>
<circle cx="1129.39" cy="907.73" r="19.8299" transform="rotate(-90 1129.39 907.73)" fill="black" stroke="black"/>
<circle cx="1189.36" cy="907.73" r="19.8299" transform="rotate(-90 1189.36 907.73)" fill="black" stroke="black"/>
<path d="M1190.38 66.0723C1190.38 66.0723 1208.03 366.259 1172.7 531C1137.37 695.741 1009.44 909.763 1009.44 909.763" stroke="black" stroke-width="7"/>
<rect x="7303.52" width="290.718" height="986" fill="#FE6807"/>
<path d="M7412.13 77.8193C7376.14 193.245 7367.26 322.618 7370.24 429.722C7373.7 554.285 7400.12 653.158 7433.43 716.287C7470.57 786.685 7492.2 835.5 7534.2 907.5" stroke="black" stroke-width="7"/>
<path d="M7476.18 66C7456.21 136.643 7407.38 273.333 7391.2 371.5C7376.01 463.629 7409.53 557.4 7411.2 647C7412.55 719.581 7405.18 862.836 7423.18 910.5" stroke="black" stroke-width="7"/>
<path d="M7356.7 61C7380.84 103.446 7427.47 219.443 7448.24 322.444C7474.2 451.195 7475.7 510.783 7475.7 590.703C7475.7 665.69 7475.7 834.5 7475.7 908.5" stroke="black" stroke-width="7"/>
<circle cx="7361.46" cy="66.0724" r="19.8299" transform="rotate(-90 7361.46 66.0724)" fill="black" stroke="black"/>
<circle cx="7420.42" cy="66.0724" r="19.8299" transform="rotate(-90 7420.42 66.0724)" fill="black" stroke="black"/>
<circle cx="7480.39" cy="66.0724" r="19.8299" transform="rotate(-90 7480.39 66.0724)" fill="black" stroke="black"/>
<circle cx="7539.35" cy="66.0724" r="19.8299" transform="rotate(-90 7539.35 66.0724)" fill="black" stroke="black"/>
<circle cx="7360.44" cy="907.73" r="19.8299" transform="rotate(-90 7360.44 907.73)" fill="black" stroke="black"/>
<circle cx="7420.42" cy="907.73" r="19.8299" transform="rotate(-90 7420.42 907.73)" fill="black" stroke="black"/>
<circle cx="7480.39" cy="907.73" r="19.8299" transform="rotate(-90 7480.39 907.73)" fill="black" stroke="black"/>
<circle cx="7540.36" cy="907.73" r="19.8299" transform="rotate(-90 7540.36 907.73)" fill="black" stroke="black"/>
<path d="M7541.38 66.0723C7541.38 66.0723 7559.03 366.259 7523.7 531C7488.37 695.741 7360.44 909.763 7360.44 909.763" stroke="black" stroke-width="7"/>
<rect x="1240.74" width="290.718" height="986" fill="#FE6807"/>
<path d="M1349.35 77.8193C1308.49 196.046 1296.16 327.409 1296.92 435.784C1297.82 561.824 1323.7 661.005 1357.71 723.731C1395.64 793.678 1429.17 838.107 1472.22 909.5" stroke="black" stroke-width="7"/>
<path d="M1413.41 66C1393.43 136.643 1328.9 269.833 1312.72 368C1297.54 460.129 1358.74 556.9 1360.41 646.5C1361.75 719.081 1320.22 871 1360.41 910.5" stroke="black" stroke-width="7"/>
<path d="M1294.22 61C1315.12 103.471 1355.48 219.536 1373.45 322.598C1395.93 451.426 1397.22 511.048 1397.22 591.015C1397.22 666.047 1414.72 830.456 1414.72 904.5" stroke="black" stroke-width="7"/>
<circle cx="1298.68" cy="66.0724" r="19.8299" transform="rotate(-90 1298.68 66.0724)" fill="black" stroke="black"/>
<circle cx="1357.64" cy="66.0724" r="19.8299" transform="rotate(-90 1357.64 66.0724)" fill="black" stroke="black"/>
<circle cx="1417.61" cy="66.0724" r="19.8299" transform="rotate(-90 1417.61 66.0724)" fill="black" stroke="black"/>
<circle cx="1476.57" cy="66.0724" r="19.8299" transform="rotate(-90 1476.57 66.0724)" fill="black" stroke="black"/>
<circle cx="1297.67" cy="907.73" r="19.8299" transform="rotate(-90 1297.67 907.73)" fill="black" stroke="black"/>
<circle cx="1357.64" cy="907.73" r="19.8299" transform="rotate(-90 1357.64 907.73)" fill="black" stroke="black"/>
<circle cx="1417.61" cy="907.73" r="19.8299" transform="rotate(-90 1417.61 907.73)" fill="black" stroke="black"/>
<circle cx="1477.59" cy="907.73" r="19.8299" transform="rotate(-90 1477.59 907.73)" fill="black" stroke="black"/>
<path d="M1478.6 66.0723C1478.6 66.0723 1470.05 364.759 1434.72 529.5C1399.39 694.241 1297.67 909.763 1297.67 909.763" stroke="black" stroke-width="7"/>
<rect x="7012.74" width="290.718" height="986" fill="#FE6807"/>
<path d="M7121.35 77.8193C7080.49 196.046 7068.16 327.409 7068.92 435.784C7069.82 561.824 7095.7 661.005 7129.71 723.731C7167.64 793.678 7201.17 838.107 7244.22 909.5" stroke="black" stroke-width="7"/>
<path d="M7185.41 66C7165.43 136.643 7100.9 269.833 7084.72 368C7069.54 460.129 7130.74 556.9 7132.41 646.5C7133.75 719.081 7092.22 871 7132.41 910.5" stroke="black" stroke-width="7"/>
<path d="M7066.22 61C7087.12 103.471 7127.48 219.536 7145.45 322.598C7167.93 451.426 7169.22 511.048 7169.22 591.015C7169.22 666.047 7186.72 830.456 7186.72 904.5" stroke="black" stroke-width="7"/>
<circle cx="7070.68" cy="66.0724" r="19.8299" transform="rotate(-90 7070.68 66.0724)" fill="black" stroke="black"/>
<circle cx="7129.64" cy="66.0724" r="19.8299" transform="rotate(-90 7129.64 66.0724)" fill="black" stroke="black"/>
<circle cx="7189.61" cy="66.0724" r="19.8299" transform="rotate(-90 7189.61 66.0724)" fill="black" stroke="black"/>
<circle cx="7248.57" cy="66.0724" r="19.8299" transform="rotate(-90 7248.57 66.0724)" fill="black" stroke="black"/>
<circle cx="7069.67" cy="907.73" r="19.8299" transform="rotate(-90 7069.67 907.73)" fill="black" stroke="black"/>
<circle cx="7129.64" cy="907.73" r="19.8299" transform="rotate(-90 7129.64 907.73)" fill="black" stroke="black"/>
<circle cx="7189.61" cy="907.73" r="19.8299" transform="rotate(-90 7189.61 907.73)" fill="black" stroke="black"/>
<circle cx="7249.59" cy="907.73" r="19.8299" transform="rotate(-90 7249.59 907.73)" fill="black" stroke="black"/>
<path d="M7250.6 66.0723C7250.6 66.0723 7242.05 364.759 7206.72 529.5C7171.39 694.241 7069.67 909.763 7069.67 909.763" stroke="black" stroke-width="7"/>
<rect x="1530.74" width="290.718" height="986" fill="#FE6807"/>
<path d="M1639.35 77.8193C1598.49 196.046 1586.16 327.409 1586.92 435.784C1587.82 561.824 1613.7 661.005 1647.71 723.731C1685.64 793.678 1719.17 838.107 1762.22 909.5" stroke="black" stroke-width="7"/>
<path d="M1703.41 66C1703.41 138 1612.68 268.833 1596.5 367C1581.32 459.129 1656.84 556.4 1658.5 646C1659.85 718.581 1605 892.5 1650.41 910.5" stroke="black" stroke-width="7"/>
<path d="M1584.22 61C1605.12 103.471 1651.52 218.438 1669.5 321.5C1691.97 450.327 1679.5 513.533 1679.5 593.5C1679.5 668.531 1704.72 830.456 1704.72 904.5" stroke="black" stroke-width="7"/>
<circle cx="1588.68" cy="66.0724" r="19.8299" transform="rotate(-90 1588.68 66.0724)" fill="black" stroke="black"/>
<circle cx="1647.64" cy="66.0724" r="19.8299" transform="rotate(-90 1647.64 66.0724)" fill="black" stroke="black"/>
<circle cx="1707.61" cy="66.0724" r="19.8299" transform="rotate(-90 1707.61 66.0724)" fill="black" stroke="black"/>
<circle cx="1766.57" cy="66.0724" r="19.8299" transform="rotate(-90 1766.57 66.0724)" fill="black" stroke="black"/>
<circle cx="1587.67" cy="907.73" r="19.8299" transform="rotate(-90 1587.67 907.73)" fill="black" stroke="black"/>
<circle cx="1647.64" cy="907.73" r="19.8299" transform="rotate(-90 1647.64 907.73)" fill="black" stroke="black"/>
<circle cx="1707.61" cy="907.73" r="19.8299" transform="rotate(-90 1707.61 907.73)" fill="black" stroke="black"/>
<circle cx="1767.59" cy="907.73" r="19.8299" transform="rotate(-90 1767.59 907.73)" fill="black" stroke="black"/>
<path d="M1768.6 66.0723C1768.6 66.0723 1751.83 384.259 1716.5 549C1681.17 713.741 1587.67 909.763 1587.67 909.763" stroke="black" stroke-width="7"/>
<rect x="6723.74" width="290.718" height="986" fill="#FE6807"/>
<path d="M6832.35 77.8193C6791.49 196.046 6779.16 327.409 6779.92 435.784C6780.82 561.824 6806.7 661.005 6840.71 723.731C6878.64 793.678 6912.17 838.107 6955.22 909.5" stroke="black" stroke-width="7"/>
<path d="M6896.41 66C6896.41 138 6805.68 268.833 6789.5 367C6774.32 459.129 6849.84 556.4 6851.5 646C6852.85 718.581 6798 892.5 6843.41 910.5" stroke="black" stroke-width="7"/>
<path d="M6777.22 61C6798.12 103.471 6844.52 218.438 6862.5 321.5C6884.97 450.327 6872.5 513.533 6872.5 593.5C6872.5 668.531 6897.72 830.456 6897.72 904.5" stroke="black" stroke-width="7"/>
<circle cx="6781.68" cy="66.0724" r="19.8299" transform="rotate(-90 6781.68 66.0724)" fill="black" stroke="black"/>
<circle cx="6840.64" cy="66.0724" r="19.8299" transform="rotate(-90 6840.64 66.0724)" fill="black" stroke="black"/>
<circle cx="6900.61" cy="66.0724" r="19.8299" transform="rotate(-90 6900.61 66.0724)" fill="black" stroke="black"/>
<circle cx="6959.57" cy="66.0724" r="19.8299" transform="rotate(-90 6959.57 66.0724)" fill="black" stroke="black"/>
<circle cx="6780.67" cy="907.73" r="19.8299" transform="rotate(-90 6780.67 907.73)" fill="black" stroke="black"/>
<circle cx="6840.64" cy="907.73" r="19.8299" transform="rotate(-90 6840.64 907.73)" fill="black" stroke="black"/>
<circle cx="6900.61" cy="907.73" r="19.8299" transform="rotate(-90 6900.61 907.73)" fill="black" stroke="black"/>
<circle cx="6960.59" cy="907.73" r="19.8299" transform="rotate(-90 6960.59 907.73)" fill="black" stroke="black"/>
<path d="M6961.6 66.0723C6961.6 66.0723 6944.83 384.259 6909.5 549C6874.17 713.741 6780.67 909.763 6780.67 909.763" stroke="black" stroke-width="7"/>
<rect x="1820.74" width="290.718" height="986" fill="#FE6807"/>
<path d="M1929.35 77.8193C1888.49 196.046 1892.73 324.625 1893.49 433C1894.39 559.04 1898.49 673.774 1932.5 736.5C1970.42 806.447 2009.16 838.107 2052.22 909.5" stroke="black" stroke-width="7"/>
<path d="M1993.4 66C1993.4 138 1895.18 263.333 1879 361.5C1863.81 453.629 1956.83 553.9 1958.5 643.5C1959.84 716.081 1879 864.5 1940.4 910.5" stroke="black" stroke-width="7"/>
<path d="M1874.22 61C1895.11 103.471 1948.02 210.438 1966 313.5C1988.47 442.327 1959.5 510.033 1959.5 590C1959.5 665.031 1994.72 830.456 1994.72 904.5" stroke="black" stroke-width="7"/>
<circle cx="1878.68" cy="66.0724" r="19.8299" transform="rotate(-90 1878.68 66.0724)" fill="black" stroke="black"/>
<circle cx="1937.63" cy="66.0724" r="19.8299" transform="rotate(-90 1937.63 66.0724)" fill="black" stroke="black"/>
<circle cx="1997.61" cy="66.0724" r="19.8299" transform="rotate(-90 1997.61 66.0724)" fill="black" stroke="black"/>
<circle cx="2056.56" cy="66.0724" r="19.8299" transform="rotate(-90 2056.56 66.0724)" fill="black" stroke="black"/>
<circle cx="1877.66" cy="907.73" r="19.8299" transform="rotate(-90 1877.66 907.73)" fill="black" stroke="black"/>
<circle cx="1937.63" cy="907.73" r="19.8299" transform="rotate(-90 1937.63 907.73)" fill="black" stroke="black"/>
<circle cx="1997.61" cy="907.73" r="19.8299" transform="rotate(-90 1997.61 907.73)" fill="black" stroke="black"/>
<circle cx="2057.58" cy="907.73" r="19.8299" transform="rotate(-90 2057.58 907.73)" fill="black" stroke="black"/>
<path d="M2058.6 66.0723C2058.6 66.0723 2047.33 396.259 2012 561C1976.67 725.741 1877.66 909.763 1877.66 909.763" stroke="black" stroke-width="7"/>
<rect x="6434.74" width="290.718" height="986" fill="#FE6807"/>
<path d="M6543.35 77.8193C6502.49 196.046 6506.73 324.625 6507.49 433C6508.39 559.04 6512.49 673.774 6546.5 736.5C6584.42 806.447 6623.16 838.107 6666.22 909.5" stroke="black" stroke-width="7"/>
<path d="M6607.4 66C6607.4 138 6509.17 263.333 6493 361.5C6477.81 453.629 6570.83 553.9 6572.5 643.5C6573.84 716.081 6493 864.5 6554.4 910.5" stroke="black" stroke-width="7"/>
<path d="M6488.22 61C6509.11 103.471 6562.02 210.438 6580 313.5C6602.47 442.327 6573.5 510.033 6573.5 590C6573.5 665.031 6608.72 830.456 6608.72 904.5" stroke="black" stroke-width="7"/>
<circle cx="6492.68" cy="66.0724" r="19.8299" transform="rotate(-90 6492.68 66.0724)" fill="black" stroke="black"/>
<circle cx="6551.63" cy="66.0724" r="19.8299" transform="rotate(-90 6551.63 66.0724)" fill="black" stroke="black"/>
<circle cx="6611.61" cy="66.0724" r="19.8299" transform="rotate(-90 6611.61 66.0724)" fill="black" stroke="black"/>
<circle cx="6670.56" cy="66.0724" r="19.8299" transform="rotate(-90 6670.56 66.0724)" fill="black" stroke="black"/>
<circle cx="6491.66" cy="907.73" r="19.8299" transform="rotate(-90 6491.66 907.73)" fill="black" stroke="black"/>
<circle cx="6551.63" cy="907.73" r="19.8299" transform="rotate(-90 6551.63 907.73)" fill="black" stroke="black"/>
<circle cx="6611.61" cy="907.73" r="19.8299" transform="rotate(-90 6611.61 907.73)" fill="black" stroke="black"/>
<circle cx="6671.58" cy="907.73" r="19.8299" transform="rotate(-90 6671.58 907.73)" fill="black" stroke="black"/>
<path d="M6672.6 66.0723C6672.6 66.0723 6661.33 396.259 6626 561C6590.67 725.741 6491.66 909.763 6491.66 909.763" stroke="black" stroke-width="7"/>
<rect x="2111.23" width="290.718" height="986" fill="#FE6807"/>
<path d="M2219.84 77.8193C2178.98 196.046 2195.72 311.125 2196.49 419.5C2197.38 545.54 2185.83 685.774 2219.84 748.5C2257.76 818.447 2299.66 838.107 2342.71 909.5" stroke="black" stroke-width="7"/>
<path d="M2283.89 66C2283.89 138 2182.17 254.833 2165.99 353C2150.81 445.129 2260.33 549.9 2261.99 639.5C2263.34 712.081 2165.99 871.5 2230.89 910.5" stroke="black" stroke-width="7"/>
<path d="M2164.71 61C2185.6 103.471 2250.51 205.438 2268.49 308.5C2290.96 437.327 2239.99 508.533 2239.99 588.5C2239.99 663.531 2298.99 830 2285.21 904.5" stroke="black" stroke-width="7"/>
<circle cx="2169.17" cy="66.0724" r="19.8299" transform="rotate(-90 2169.17 66.0724)" fill="black" stroke="black"/>
<circle cx="2228.13" cy="66.0724" r="19.8299" transform="rotate(-90 2228.13 66.0724)" fill="black" stroke="black"/>
<circle cx="2288.1" cy="66.0724" r="19.8299" transform="rotate(-90 2288.1 66.0724)" fill="black" stroke="black"/>
<circle cx="2347.06" cy="66.0724" r="19.8299" transform="rotate(-90 2347.06 66.0724)" fill="black" stroke="black"/>
<circle cx="2168.15" cy="907.73" r="19.8299" transform="rotate(-90 2168.15 907.73)" fill="black" stroke="black"/>
<circle cx="2228.13" cy="907.73" r="19.8299" transform="rotate(-90 2228.13 907.73)" fill="black" stroke="black"/>
<circle cx="2288.1" cy="907.73" r="19.8299" transform="rotate(-90 2288.1 907.73)" fill="black" stroke="black"/>
<circle cx="2348.07" cy="907.73" r="19.8299" transform="rotate(-90 2348.07 907.73)" fill="black" stroke="black"/>
<path d="M2349.09 66.0723C2349.09 66.0723 2351.82 399.759 2316.49 564.5C2281.16 729.241 2168.15 909.763 2168.15 909.763" stroke="black" stroke-width="7"/>
<rect x="6154.23" width="290.718" height="986" fill="#FE6807"/>
<path d="M6262.84 77.8193C6221.98 196.046 6238.72 311.125 6239.49 419.5C6240.38 545.54 6228.83 685.774 6262.84 748.5C6300.76 818.447 6342.66 838.107 6385.71 909.5" stroke="black" stroke-width="7"/>
<path d="M6326.89 66C6326.89 138 6225.17 254.833 6208.99 353C6193.81 445.129 6303.33 549.9 6304.99 639.5C6306.34 712.081 6208.99 871.5 6273.89 910.5" stroke="black" stroke-width="7"/>
<path d="M6207.71 61C6228.6 103.471 6293.51 205.438 6311.49 308.5C6333.96 437.327 6282.99 508.533 6282.99 588.5C6282.99 663.531 6341.99 830 6328.21 904.5" stroke="black" stroke-width="7"/>
<circle cx="6212.17" cy="66.0724" r="19.8299" transform="rotate(-90 6212.17 66.0724)" fill="black" stroke="black"/>
<circle cx="6271.13" cy="66.0724" r="19.8299" transform="rotate(-90 6271.13 66.0724)" fill="black" stroke="black"/>
<circle cx="6331.1" cy="66.0724" r="19.8299" transform="rotate(-90 6331.1 66.0724)" fill="black" stroke="black"/>
<circle cx="6390.06" cy="66.0724" r="19.8299" transform="rotate(-90 6390.06 66.0724)" fill="black" stroke="black"/>
<circle cx="6211.15" cy="907.73" r="19.8299" transform="rotate(-90 6211.15 907.73)" fill="black" stroke="black"/>
<circle cx="6271.13" cy="907.73" r="19.8299" transform="rotate(-90 6271.13 907.73)" fill="black" stroke="black"/>
<circle cx="6331.1" cy="907.73" r="19.8299" transform="rotate(-90 6331.1 907.73)" fill="black" stroke="black"/>
<circle cx="6391.07" cy="907.73" r="19.8299" transform="rotate(-90 6391.07 907.73)" fill="black" stroke="black"/>
<path d="M6392.09 66.0723C6392.09 66.0723 6394.82 399.759 6359.49 564.5C6324.16 729.241 6211.15 909.763 6211.15 909.763" stroke="black" stroke-width="7"/>
<rect x="2401.23" width="290.718" height="986" fill="#FE6807"/>
<path d="M2509.84 77.8193C2468.98 196.046 2485.72 311.125 2486.49 419.5C2487.38 545.54 2475.83 685.774 2509.84 748.5C2547.76 818.447 2589.66 838.107 2632.71 909.5" stroke="black" stroke-width="7"/>
<path d="M2573.89 66C2590 139.5 2465.18 245.333 2449 343.5C2433.82 435.629 2563.83 547.4 2565.5 637C2566.85 709.581 2442 857.5 2520.89 910.5" stroke="black" stroke-width="7"/>
<path d="M2454.71 61C2475.6 103.471 2569.02 207.438 2587 310.5C2609.47 439.327 2511.5 522.533 2511.5 602.5C2511.5 677.531 2601 833 2575.21 904.5" stroke="black" stroke-width="7"/>
<circle cx="2459.17" cy="66.0724" r="19.8299" transform="rotate(-90 2459.17 66.0724)" fill="black" stroke="black"/>
<circle cx="2518.13" cy="66.0724" r="19.8299" transform="rotate(-90 2518.13 66.0724)" fill="black" stroke="black"/>
<circle cx="2578.1" cy="66.0724" r="19.8299" transform="rotate(-90 2578.1 66.0724)" fill="black" stroke="black"/>
<circle cx="2637.06" cy="66.0724" r="19.8299" transform="rotate(-90 2637.06 66.0724)" fill="black" stroke="black"/>
<circle cx="2458.15" cy="907.73" r="19.8299" transform="rotate(-90 2458.15 907.73)" fill="black" stroke="black"/>
<circle cx="2518.13" cy="907.73" r="19.8299" transform="rotate(-90 2518.13 907.73)" fill="black" stroke="black"/>
<circle cx="2578.1" cy="907.73" r="19.8299" transform="rotate(-90 2578.1 907.73)" fill="black" stroke="black"/>
<circle cx="2638.07" cy="907.73" r="19.8299" transform="rotate(-90 2638.07 907.73)" fill="black" stroke="black"/>
<path d="M2639.09 66.0723C2639.09 66.0723 2646.83 435.759 2611.5 600.5C2576.17 765.241 2458.15 909.763 2458.15 909.763" stroke="black" stroke-width="7"/>
<rect x="5868.23" width="290.718" height="986" fill="#FE6807"/>
<path d="M5976.84 77.8193C5935.98 196.046 5952.72 311.125 5953.49 419.5C5954.38 545.54 5942.83 685.774 5976.84 748.5C6014.76 818.447 6056.66 838.107 6099.71 909.5" stroke="black" stroke-width="7"/>
<path d="M6040.89 66C6057 139.5 5932.18 245.333 5916 343.5C5900.82 435.629 6030.83 547.4 6032.5 637C6033.85 709.581 5909 857.5 5987.89 910.5" stroke="black" stroke-width="7"/>
<path d="M5921.71 61C5942.6 103.471 6036.02 207.438 6054 310.5C6076.47 439.327 5978.5 522.533 5978.5 602.5C5978.5 677.531 6068 833 6042.21 904.5" stroke="black" stroke-width="7"/>
<circle cx="5926.17" cy="66.0724" r="19.8299" transform="rotate(-90 5926.17 66.0724)" fill="black" stroke="black"/>
<circle cx="5985.13" cy="66.0724" r="19.8299" transform="rotate(-90 5985.13 66.0724)" fill="black" stroke="black"/>
<circle cx="6045.1" cy="66.0724" r="19.8299" transform="rotate(-90 6045.1 66.0724)" fill="black" stroke="black"/>
<circle cx="6104.06" cy="66.0724" r="19.8299" transform="rotate(-90 6104.06 66.0724)" fill="black" stroke="black"/>
<circle cx="5925.15" cy="907.73" r="19.8299" transform="rotate(-90 5925.15 907.73)" fill="black" stroke="black"/>
<circle cx="5985.13" cy="907.73" r="19.8299" transform="rotate(-90 5985.13 907.73)" fill="black" stroke="black"/>
<circle cx="6045.1" cy="907.73" r="19.8299" transform="rotate(-90 6045.1 907.73)" fill="black" stroke="black"/>
<circle cx="6105.07" cy="907.73" r="19.8299" transform="rotate(-90 6105.07 907.73)" fill="black" stroke="black"/>
<path d="M6106.09 66.0723C6106.09 66.0723 6113.83 435.759 6078.5 600.5C6043.17 765.241 5925.15 909.763 5925.15 909.763" stroke="black" stroke-width="7"/>
<rect x="2689.36" width="290.718" height="986" fill="#FE6807"/>
<path d="M2797.97 77.8193C2757.11 196.046 2797.2 309.625 2797.97 418C2798.86 544.04 2735.12 681.274 2769.13 744C2807.06 813.947 2877.79 838.107 2920.84 909.5" stroke="black" stroke-width="7"/>
<path d="M2862.03 66C2878.13 139.5 2740.81 240.833 2724.63 339C2709.45 431.129 2860.36 546.4 2862.03 636C2863.38 708.581 2724.63 871.5 2809.03 910.5" stroke="black" stroke-width="7"/>
<path d="M2742.84 61C2763.74 103.471 2869.66 214.438 2887.63 317.5C2910.11 446.327 2789.63 521.033 2789.63 601C2789.63 676.031 2889.13 833 2863.34 904.5" stroke="black" stroke-width="7"/>
<circle cx="2747.3" cy="66.0724" r="19.8299" transform="rotate(-90 2747.3 66.0724)" fill="black" stroke="black"/>
<circle cx="2806.26" cy="66.0724" r="19.8299" transform="rotate(-90 2806.26 66.0724)" fill="black" stroke="black"/>
<circle cx="2866.23" cy="66.0724" r="19.8299" transform="rotate(-90 2866.23 66.0724)" fill="black" stroke="black"/>
<circle cx="2925.19" cy="66.0724" r="19.8299" transform="rotate(-90 2925.19 66.0724)" fill="black" stroke="black"/>
<circle cx="2746.28" cy="907.73" r="19.8299" transform="rotate(-90 2746.28 907.73)" fill="black" stroke="black"/>
<circle cx="2806.26" cy="907.73" r="19.8299" transform="rotate(-90 2806.26 907.73)" fill="black" stroke="black"/>
<circle cx="2866.23" cy="907.73" r="19.8299" transform="rotate(-90 2866.23 907.73)" fill="black" stroke="black"/>
<circle cx="2926.2" cy="907.73" r="19.8299" transform="rotate(-90 2926.2 907.73)" fill="black" stroke="black"/>
<path d="M2927.22 66.0723C2927.22 66.0723 2949.96 443.259 2914.63 608C2879.3 772.741 2746.29 909.763 2746.29 909.763" stroke="black" stroke-width="7"/>
<rect x="5578.36" width="290.718" height="986" fill="#FE6807"/>
<path d="M5686.97 77.8193C5646.11 196.046 5686.2 309.625 5686.97 418C5687.86 544.04 5624.12 681.274 5658.13 744C5696.06 813.947 5766.79 838.107 5809.84 909.5" stroke="black" stroke-width="7"/>
<path d="M5751.03 66C5767.13 139.5 5629.81 240.833 5613.63 339C5598.45 431.129 5749.36 546.4 5751.03 636C5752.37 708.581 5613.63 871.5 5698.03 910.5" stroke="black" stroke-width="7"/>
<path d="M5631.84 61C5652.74 103.471 5758.66 214.438 5776.63 317.5C5799.1 446.327 5678.63 521.033 5678.63 601C5678.63 676.031 5778.13 833 5752.34 904.5" stroke="black" stroke-width="7"/>
<circle cx="5636.3" cy="66.0724" r="19.8299" transform="rotate(-90 5636.3 66.0724)" fill="black" stroke="black"/>
<circle cx="5695.26" cy="66.0724" r="19.8299" transform="rotate(-90 5695.26 66.0724)" fill="black" stroke="black"/>
<circle cx="5755.23" cy="66.0724" r="19.8299" transform="rotate(-90 5755.23 66.0724)" fill="black" stroke="black"/>
<circle cx="5814.19" cy="66.0724" r="19.8299" transform="rotate(-90 5814.19 66.0724)" fill="black" stroke="black"/>
<circle cx="5635.29" cy="907.73" r="19.8299" transform="rotate(-90 5635.29 907.73)" fill="black" stroke="black"/>
<circle cx="5695.26" cy="907.73" r="19.8299" transform="rotate(-90 5695.26 907.73)" fill="black" stroke="black"/>
<circle cx="5755.23" cy="907.73" r="19.8299" transform="rotate(-90 5755.23 907.73)" fill="black" stroke="black"/>
<circle cx="5815.21" cy="907.73" r="19.8299" transform="rotate(-90 5815.21 907.73)" fill="black" stroke="black"/>
<path d="M5816.22 66.0723C5816.22 66.0723 5838.96 443.259 5803.63 608C5768.3 772.741 5635.29 909.763 5635.29 909.763" stroke="black" stroke-width="7"/>
<rect x="2978.71" width="290.718" height="986" fill="#FE6807"/>
<path d="M3087.31 77.8193C3046.46 196.046 3113.08 307.125 3113.84 415.5C3114.74 541.54 3015.83 689.274 3049.84 752C3087.77 821.947 3189.84 827 3210.19 909.5" stroke="black" stroke-width="7"/>
<path d="M3151.37 66C3190.85 143 3046.52 242.833 3030.35 341C3015.16 433.129 3156.18 540.9 3157.85 630.5C3159.19 703.081 3049.35 830 3098.37 910.5" stroke="black" stroke-width="7"/>
<path d="M3032.19 61C3053.08 103.471 3177.87 218.938 3195.84 322C3218.32 450.827 3062.34 522.033 3062.34 602C3062.34 677.031 3195.84 833 3152.69 904.5" stroke="black" stroke-width="7"/>
<circle cx="3036.65" cy="66.0724" r="19.8299" transform="rotate(-90 3036.65 66.0724)" fill="black" stroke="black"/>
<circle cx="3095.6" cy="66.0724" r="19.8299" transform="rotate(-90 3095.6 66.0724)" fill="black" stroke="black"/>
<circle cx="3155.58" cy="66.0724" r="19.8299" transform="rotate(-90 3155.58 66.0724)" fill="black" stroke="black"/>
<circle cx="3214.53" cy="66.0724" r="19.8299" transform="rotate(-90 3214.53 66.0724)" fill="black" stroke="black"/>
<circle cx="3035.63" cy="907.73" r="19.8299" transform="rotate(-90 3035.63 907.73)" fill="black" stroke="black"/>
<circle cx="3095.6" cy="907.73" r="19.8299" transform="rotate(-90 3095.6 907.73)" fill="black" stroke="black"/>
<circle cx="3155.58" cy="907.73" r="19.8299" transform="rotate(-90 3155.58 907.73)" fill="black" stroke="black"/>
<circle cx="3215.55" cy="907.73" r="19.8299" transform="rotate(-90 3215.55 907.73)" fill="black" stroke="black"/>
<path d="M3216.57 66.0723C3216.57 66.0723 3246.17 482.759 3210.84 647.5C3175.51 812.241 3035.63 909.763 3035.63 909.763" stroke="black" stroke-width="7"/>
<rect x="5287.71" width="290.718" height="986" fill="#FE6807"/>
<path d="M5396.32 77.8193C5355.46 196.046 5422.08 307.125 5422.84 415.5C5423.74 541.54 5324.83 689.274 5358.84 752C5396.77 821.947 5498.84 827 5519.19 909.5" stroke="black" stroke-width="7"/>
<path d="M5460.37 66C5499.84 143 5355.52 242.833 5339.34 341C5324.16 433.129 5465.18 540.9 5466.84 630.5C5468.19 703.081 5358.35 830 5407.37 910.5" stroke="black" stroke-width="7"/>
<path d="M5341.19 61C5362.08 103.471 5486.87 218.938 5504.85 322C5527.32 450.827 5371.34 522.033 5371.34 602C5371.34 677.031 5504.85 833 5461.69 904.5" stroke="black" stroke-width="7"/>
<circle cx="5345.65" cy="66.0724" r="19.8299" transform="rotate(-90 5345.65 66.0724)" fill="black" stroke="black"/>
<circle cx="5404.6" cy="66.0724" r="19.8299" transform="rotate(-90 5404.6 66.0724)" fill="black" stroke="black"/>
<circle cx="5464.58" cy="66.0724" r="19.8299" transform="rotate(-90 5464.58 66.0724)" fill="black" stroke="black"/>
<circle cx="5523.53" cy="66.0724" r="19.8299" transform="rotate(-90 5523.53 66.0724)" fill="black" stroke="black"/>
<circle cx="5344.63" cy="907.73" r="19.8299" transform="rotate(-90 5344.63 907.73)" fill="black" stroke="black"/>
<circle cx="5404.6" cy="907.73" r="19.8299" transform="rotate(-90 5404.6 907.73)" fill="black" stroke="black"/>
<circle cx="5464.58" cy="907.73" r="19.8299" transform="rotate(-90 5464.58 907.73)" fill="black" stroke="black"/>
<circle cx="5524.55" cy="907.73" r="19.8299" transform="rotate(-90 5524.55 907.73)" fill="black" stroke="black"/>
<path d="M5525.57 66.0723C5525.57 66.0723 5555.17 482.759 5519.84 647.5C5484.51 812.241 5344.63 909.763 5344.63 909.763" stroke="black" stroke-width="7"/>
<rect x="3268.9" width="290.718" height="986" fill="#FE6807"/>
<path d="M3377.51 77.8193C3336.65 196.046 3419.43 310.625 3420.2 419C3421.09 545.04 3287.19 698.274 3321.2 761C3359.13 830.947 3500.38 828.5 3500.38 909.5" stroke="black" stroke-width="7"/>
<path d="M3441.56 66C3492.69 148.5 3326.37 248.333 3310.19 346.5C3295.01 438.629 3460.53 546.9 3462.19 636.5C3463.54 709.081 3320.54 837 3388.56 910.5" stroke="black" stroke-width="7"/>
<path d="M3322.38 61C3343.27 103.471 3481.71 212.938 3499.69 316C3522.16 444.827 3338.69 519.533 3338.69 599.5C3338.69 674.531 3499.69 849 3442.88 904.5" stroke="black" stroke-width="7"/>
<circle cx="3326.84" cy="66.0724" r="19.8299" transform="rotate(-90 3326.84 66.0724)" fill="black" stroke="black"/>
<circle cx="3385.79" cy="66.0724" r="19.8299" transform="rotate(-90 3385.79 66.0724)" fill="black" stroke="black"/>
<circle cx="3445.77" cy="66.0724" r="19.8299" transform="rotate(-90 3445.77 66.0724)" fill="black" stroke="black"/>
<circle cx="3504.72" cy="66.0724" r="19.8299" transform="rotate(-90 3504.72 66.0724)" fill="black" stroke="black"/>
<circle cx="3325.82" cy="907.73" r="19.8299" transform="rotate(-90 3325.82 907.73)" fill="black" stroke="black"/>
<circle cx="3385.79" cy="907.73" r="19.8299" transform="rotate(-90 3385.79 907.73)" fill="black" stroke="black"/>
<circle cx="3445.77" cy="907.73" r="19.8299" transform="rotate(-90 3445.77 907.73)" fill="black" stroke="black"/>
<circle cx="3505.74" cy="907.73" r="19.8299" transform="rotate(-90 3505.74 907.73)" fill="black" stroke="black"/>
<path d="M3506.76 66.0723C3506.76 66.0723 3542.09 510.759 3506.76 675.5C3471.43 840.241 3325.82 909.763 3325.82 909.763" stroke="black" stroke-width="7"/>
<rect x="4996.9" width="290.718" height="986" fill="#FE6807"/>
<path d="M5105.51 77.8193C5064.65 196.046 5147.43 310.625 5148.2 419C5149.09 545.04 5015.19 698.274 5049.2 761C5087.13 830.947 5228.38 828.5 5228.38 909.5" stroke="black" stroke-width="7"/>
<path d="M5169.56 66C5220.69 148.5 5054.37 248.333 5038.19 346.5C5023.01 438.629 5188.53 546.9 5190.19 636.5C5191.54 709.081 5048.53 837 5116.56 910.5" stroke="black" stroke-width="7"/>
<path d="M5050.38 61C5071.27 103.471 5209.71 212.938 5227.69 316C5250.16 444.827 5066.69 519.533 5066.69 599.5C5066.69 674.531 5227.69 849 5170.88 904.5" stroke="black" stroke-width="7"/>
<circle cx="5054.84" cy="66.0724" r="19.8299" transform="rotate(-90 5054.84 66.0724)" fill="black" stroke="black"/>
<circle cx="5113.79" cy="66.0724" r="19.8299" transform="rotate(-90 5113.79 66.0724)" fill="black" stroke="black"/>
<circle cx="5173.77" cy="66.0724" r="19.8299" transform="rotate(-90 5173.77 66.0724)" fill="black" stroke="black"/>
<circle cx="5232.73" cy="66.0724" r="19.8299" transform="rotate(-90 5232.73 66.0724)" fill="black" stroke="black"/>
<circle cx="5053.82" cy="907.73" r="19.8299" transform="rotate(-90 5053.82 907.73)" fill="black" stroke="black"/>
<circle cx="5113.79" cy="907.73" r="19.8299" transform="rotate(-90 5113.79 907.73)" fill="black" stroke="black"/>
<circle cx="5173.77" cy="907.73" r="19.8299" transform="rotate(-90 5173.77 907.73)" fill="black" stroke="black"/>
<circle cx="5233.74" cy="907.73" r="19.8299" transform="rotate(-90 5233.74 907.73)" fill="black" stroke="black"/>
<path d="M5234.76 66.0723C5234.76 66.0723 5270.09 510.759 5234.76 675.5C5199.43 840.241 5053.82 909.763 5053.82 909.763" stroke="black" stroke-width="7"/>
<rect x="3558.81" width="290.718" height="986" fill="#FE6807"/>
<path d="M3667.42 77.8193C3598.93 190 3726.66 278.125 3727.43 386.5C3728.32 512.54 3574.9 719.274 3608.91 782C3646.84 851.947 3790.29 828.5 3790.29 909.5" stroke="black" stroke-width="7"/>
<path d="M3731.47 66C3782.6 148.5 3616.28 248.333 3600.1 346.5C3584.92 438.629 3750.44 546.9 3752.1 636.5C3753.45 709.081 3610.45 837 3678.47 910.5" stroke="black" stroke-width="7"/>
<path d="M3612.29 61C3633.19 103.471 3782.96 196.438 3800.93 299.5C3823.4 428.327 3601.43 494.533 3601.43 574.5C3601.43 649.531 3761.93 838 3732.79 904.5" stroke="black" stroke-width="7"/>
<circle cx="3616.75" cy="66.0724" r="19.8299" transform="rotate(-90 3616.75 66.0724)" fill="black" stroke="black"/>
<circle cx="3675.71" cy="66.0724" r="19.8299" transform="rotate(-90 3675.71 66.0724)" fill="black" stroke="black"/>
<circle cx="3735.68" cy="66.0724" r="19.8299" transform="rotate(-90 3735.68 66.0724)" fill="black" stroke="black"/>
<circle cx="3794.64" cy="66.0724" r="19.8299" transform="rotate(-90 3794.64 66.0724)" fill="black" stroke="black"/>
<circle cx="3615.73" cy="907.73" r="19.8299" transform="rotate(-90 3615.73 907.73)" fill="black" stroke="black"/>
<circle cx="3675.71" cy="907.73" r="19.8299" transform="rotate(-90 3675.71 907.73)" fill="black" stroke="black"/>
<circle cx="3735.68" cy="907.73" r="19.8299" transform="rotate(-90 3735.68 907.73)" fill="black" stroke="black"/>
<circle cx="3795.65" cy="907.73" r="19.8299" transform="rotate(-90 3795.65 907.73)" fill="black" stroke="black"/>
<path d="M3796.67 66.0723C3796.67 66.0723 3811.26 506.259 3775.93 671C3740.6 835.741 3615.73 909.763 3615.73 909.763" stroke="black" stroke-width="7"/>
<rect x="4708.81" width="290.718" height="986" fill="#FE6807"/>
<path d="M4817.42 77.8193C4748.93 190 4876.66 278.125 4877.43 386.5C4878.32 512.54 4724.9 719.274 4758.91 782C4796.84 851.947 4940.29 828.5 4940.29 909.5" stroke="black" stroke-width="7"/>
<path d="M4881.47 66C4932.6 148.5 4766.28 248.333 4750.1 346.5C4734.92 438.629 4900.44 546.9 4902.1 636.5C4903.45 709.081 4760.45 837 4828.47 910.5" stroke="black" stroke-width="7"/>
<path d="M4762.29 61C4783.19 103.471 4932.96 196.438 4950.93 299.5C4973.4 428.327 4751.43 494.533 4751.43 574.5C4751.43 649.531 4911.93 838 4882.79 904.5" stroke="black" stroke-width="7"/>
<circle cx="4766.75" cy="66.0724" r="19.8299" transform="rotate(-90 4766.75 66.0724)" fill="black" stroke="black"/>
<circle cx="4825.71" cy="66.0724" r="19.8299" transform="rotate(-90 4825.71 66.0724)" fill="black" stroke="black"/>
<circle cx="4885.68" cy="66.0724" r="19.8299" transform="rotate(-90 4885.68 66.0724)" fill="black" stroke="black"/>
<circle cx="4944.64" cy="66.0724" r="19.8299" transform="rotate(-90 4944.64 66.0724)" fill="black" stroke="black"/>
<circle cx="4765.73" cy="907.73" r="19.8299" transform="rotate(-90 4765.73 907.73)" fill="black" stroke="black"/>
<circle cx="4825.71" cy="907.73" r="19.8299" transform="rotate(-90 4825.71 907.73)" fill="black" stroke="black"/>
<circle cx="4885.68" cy="907.73" r="19.8299" transform="rotate(-90 4885.68 907.73)" fill="black" stroke="black"/>
<circle cx="4945.65" cy="907.73" r="19.8299" transform="rotate(-90 4945.65 907.73)" fill="black" stroke="black"/>
<path d="M4946.67 66.0723C4946.67 66.0723 4961.26 506.259 4925.93 671C4890.6 835.741 4765.74 909.763 4765.74 909.763" stroke="black" stroke-width="7"/>
<rect x="3848.98" width="290.718" height="986" fill="#FE6807"/>
<path d="M3957.59 77.8193C3859.68 171.5 4039.91 285.125 4040.68 393.5C4041.57 519.54 3862.66 747.274 3896.67 810C3934.59 879.947 4080.46 828.5 4080.46 909.5" stroke="black" stroke-width="7"/>
<path d="M4021.64 66C4085.17 143 3906.35 220.333 3890.17 318.5C3874.98 410.629 4052 548.9 4053.67 638.5C4055.02 711.081 3890.27 847 3968.64 910.5" stroke="black" stroke-width="7"/>
<path d="M3902.46 61C3923.35 103.471 4083.19 198.438 4101.17 301.5C4123.64 430.327 3893.67 470.533 3893.67 550.5C3893.67 625.531 4067.17 834 4022.96 904.5" stroke="black" stroke-width="7"/>
<circle cx="3906.92" cy="66.0724" r="19.8299" transform="rotate(-90 3906.92 66.0724)" fill="black" stroke="black"/>
<circle cx="3965.88" cy="66.0724" r="19.8299" transform="rotate(-90 3965.88 66.0724)" fill="black" stroke="black"/>
<circle cx="4025.85" cy="66.0724" r="19.8299" transform="rotate(-90 4025.85 66.0724)" fill="black" stroke="black"/>
<circle cx="4084.81" cy="66.0724" r="19.8299" transform="rotate(-90 4084.81 66.0724)" fill="black" stroke="black"/>
<circle cx="3905.9" cy="907.73" r="19.8299" transform="rotate(-90 3905.9 907.73)" fill="black" stroke="black"/>
<circle cx="3965.88" cy="907.73" r="19.8299" transform="rotate(-90 3965.88 907.73)" fill="black" stroke="black"/>
<circle cx="4025.85" cy="907.73" r="19.8299" transform="rotate(-90 4025.85 907.73)" fill="black" stroke="black"/>
<circle cx="4085.82" cy="907.73" r="19.8299" transform="rotate(-90 4085.82 907.73)" fill="black" stroke="black"/>
<path d="M4086.84 66.0723C4086.84 66.0723 4094.51 505.259 4059.18 670C4023.85 834.741 3905.9 909.763 3905.9 909.763" stroke="black" stroke-width="7"/>
<rect x="4424.98" width="290.718" height="986" fill="#FE6807"/>
<path d="M4533.59 77.8193C4435.68 171.5 4615.91 285.125 4616.68 393.5C4617.57 519.54 4438.66 747.274 4472.67 810C4510.59 879.947 4656.46 828.5 4656.46 909.5" stroke="black" stroke-width="7"/>
<path d="M4597.64 66C4661.17 143 4482.35 220.333 4466.17 318.5C4450.98 410.629 4628 548.9 4629.67 638.5C4631.02 711.081 4466.27 847 4544.64 910.5" stroke="black" stroke-width="7"/>
<path d="M4478.46 61C4499.35 103.471 4659.19 198.438 4677.17 301.5C4699.64 430.327 4469.67 470.533 4469.67 550.5C4469.67 625.531 4643.17 834 4598.96 904.5" stroke="black" stroke-width="7"/>
<circle cx="4482.92" cy="66.0724" r="19.8299" transform="rotate(-90 4482.92 66.0724)" fill="black" stroke="black"/>
<circle cx="4541.88" cy="66.0724" r="19.8299" transform="rotate(-90 4541.88 66.0724)" fill="black" stroke="black"/>
<circle cx="4601.85" cy="66.0724" r="19.8299" transform="rotate(-90 4601.85 66.0724)" fill="black" stroke="black"/>
<circle cx="4660.81" cy="66.0724" r="19.8299" transform="rotate(-90 4660.81 66.0724)" fill="black" stroke="black"/>
<circle cx="4481.9" cy="907.73" r="19.8299" transform="rotate(-90 4481.9 907.73)" fill="black" stroke="black"/>
<circle cx="4541.88" cy="907.73" r="19.8299" transform="rotate(-90 4541.88 907.73)" fill="black" stroke="black"/>
<circle cx="4601.85" cy="907.73" r="19.8299" transform="rotate(-90 4601.85 907.73)" fill="black" stroke="black"/>
<circle cx="4661.82" cy="907.73" r="19.8299" transform="rotate(-90 4661.82 907.73)" fill="black" stroke="black"/>
<path d="M4662.84 66.0723C4662.84 66.0723 4670.51 505.259 4635.18 670C4599.85 834.741 4481.9 909.763 4481.9 909.763" stroke="black" stroke-width="7"/>
<rect x="4135.76" width="290.718" height="986" fill="#FE6807"/>
<path d="M4244.37 77.8201C4123.8 142.501 4347.54 291.126 4348.3 399.501C4349.2 525.541 4170.29 740.774 4204.3 803.5C4242.23 873.448 4367.24 828.5 4367.24 909.5" stroke="black" stroke-width="7"/>
<path d="M4308.43 66C4371.95 143 4193.13 220.333 4176.95 318.5C4161.77 410.629 4338.79 548.9 4340.45 638.5C4341.8 711.081 4177.05 847 4255.43 910.5" stroke="black" stroke-width="7"/>
<path d="M4189.24 61C4210.14 103.471 4376.3 190.438 4394.28 293.5C4416.75 422.327 4181.28 506.533 4181.28 586.5C4181.28 661.531 4368.78 825.5 4309.74 904.5" stroke="black" stroke-width="7"/>
<circle cx="4193.7" cy="66.0724" r="19.8299" transform="rotate(-90 4193.7 66.0724)" fill="black" stroke="black"/>
<circle cx="4252.66" cy="66.0724" r="19.8299" transform="rotate(-90 4252.66 66.0724)" fill="black" stroke="black"/>
<circle cx="4312.63" cy="66.0724" r="19.8299" transform="rotate(-90 4312.63 66.0724)" fill="black" stroke="black"/>
<circle cx="4371.59" cy="66.0724" r="19.8299" transform="rotate(-90 4371.59 66.0724)" fill="black" stroke="black"/>
<circle cx="4192.68" cy="907.73" r="19.8299" transform="rotate(-90 4192.68 907.73)" fill="black" stroke="black"/>
<circle cx="4252.66" cy="907.73" r="19.8299" transform="rotate(-90 4252.66 907.73)" fill="black" stroke="black"/>
<circle cx="4312.63" cy="907.73" r="19.8299" transform="rotate(-90 4312.63 907.73)" fill="black" stroke="black"/>
<circle cx="4372.6" cy="907.73" r="19.8299" transform="rotate(-90 4372.6 907.73)" fill="black" stroke="black"/>
<path d="M4373.62 66.0723C4373.62 66.0723 4367.61 504.259 4332.28 669C4296.95 833.741 4192.68 909.763 4192.68 909.763" stroke="black" stroke-width="7"/>
</svg>
