<svg width="5346" height="986" viewBox="0 0 5346 986" fill="none" xmlns="http://www.w3.org/2000/svg">
<rect x="82.3359" width="290.718" height="986" fill="#FE6807"/>
<path d="M190.943 77.8198C148.395 197.02 134.857 329.074 134.857 437.891C134.857 564.444 160.558 663.732 194.811 726.318C233.009 796.108 276.524 839.959 319.556 906.044" stroke="black" stroke-width="7"/>
<path d="M255.14 66.0723C230.129 136.684 193.869 282.886 173.613 381.009C154.602 473.097 150.907 556.268 152.991 645.828C154.68 718.376 175.531 858.054 198.071 905.697" stroke="black" stroke-width="7"/>
<path d="M136.21 60.9897C174.359 103.374 248.043 219.203 280.865 322.056C321.893 450.621 324.262 510.122 324.262 589.926C324.262 664.805 293.234 827.82 258.685 909.763" stroke="black" stroke-width="7"/>
<circle cx="140.276" cy="66.072" r="19.8299" transform="rotate(-90 140.276 66.072)" fill="black" stroke="black"/>
<circle cx="199.232" cy="66.072" r="19.8299" transform="rotate(-90 199.232 66.072)" fill="black" stroke="black"/>
<circle cx="259.206" cy="66.072" r="19.8299" transform="rotate(-90 259.206 66.072)" fill="black" stroke="black"/>
<circle cx="318.163" cy="66.072" r="19.8299" transform="rotate(-90 318.163 66.072)" fill="black" stroke="black"/>
<circle cx="139.26" cy="907.73" r="19.8299" transform="rotate(-90 139.26 907.73)" fill="black" stroke="black"/>
<circle cx="199.232" cy="907.73" r="19.8299" transform="rotate(-90 199.232 907.73)" fill="black" stroke="black"/>
<circle cx="259.206" cy="907.73" r="19.8299" transform="rotate(-90 259.206 907.73)" fill="black" stroke="black"/>
<circle cx="319.18" cy="907.73" r="19.8299" transform="rotate(-90 319.18 907.73)" fill="black" stroke="black"/>
<path d="M320.196 66.0723L139.26 909.763" stroke="black" stroke-width="7"/>
<rect x="427.45" width="290.718" height="986" fill="#FE6807"/>
<path d="M536.059 77.8193C489.785 199.162 473.601 332.739 471.911 442.527C469.946 570.21 495.238 669.734 530.028 732.011C568.824 801.458 608.115 845.5 663.615 904" stroke="black" stroke-width="7"/>
<path d="M600.114 66C580.138 136.643 551.177 282.911 534.998 381.077C519.814 473.206 516.863 556.414 518.528 646.015C519.876 718.596 529.112 862.836 547.114 910.5" stroke="black" stroke-width="7"/>
<path d="M481.114 61C515.804 103.395 582.807 219.256 612.653 322.136C649.96 450.735 652.114 510.252 652.114 590.078C652.114 664.977 637.031 824.535 605.614 906.5" stroke="black" stroke-width="7"/>
<circle cx="485.39" cy="66.072" r="19.8299" transform="rotate(-90 485.39 66.072)" fill="black" stroke="black"/>
<circle cx="544.347" cy="66.072" r="19.8299" transform="rotate(-90 544.347 66.072)" fill="black" stroke="black"/>
<circle cx="604.321" cy="66.072" r="19.8299" transform="rotate(-90 604.321 66.072)" fill="black" stroke="black"/>
<circle cx="663.277" cy="66.072" r="19.8299" transform="rotate(-90 663.277 66.072)" fill="black" stroke="black"/>
<circle cx="484.374" cy="907.73" r="19.8299" transform="rotate(-90 484.374 907.73)" fill="black" stroke="black"/>
<circle cx="544.347" cy="907.73" r="19.8299" transform="rotate(-90 544.347 907.73)" fill="black" stroke="black"/>
<circle cx="604.321" cy="907.73" r="19.8299" transform="rotate(-90 604.321 907.73)" fill="black" stroke="black"/>
<circle cx="664.294" cy="907.73" r="19.8299" transform="rotate(-90 664.294 907.73)" fill="black" stroke="black"/>
<path d="M665.31 66.0723C665.31 66.0723 622.444 328.759 587.114 493.5C551.784 658.241 484.374 909.763 484.374 909.763" stroke="black" stroke-width="7"/>
<rect x="776.821" width="290.718" height="986" fill="#FE6807"/>
<path d="M885.43 77.8193C843.807 196.487 830.926 328.163 831.346 436.738C831.834 563.01 857.637 662.24 891.758 724.902C929.806 794.778 958.692 845.952 1012.37 905.5" stroke="black" stroke-width="7"/>
<path d="M949.486 66C929.51 136.643 884.079 280.833 867.9 379C852.716 471.129 866.235 556.414 867.9 646.015C869.248 718.596 878.484 862.836 896.486 910.5" stroke="black" stroke-width="7"/>
<path d="M830.371 61C859.583 103.421 916.007 219.349 941.14 322.29C972.557 450.966 974.371 510.518 974.371 590.391C974.371 665.334 974.371 832 953.371 909.5" stroke="black" stroke-width="7"/>
<circle cx="834.762" cy="66.072" r="19.8299" transform="rotate(-90 834.762 66.072)" fill="black" stroke="black"/>
<circle cx="893.719" cy="66.072" r="19.8299" transform="rotate(-90 893.719 66.072)" fill="black" stroke="black"/>
<circle cx="953.692" cy="66.072" r="19.8299" transform="rotate(-90 953.692 66.072)" fill="black" stroke="black"/>
<circle cx="1012.65" cy="66.072" r="19.8299" transform="rotate(-90 1012.65 66.072)" fill="black" stroke="black"/>
<circle cx="833.745" cy="907.73" r="19.8299" transform="rotate(-90 833.745 907.73)" fill="black" stroke="black"/>
<circle cx="893.719" cy="907.73" r="19.8299" transform="rotate(-90 893.719 907.73)" fill="black" stroke="black"/>
<circle cx="953.692" cy="907.73" r="19.8299" transform="rotate(-90 953.692 907.73)" fill="black" stroke="black"/>
<circle cx="1013.66" cy="907.73" r="19.8299" transform="rotate(-90 1013.66 907.73)" fill="black" stroke="black"/>
<path d="M1014.68 66.0723C1014.68 66.0723 1010.2 350.259 974.872 515C939.542 679.741 833.746 909.763 833.746 909.763" stroke="black" stroke-width="7"/>
<rect x="1126.52" width="290.718" height="986" fill="#FE6807"/>
<path d="M1235.13 77.8193C1199.14 193.245 1190.26 322.618 1193.24 429.722C1196.7 554.285 1223.12 653.158 1256.43 716.287C1293.57 786.685 1315.2 835.5 1357.2 907.5" stroke="black" stroke-width="7"/>
<path d="M1299.18 66C1279.21 136.643 1230.38 273.333 1214.2 371.5C1199.01 463.629 1232.53 557.4 1234.2 647C1235.55 719.581 1228.18 862.836 1246.18 910.5" stroke="black" stroke-width="7"/>
<path d="M1179.7 61C1203.84 103.446 1250.47 219.443 1271.24 322.444C1297.2 451.195 1298.7 510.783 1298.7 590.703C1298.7 665.69 1298.7 834.5 1298.7 908.5" stroke="black" stroke-width="7"/>
<circle cx="1184.46" cy="66.072" r="19.8299" transform="rotate(-90 1184.46 66.072)" fill="black" stroke="black"/>
<circle cx="1243.42" cy="66.072" r="19.8299" transform="rotate(-90 1243.42 66.072)" fill="black" stroke="black"/>
<circle cx="1303.39" cy="66.072" r="19.8299" transform="rotate(-90 1303.39 66.072)" fill="black" stroke="black"/>
<circle cx="1362.35" cy="66.072" r="19.8299" transform="rotate(-90 1362.35 66.072)" fill="black" stroke="black"/>
<circle cx="1183.44" cy="907.73" r="19.8299" transform="rotate(-90 1183.44 907.73)" fill="black" stroke="black"/>
<circle cx="1243.42" cy="907.73" r="19.8299" transform="rotate(-90 1243.42 907.73)" fill="black" stroke="black"/>
<circle cx="1303.39" cy="907.73" r="19.8299" transform="rotate(-90 1303.39 907.73)" fill="black" stroke="black"/>
<circle cx="1363.36" cy="907.73" r="19.8299" transform="rotate(-90 1363.36 907.73)" fill="black" stroke="black"/>
<path d="M1364.38 66.0723C1364.38 66.0723 1382.03 366.259 1346.7 531C1311.37 695.741 1183.44 909.763 1183.44 909.763" stroke="black" stroke-width="7"/>
<rect x="1475.74" width="290.718" height="986" fill="#FE6807"/>
<path d="M1584.35 77.8193C1543.49 196.046 1531.16 327.409 1531.92 435.784C1532.82 561.824 1558.7 661.005 1592.71 723.731C1630.64 793.678 1664.17 838.107 1707.22 909.5" stroke="black" stroke-width="7"/>
<path d="M1648.41 66C1628.43 136.643 1563.9 269.833 1547.72 368C1532.54 460.129 1593.74 556.9 1595.41 646.5C1596.75 719.081 1555.22 871 1595.41 910.5" stroke="black" stroke-width="7"/>
<path d="M1529.22 61C1550.12 103.471 1590.48 219.536 1608.45 322.598C1630.93 451.426 1632.22 511.048 1632.22 591.015C1632.22 666.047 1649.72 830.456 1649.72 904.5" stroke="black" stroke-width="7"/>
<circle cx="1533.68" cy="66.072" r="19.8299" transform="rotate(-90 1533.68 66.072)" fill="black" stroke="black"/>
<circle cx="1592.64" cy="66.072" r="19.8299" transform="rotate(-90 1592.64 66.072)" fill="black" stroke="black"/>
<circle cx="1652.61" cy="66.072" r="19.8299" transform="rotate(-90 1652.61 66.072)" fill="black" stroke="black"/>
<circle cx="1711.57" cy="66.072" r="19.8299" transform="rotate(-90 1711.57 66.072)" fill="black" stroke="black"/>
<circle cx="1532.67" cy="907.73" r="19.8299" transform="rotate(-90 1532.67 907.73)" fill="black" stroke="black"/>
<circle cx="1592.64" cy="907.73" r="19.8299" transform="rotate(-90 1592.64 907.73)" fill="black" stroke="black"/>
<circle cx="1652.61" cy="907.73" r="19.8299" transform="rotate(-90 1652.61 907.73)" fill="black" stroke="black"/>
<circle cx="1712.59" cy="907.73" r="19.8299" transform="rotate(-90 1712.59 907.73)" fill="black" stroke="black"/>
<path d="M1713.6 66.0723C1713.6 66.0723 1705.05 364.759 1669.72 529.5C1634.39 694.241 1532.67 909.763 1532.67 909.763" stroke="black" stroke-width="7"/>
<rect x="1824.74" width="290.718" height="986" fill="#FE6807"/>
<path d="M1933.35 77.8193C1892.49 196.046 1880.16 327.409 1880.92 435.784C1881.82 561.824 1907.7 661.005 1941.71 723.731C1979.64 793.678 2013.17 838.107 2056.22 909.5" stroke="black" stroke-width="7"/>
<path d="M1997.41 66C1997.41 138 1906.68 268.833 1890.5 367C1875.32 459.129 1950.84 556.4 1952.5 646C1953.85 718.581 1899 892.5 1944.41 910.5" stroke="black" stroke-width="7"/>
<path d="M1878.22 61C1899.12 103.471 1945.52 218.438 1963.5 321.5C1985.97 450.327 1973.5 513.533 1973.5 593.5C1973.5 668.531 1998.72 830.456 1998.72 904.5" stroke="black" stroke-width="7"/>
<circle cx="1882.68" cy="66.072" r="19.8299" transform="rotate(-90 1882.68 66.072)" fill="black" stroke="black"/>
<circle cx="1941.64" cy="66.072" r="19.8299" transform="rotate(-90 1941.64 66.072)" fill="black" stroke="black"/>
<circle cx="2001.61" cy="66.072" r="19.8299" transform="rotate(-90 2001.61 66.072)" fill="black" stroke="black"/>
<circle cx="2060.57" cy="66.072" r="19.8299" transform="rotate(-90 2060.57 66.072)" fill="black" stroke="black"/>
<circle cx="1881.67" cy="907.73" r="19.8299" transform="rotate(-90 1881.67 907.73)" fill="black" stroke="black"/>
<circle cx="1941.64" cy="907.73" r="19.8299" transform="rotate(-90 1941.64 907.73)" fill="black" stroke="black"/>
<circle cx="2001.61" cy="907.73" r="19.8299" transform="rotate(-90 2001.61 907.73)" fill="black" stroke="black"/>
<circle cx="2061.59" cy="907.73" r="19.8299" transform="rotate(-90 2061.59 907.73)" fill="black" stroke="black"/>
<path d="M2062.6 66.0723C2062.6 66.0723 2045.83 384.259 2010.5 549C1975.17 713.741 1881.67 909.763 1881.67 909.763" stroke="black" stroke-width="7"/>
<rect x="2173.74" width="290.718" height="986" fill="#FE6807"/>
<path d="M2282.35 77.8193C2241.49 196.046 2245.73 324.625 2246.49 433C2247.39 559.04 2251.49 673.774 2285.5 736.5C2323.42 806.447 2362.16 838.107 2405.22 909.5" stroke="black" stroke-width="7"/>
<path d="M2346.4 66C2346.4 138 2248.17 263.333 2232 361.5C2216.81 453.629 2309.83 553.9 2311.5 643.5C2312.84 716.081 2232 864.5 2293.4 910.5" stroke="black" stroke-width="7"/>
<path d="M2227.22 61C2248.11 103.471 2301.02 210.438 2319 313.5C2341.47 442.327 2312.5 510.033 2312.5 590C2312.5 665.031 2347.72 830.456 2347.72 904.5" stroke="black" stroke-width="7"/>
<circle cx="2231.68" cy="66.072" r="19.8299" transform="rotate(-90 2231.68 66.072)" fill="black" stroke="black"/>
<circle cx="2290.63" cy="66.072" r="19.8299" transform="rotate(-90 2290.63 66.072)" fill="black" stroke="black"/>
<circle cx="2350.61" cy="66.072" r="19.8299" transform="rotate(-90 2350.61 66.072)" fill="black" stroke="black"/>
<circle cx="2409.56" cy="66.072" r="19.8299" transform="rotate(-90 2409.56 66.072)" fill="black" stroke="black"/>
<circle cx="2230.66" cy="907.73" r="19.8299" transform="rotate(-90 2230.66 907.73)" fill="black" stroke="black"/>
<circle cx="2290.63" cy="907.73" r="19.8299" transform="rotate(-90 2290.63 907.73)" fill="black" stroke="black"/>
<circle cx="2350.61" cy="907.73" r="19.8299" transform="rotate(-90 2350.61 907.73)" fill="black" stroke="black"/>
<circle cx="2410.58" cy="907.73" r="19.8299" transform="rotate(-90 2410.58 907.73)" fill="black" stroke="black"/>
<path d="M2411.6 66.0723C2411.6 66.0723 2400.33 396.259 2365 561C2329.67 725.741 2230.66 909.763 2230.66 909.763" stroke="black" stroke-width="7"/>
<rect x="2523.23" width="290.718" height="986" fill="#FE6807"/>
<path d="M2631.84 77.8193C2590.98 196.046 2607.72 311.125 2608.49 419.5C2609.38 545.54 2597.83 685.774 2631.84 748.5C2669.76 818.447 2711.66 838.107 2754.71 909.5" stroke="black" stroke-width="7"/>
<path d="M2695.89 66C2695.89 138 2594.17 254.833 2577.99 353C2562.81 445.129 2672.33 549.9 2673.99 639.5C2675.34 712.081 2577.99 871.5 2642.89 910.5" stroke="black" stroke-width="7"/>
<path d="M2576.71 61C2597.6 103.471 2662.51 205.438 2680.49 308.5C2702.96 437.327 2651.99 508.533 2651.99 588.5C2651.99 663.531 2710.99 830 2697.21 904.5" stroke="black" stroke-width="7"/>
<circle cx="2581.17" cy="66.072" r="19.8299" transform="rotate(-90 2581.17 66.072)" fill="black" stroke="black"/>
<circle cx="2640.13" cy="66.072" r="19.8299" transform="rotate(-90 2640.13 66.072)" fill="black" stroke="black"/>
<circle cx="2700.1" cy="66.072" r="19.8299" transform="rotate(-90 2700.1 66.072)" fill="black" stroke="black"/>
<circle cx="2759.06" cy="66.072" r="19.8299" transform="rotate(-90 2759.06 66.072)" fill="black" stroke="black"/>
<circle cx="2580.15" cy="907.73" r="19.8299" transform="rotate(-90 2580.15 907.73)" fill="black" stroke="black"/>
<circle cx="2640.13" cy="907.73" r="19.8299" transform="rotate(-90 2640.13 907.73)" fill="black" stroke="black"/>
<circle cx="2700.1" cy="907.73" r="19.8299" transform="rotate(-90 2700.1 907.73)" fill="black" stroke="black"/>
<circle cx="2760.07" cy="907.73" r="19.8299" transform="rotate(-90 2760.07 907.73)" fill="black" stroke="black"/>
<path d="M2761.09 66.0723C2761.09 66.0723 2763.82 399.759 2728.49 564.5C2693.16 729.241 2580.15 909.763 2580.15 909.763" stroke="black" stroke-width="7"/>
<rect x="2873.23" width="290.718" height="986" fill="#FE6807"/>
<path d="M2981.84 77.8193C2940.98 196.046 2957.72 311.125 2958.49 419.5C2959.38 545.54 2947.83 685.774 2981.84 748.5C3019.76 818.447 3061.66 838.107 3104.71 909.5" stroke="black" stroke-width="7"/>
<path d="M3045.89 66C3062 139.5 2937.18 245.333 2921 343.5C2905.82 435.629 3035.83 547.4 3037.5 637C3038.85 709.581 2914 857.5 2992.89 910.5" stroke="black" stroke-width="7"/>
<path d="M2926.71 61C2947.6 103.471 3041.02 207.438 3059 310.5C3081.47 439.327 2983.5 522.533 2983.5 602.5C2983.5 677.531 3073 833 3047.21 904.5" stroke="black" stroke-width="7"/>
<circle cx="2931.17" cy="66.072" r="19.8299" transform="rotate(-90 2931.17 66.072)" fill="black" stroke="black"/>
<circle cx="2990.13" cy="66.072" r="19.8299" transform="rotate(-90 2990.13 66.072)" fill="black" stroke="black"/>
<circle cx="3050.1" cy="66.072" r="19.8299" transform="rotate(-90 3050.1 66.072)" fill="black" stroke="black"/>
<circle cx="3109.06" cy="66.072" r="19.8299" transform="rotate(-90 3109.06 66.072)" fill="black" stroke="black"/>
<circle cx="2930.15" cy="907.73" r="19.8299" transform="rotate(-90 2930.15 907.73)" fill="black" stroke="black"/>
<circle cx="2990.13" cy="907.73" r="19.8299" transform="rotate(-90 2990.13 907.73)" fill="black" stroke="black"/>
<circle cx="3050.1" cy="907.73" r="19.8299" transform="rotate(-90 3050.1 907.73)" fill="black" stroke="black"/>
<circle cx="3110.07" cy="907.73" r="19.8299" transform="rotate(-90 3110.07 907.73)" fill="black" stroke="black"/>
<path d="M3111.09 66.0723C3111.09 66.0723 3118.83 435.759 3083.5 600.5C3048.17 765.241 2930.15 909.763 2930.15 909.763" stroke="black" stroke-width="7"/>
<rect x="3223.36" width="290.718" height="986" fill="#FE6807"/>
<path d="M3331.97 77.8193C3291.11 196.046 3331.2 309.625 3331.97 418C3332.86 544.04 3269.12 681.274 3303.13 744C3341.06 813.947 3411.79 838.107 3454.84 909.5" stroke="black" stroke-width="7"/>
<path d="M3396.03 66C3412.13 139.5 3274.81 240.833 3258.63 339C3243.45 431.129 3394.36 546.4 3396.03 636C3397.37 708.581 3258.63 871.5 3343.03 910.5" stroke="black" stroke-width="7"/>
<path d="M3276.84 61C3297.74 103.471 3403.66 214.438 3421.63 317.5C3444.1 446.327 3323.63 521.033 3323.63 601C3323.63 676.031 3423.13 833 3397.34 904.5" stroke="black" stroke-width="7"/>
<circle cx="3281.3" cy="66.072" r="19.8299" transform="rotate(-90 3281.3 66.072)" fill="black" stroke="black"/>
<circle cx="3340.26" cy="66.072" r="19.8299" transform="rotate(-90 3340.26 66.072)" fill="black" stroke="black"/>
<circle cx="3400.23" cy="66.072" r="19.8299" transform="rotate(-90 3400.23 66.072)" fill="black" stroke="black"/>
<circle cx="3459.19" cy="66.072" r="19.8299" transform="rotate(-90 3459.19 66.072)" fill="black" stroke="black"/>
<circle cx="3280.29" cy="907.73" r="19.8299" transform="rotate(-90 3280.29 907.73)" fill="black" stroke="black"/>
<circle cx="3340.26" cy="907.73" r="19.8299" transform="rotate(-90 3340.26 907.73)" fill="black" stroke="black"/>
<circle cx="3400.23" cy="907.73" r="19.8299" transform="rotate(-90 3400.23 907.73)" fill="black" stroke="black"/>
<circle cx="3460.21" cy="907.73" r="19.8299" transform="rotate(-90 3460.21 907.73)" fill="black" stroke="black"/>
<path d="M3461.22 66.0723C3461.22 66.0723 3483.96 443.259 3448.63 608C3413.3 772.741 3280.29 909.763 3280.29 909.763" stroke="black" stroke-width="7"/>
<rect x="3572.71" width="290.718" height="986" fill="#FE6807"/>
<path d="M3681.32 77.8193C3640.46 196.046 3707.08 307.125 3707.84 415.5C3708.74 541.54 3609.83 689.274 3643.84 752C3681.77 821.947 3783.84 827 3804.19 909.5" stroke="black" stroke-width="7"/>
<path d="M3745.37 66C3784.84 143 3640.52 242.833 3624.34 341C3609.16 433.129 3750.18 540.9 3751.84 630.5C3753.19 703.081 3643.35 830 3692.37 910.5" stroke="black" stroke-width="7"/>
<path d="M3626.19 61C3647.08 103.471 3771.87 218.938 3789.85 322C3812.32 450.827 3656.34 522.033 3656.34 602C3656.34 677.031 3789.85 833 3746.69 904.5" stroke="black" stroke-width="7"/>
<circle cx="3630.65" cy="66.072" r="19.8299" transform="rotate(-90 3630.65 66.072)" fill="black" stroke="black"/>
<circle cx="3689.6" cy="66.072" r="19.8299" transform="rotate(-90 3689.6 66.072)" fill="black" stroke="black"/>
<circle cx="3749.58" cy="66.072" r="19.8299" transform="rotate(-90 3749.58 66.072)" fill="black" stroke="black"/>
<circle cx="3808.53" cy="66.072" r="19.8299" transform="rotate(-90 3808.53 66.072)" fill="black" stroke="black"/>
<circle cx="3629.63" cy="907.73" r="19.8299" transform="rotate(-90 3629.63 907.73)" fill="black" stroke="black"/>
<circle cx="3689.6" cy="907.73" r="19.8299" transform="rotate(-90 3689.6 907.73)" fill="black" stroke="black"/>
<circle cx="3749.58" cy="907.73" r="19.8299" transform="rotate(-90 3749.58 907.73)" fill="black" stroke="black"/>
<circle cx="3809.55" cy="907.73" r="19.8299" transform="rotate(-90 3809.55 907.73)" fill="black" stroke="black"/>
<path d="M3810.57 66.0723C3810.57 66.0723 3840.17 482.759 3804.84 647.5C3769.51 812.241 3629.63 909.763 3629.63 909.763" stroke="black" stroke-width="7"/>
<rect x="3921.9" width="290.718" height="986" fill="#FE6807"/>
<path d="M4030.51 77.8193C3989.65 196.046 4072.43 310.625 4073.2 419C4074.09 545.04 3940.19 698.274 3974.2 761C4012.13 830.947 4153.38 828.5 4153.38 909.5" stroke="black" stroke-width="7"/>
<path d="M4094.56 66C4145.69 148.5 3979.37 248.333 3963.19 346.5C3948.01 438.629 4113.53 546.9 4115.19 636.5C4116.54 709.081 3973.53 837 4041.56 910.5" stroke="black" stroke-width="7"/>
<path d="M3975.38 61C3996.27 103.471 4134.71 212.938 4152.69 316C4175.16 444.827 3991.69 519.533 3991.69 599.5C3991.69 674.531 4152.69 849 4095.88 904.5" stroke="black" stroke-width="7"/>
<circle cx="3979.84" cy="66.072" r="19.8299" transform="rotate(-90 3979.84 66.072)" fill="black" stroke="black"/>
<circle cx="4038.79" cy="66.072" r="19.8299" transform="rotate(-90 4038.79 66.072)" fill="black" stroke="black"/>
<circle cx="4098.77" cy="66.072" r="19.8299" transform="rotate(-90 4098.77 66.072)" fill="black" stroke="black"/>
<circle cx="4157.73" cy="66.072" r="19.8299" transform="rotate(-90 4157.73 66.072)" fill="black" stroke="black"/>
<circle cx="3978.82" cy="907.73" r="19.8299" transform="rotate(-90 3978.82 907.73)" fill="black" stroke="black"/>
<circle cx="4038.79" cy="907.73" r="19.8299" transform="rotate(-90 4038.79 907.73)" fill="black" stroke="black"/>
<circle cx="4098.77" cy="907.73" r="19.8299" transform="rotate(-90 4098.77 907.73)" fill="black" stroke="black"/>
<circle cx="4158.74" cy="907.73" r="19.8299" transform="rotate(-90 4158.74 907.73)" fill="black" stroke="black"/>
<path d="M4159.76 66.0723C4159.76 66.0723 4195.09 510.759 4159.76 675.5C4124.43 840.241 3978.82 909.763 3978.82 909.763" stroke="black" stroke-width="7"/>
<rect x="4271.81" width="290.718" height="986" fill="#FE6807"/>
<path d="M4380.42 77.8193C4311.93 190 4439.66 278.125 4440.43 386.5C4441.32 512.54 4287.9 719.274 4321.91 782C4359.84 851.947 4503.29 828.5 4503.29 909.5" stroke="black" stroke-width="7"/>
<path d="M4444.47 66C4495.6 148.5 4329.28 248.333 4313.1 346.5C4297.92 438.629 4463.44 546.9 4465.1 636.5C4466.45 709.081 4323.45 837 4391.47 910.5" stroke="black" stroke-width="7"/>
<path d="M4325.29 61C4346.19 103.471 4495.96 196.438 4513.93 299.5C4536.4 428.327 4314.43 494.533 4314.43 574.5C4314.43 649.531 4474.93 838 4445.79 904.5" stroke="black" stroke-width="7"/>
<circle cx="4329.75" cy="66.072" r="19.8299" transform="rotate(-90 4329.75 66.072)" fill="black" stroke="black"/>
<circle cx="4388.71" cy="66.072" r="19.8299" transform="rotate(-90 4388.71 66.072)" fill="black" stroke="black"/>
<circle cx="4448.68" cy="66.072" r="19.8299" transform="rotate(-90 4448.68 66.072)" fill="black" stroke="black"/>
<circle cx="4507.64" cy="66.072" r="19.8299" transform="rotate(-90 4507.64 66.072)" fill="black" stroke="black"/>
<circle cx="4328.73" cy="907.73" r="19.8299" transform="rotate(-90 4328.73 907.73)" fill="black" stroke="black"/>
<circle cx="4388.71" cy="907.73" r="19.8299" transform="rotate(-90 4388.71 907.73)" fill="black" stroke="black"/>
<circle cx="4448.68" cy="907.73" r="19.8299" transform="rotate(-90 4448.68 907.73)" fill="black" stroke="black"/>
<circle cx="4508.65" cy="907.73" r="19.8299" transform="rotate(-90 4508.65 907.73)" fill="black" stroke="black"/>
<path d="M4509.67 66.0723C4509.67 66.0723 4524.26 506.259 4488.93 671C4453.6 835.741 4328.74 909.763 4328.74 909.763" stroke="black" stroke-width="7"/>
<rect x="4621.98" width="290.718" height="986" fill="#FE6807"/>
<path d="M4730.59 77.8193C4632.68 171.5 4812.91 285.125 4813.68 393.5C4814.57 519.54 4635.66 747.274 4669.67 810C4707.59 879.947 4853.46 828.5 4853.46 909.5" stroke="black" stroke-width="7"/>
<path d="M4794.64 66C4858.17 143 4679.35 220.333 4663.17 318.5C4647.98 410.629 4825 548.9 4826.67 638.5C4828.02 711.081 4663.27 847 4741.64 910.5" stroke="black" stroke-width="7"/>
<path d="M4675.46 61C4696.35 103.471 4856.19 198.438 4874.17 301.5C4896.64 430.327 4666.67 470.533 4666.67 550.5C4666.67 625.531 4840.17 834 4795.96 904.5" stroke="black" stroke-width="7"/>
<circle cx="4679.92" cy="66.072" r="19.8299" transform="rotate(-90 4679.92 66.072)" fill="black" stroke="black"/>
<circle cx="4738.88" cy="66.072" r="19.8299" transform="rotate(-90 4738.88 66.072)" fill="black" stroke="black"/>
<circle cx="4798.85" cy="66.072" r="19.8299" transform="rotate(-90 4798.85 66.072)" fill="black" stroke="black"/>
<circle cx="4857.81" cy="66.072" r="19.8299" transform="rotate(-90 4857.81 66.072)" fill="black" stroke="black"/>
<circle cx="4678.9" cy="907.73" r="19.8299" transform="rotate(-90 4678.9 907.73)" fill="black" stroke="black"/>
<circle cx="4738.88" cy="907.73" r="19.8299" transform="rotate(-90 4738.88 907.73)" fill="black" stroke="black"/>
<circle cx="4798.85" cy="907.73" r="19.8299" transform="rotate(-90 4798.85 907.73)" fill="black" stroke="black"/>
<circle cx="4858.82" cy="907.73" r="19.8299" transform="rotate(-90 4858.82 907.73)" fill="black" stroke="black"/>
<path d="M4859.84 66.0723C4859.84 66.0723 4867.51 505.259 4832.18 670C4796.85 834.741 4678.9 909.763 4678.9 909.763" stroke="black" stroke-width="7"/>
<rect x="4972.76" width="290.718" height="986" fill="#FE6807"/>
<path d="M5081.37 77.8196C4960.8 142.5 5184.54 291.125 5185.3 399.5C5186.2 525.54 5007.29 740.774 5041.3 803.5C5079.23 873.447 5204.24 828.5 5204.24 909.5" stroke="black" stroke-width="7"/>
<path d="M5145.43 66C5208.95 143 5030.13 220.333 5013.95 318.5C4998.77 410.629 5175.79 548.9 5177.45 638.5C5178.8 711.081 5014.05 847 5092.43 910.5" stroke="black" stroke-width="7"/>
<path d="M5026.24 61C5047.14 103.471 5213.3 190.438 5231.28 293.5C5253.75 422.327 5018.28 506.533 5018.28 586.5C5018.28 661.531 5205.78 825.5 5146.74 904.5" stroke="black" stroke-width="7"/>
<circle cx="5030.7" cy="66.072" r="19.8299" transform="rotate(-90 5030.7 66.072)" fill="black" stroke="black"/>
<circle cx="5089.66" cy="66.072" r="19.8299" transform="rotate(-90 5089.66 66.072)" fill="black" stroke="black"/>
<circle cx="5149.63" cy="66.072" r="19.8299" transform="rotate(-90 5149.63 66.072)" fill="black" stroke="black"/>
<circle cx="5208.59" cy="66.072" r="19.8299" transform="rotate(-90 5208.59 66.072)" fill="black" stroke="black"/>
<circle cx="5029.68" cy="907.73" r="19.8299" transform="rotate(-90 5029.68 907.73)" fill="black" stroke="black"/>
<circle cx="5089.66" cy="907.73" r="19.8299" transform="rotate(-90 5089.66 907.73)" fill="black" stroke="black"/>
<circle cx="5149.63" cy="907.73" r="19.8299" transform="rotate(-90 5149.63 907.73)" fill="black" stroke="black"/>
<circle cx="5209.6" cy="907.73" r="19.8299" transform="rotate(-90 5209.6 907.73)" fill="black" stroke="black"/>
<path d="M5210.62 66.0723C5210.62 66.0723 5204.61 504.259 5169.28 669C5133.95 833.741 5029.68 909.763 5029.68 909.763" stroke="black" stroke-width="7"/>
</svg>
