<svg width="2822" height="74" viewBox="0 0 2822 74" fill="none" xmlns="http://www.w3.org/2000/svg">
<path d="M3 61.026C3.26151 63.2814 4.98745 67.8333 9.79919 67.9973C15.8138 68.2023 22.0844 56.6685 20.521 42.1624C18.9519 27.6047 16.3369 8.94612 32.2888 8.94612C48.2407 8.94612 44.3181 30.0651 44.3181 38.2667C44.3181 50.364 37.7323 67.9973 46.8707 67.9973C57.4745 67.9973 53.7324 56.7202 54.5169 45.8531C55.3014 34.9861 51.6403 19.8132 62.3621 19.6081C73.0839 19.4031 66.2891 51.0035 72.8604 52.0043C80.242 53.1285 80.5534 46.5854 80.5534 40.6392C80.5534 34.6931 78.5756 16.3275 82.7597 9.97131C86.9438 3.61512 97.6656 1.15464 101.85 11.4066C106.034 21.6585 101.701 39.1944 103.008 44.7305C104.316 50.2665 104.942 56.1051 111.741 54.4647C119.325 52.6352 116.055 29.5929 124.632 29.5929C135.354 29.5929 130.662 45.8531 135.323 55.695C139.23 63.9451 152.25 65.7525 156.766 54.4647C160.95 44.0078 156.505 34.576 157.812 25.3492C159.12 16.1225 170.626 13.457 173.503 19.8132C176.379 26.1694 169.319 45.033 170.365 52.0043C171.411 58.9756 174.026 63.8965 180.302 63.2814C186.578 62.6663 188.67 53.6446 189.455 42.3675C190.239 31.0903 188.147 14.0721 204.884 13.8671C221.62 13.662 222.666 28.2198 221.881 34.9861C221.097 41.7523 219.005 61.026 226.85 62.0512C234.695 63.0764 235.48 54.2597 235.48 47.6985C235.48 41.1372 234.695 32.5256 240.448 32.5256C248.817 32.5256 244.11 54.0547 244.894 59.1806C245.679 64.3066 247.502 66.357 252.478 66.357C260.585 66.357 258.754 53.2345 258.754 44.6229C258.754 36.0112 254.308 19.8132 263.723 19.8132C273.137 19.8132 269.476 43.5977 268.691 50.774C267.907 57.9504 270.545 63.2814 277.867 63.2814C286.759 63.2814 289.089 49.9539 289.873 44.6229C290.658 39.2919 289.873 32.5256 298.503 32.5256C303.733 32.5256 305.302 41.5473 305.302 46.6733C305.302 51.7992 304.779 55.2849 308.44 55.2849C315.24 55.2849 313.932 42.9826 319.424 42.7775C324.915 42.5725 323.918 55.5187 327.56 58.2315C332.79 62.1272 338.359 54.9666 340.659 47.6985C343.059 40.112 342.959 32.9357 344.267 24.119C345.574 15.3023 345.313 3 359.173 3C373.033 3 374.602 11.6116 374.602 25.5543C374.602 40.5207 371.725 48.9287 374.602 55.2849C377.478 61.6411 379.955 68.1062 389.104 65.5957C394.334 64.1604 393.953 56.5151 394.476 49.3388C394.999 42.1624 398.65 38.8818 402.06 38.8818C409.121 38.8818 407.685 53.5048 410.311 58.2315C413.956 64.7927 421.417 60.394 424.027 52.2093C426.636 44.0247 423.294 25.9643 428.211 16.3275C432.395 8.12597 435.487 5.5971 443.162 6.88666C454.145 8.73201 453.054 35.3961 451.746 43.8027C450.439 52.2093 449.805 62.436 460.004 61.709C465.757 61.2989 467.175 52.6194 467.96 45.6481C469.044 36.0113 471.079 30.6802 478.924 30.6802C486.769 30.6802 488.096 51.1841 488.096 57.9504C488.096 64.1186 496.357 66.423 501.587 62.5273C506.817 58.6315 505.878 54.4647 505.094 46.6733C504.309 38.8818 500.387 25.5543 505.094 16.3275C509.801 7.10078 513.985 5.6655 523.399 5.6655C532.813 5.6655 537.259 15.9174 535.167 25.5543C533.075 35.1911 525.23 51.5942 527.06 55.9C528.891 60.2058 535.167 59.5907 538.305 55.9C541.966 51.5942 538.044 30.6802 546.15 30.6802C554.257 30.6802 549.656 50.2211 551.903 55.9C554.257 61.8461 562.364 58.1554 563.671 49.9539C564.979 41.7523 559.226 23.7089 563.671 16.3275C568.117 8.94613 573.008 8.51334 577.27 10.7915C583.023 13.8671 579.623 26.1694 577.27 33.1407C574.916 40.112 577.854 47.591 584.13 49.0262C590.407 50.4615 592.699 34.576 594.529 28.8349C596.36 23.0938 597.726 14.5801 602.374 13.8671C614.404 12.0217 607.081 35.6012 607.081 46.6733C606.57 53.0489 608.457 65.6366 621.764 65.8002C638.397 66.0048 633.285 35.8776 635.07 24.4789C636.734 13.8599 639.437 6.06842 650.248 6.06842C661.06 6.06842 664.803 21.4105 664.803 33.1407C664.803 43.9607 664.179 55.9 672.496 55.9C680.812 55.9 680.812 39.95 681.852 30.6802C682.891 21.4105 684.763 18.1375 690.169 17.7284C696.822 17.2249 697.446 28.8799 697.446 36.7526C697.446 44.6253 703.5 49.9539 706.5 62.5273" stroke="#FE6807" stroke-width="5"/>
<path d="M2821.7 67.9973C2815.69 68.2023 2809.42 56.6685 2810.98 42.1624C2812.55 27.6047 2815.16 8.94612 2799.21 8.94612C2783.26 8.94612 2787.18 30.0651 2787.18 38.2667C2787.18 50.364 2793.77 67.9973 2784.63 67.9973C2774.03 67.9973 2777.77 56.7202 2776.98 45.8531C2776.2 34.9861 2779.86 19.8132 2769.14 19.6081C2758.42 19.4031 2765.21 51.0035 2758.64 52.0043C2751.26 53.1285 2750.95 46.5854 2750.95 40.6392C2750.95 34.6931 2752.92 16.3275 2748.74 9.97131C2744.56 3.61512 2733.83 1.15464 2729.65 11.4066C2725.47 21.6585 2729.8 39.1944 2728.49 44.7305C2727.18 50.2665 2726.56 56.1051 2719.76 54.4647C2712.18 52.6352 2715.45 29.5929 2706.87 29.5929C2696.15 29.5929 2700.84 45.8531 2696.18 55.695C2692.27 63.9451 2679.25 65.7525 2674.73 54.4647C2670.55 44.0078 2675 34.576 2673.69 25.3492C2672.38 16.1225 2660.87 13.457 2658 19.8132C2655.12 26.1694 2662.18 45.033 2661.14 52.0043C2660.09 58.9756 2657.47 63.8965 2651.2 63.2814C2644.92 62.6663 2642.83 53.6446 2642.05 42.3675C2641.26 31.0903 2643.35 14.0721 2626.62 13.8671C2609.88 13.662 2608.83 28.2198 2609.62 34.9861C2610.4 41.7523 2612.5 61.026 2604.65 62.0512C2596.81 63.0764 2596.02 54.2597 2596.02 47.6985C2596.02 41.1372 2596.81 32.5256 2591.05 32.5256C2582.68 32.5256 2587.39 54.0547 2586.61 59.1806C2585.82 64.3066 2584 66.357 2579.02 66.357C2570.92 66.357 2572.75 53.2345 2572.75 44.6229C2572.75 36.0112 2577.19 19.8132 2567.78 19.8132C2558.36 19.8132 2562.02 43.5977 2562.81 50.774C2563.59 57.9504 2560.96 63.2814 2553.63 63.2814C2544.74 63.2814 2542.41 49.9539 2541.63 44.6229C2540.84 39.2919 2541.63 32.5256 2533 32.5256C2527.77 32.5256 2526.2 41.5473 2526.2 46.6733C2526.2 51.7992 2526.72 55.2849 2523.06 55.2849C2516.26 55.2849 2517.57 42.9826 2512.08 42.7775C2506.59 42.5725 2507.58 55.5187 2503.94 58.2315C2498.71 62.1272 2493.14 54.9666 2490.84 47.6985C2488.44 40.112 2488.54 32.9357 2487.23 24.119C2485.93 15.3023 2486.19 3 2472.33 3C2458.47 3 2456.9 11.6116 2456.9 25.5543C2456.9 40.5207 2459.78 48.9287 2456.9 55.2849C2454.02 61.6411 2451.55 68.1062 2442.4 65.5957C2437.17 64.1604 2437.55 56.5151 2437.02 49.3388C2436.5 42.1624 2432.85 38.8818 2429.44 38.8818C2422.38 38.8818 2423.81 53.5048 2421.19 58.2315C2417.54 64.7927 2410.08 60.394 2407.47 52.2093C2404.86 44.0247 2408.21 25.9643 2403.29 16.3275C2399.11 8.12597 2396.01 5.5971 2388.34 6.88666C2377.35 8.73201 2378.45 35.3961 2379.75 43.8027C2381.06 52.2093 2381.7 62.436 2371.5 61.709C2365.74 61.2989 2364.33 52.6194 2363.54 45.6481C2362.46 36.0113 2360.42 30.6802 2352.58 30.6802C2344.73 30.6802 2343.4 51.1841 2343.4 57.9504C2343.4 64.1186 2335.14 66.423 2329.91 62.5273C2324.68 58.6315 2325.62 54.4647 2326.41 46.6733C2327.19 38.8818 2331.11 25.5543 2326.41 16.3275C2321.7 7.10078 2317.52 5.6655 2308.1 5.6655C2298.69 5.6655 2294.24 15.9174 2296.33 25.5543C2298.43 35.1911 2306.27 51.5942 2304.44 55.9C2302.61 60.2058 2296.33 59.5907 2293.2 55.9C2289.53 51.5942 2293.46 30.6802 2285.35 30.6802C2277.24 30.6802 2281.84 50.2211 2279.6 55.9C2277.24 61.8461 2269.14 58.1554 2267.83 49.9539C2266.52 41.7523 2272.27 23.7089 2267.83 16.3275C2263.38 8.94613 2258.49 8.51334 2254.23 10.7915C2248.48 13.8671 2251.88 26.1694 2254.23 33.1407C2256.58 40.112 2253.65 47.591 2247.37 49.0262C2241.09 50.4615 2238.8 34.576 2236.97 28.8349C2235.14 23.0938 2233.77 14.5801 2229.13 13.8671C2217.1 12.0217 2224.42 35.6012 2224.42 46.6733C2224.93 53.0489 2223.04 65.6366 2209.74 65.8002C2193.1 66.0048 2198.22 35.8776 2196.43 24.4789C2194.77 13.8599 2192.06 6.06842 2181.25 6.06842C2170.44 6.06842 2166.7 21.4105 2166.7 33.1407C2166.7 43.9607 2167.32 55.9 2159 55.9C2150.69 55.9 2150.69 39.95 2149.65 30.6802C2148.61 21.4105 2146.74 18.1375 2141.33 17.7284C2134.68 17.2249 2134.05 28.8799 2134.05 36.7526C2134.05 44.6253 2131 58.9 2122.5 55.9" stroke="#FE6807" stroke-width="5"/>
<path d="M707 61.026C707.262 63.2814 708.987 67.8333 713.799 67.9973C719.814 68.2023 726.084 56.6685 724.521 42.1624C722.952 27.6047 720.337 8.94612 736.289 8.94612C752.241 8.94612 748.318 30.0651 748.318 38.2667C748.318 50.364 741.732 67.9973 750.871 67.9973C761.474 67.9973 757.732 56.7202 758.517 45.8531C759.301 34.9861 755.64 19.8132 766.362 19.6081C777.084 19.4031 770.289 51.0035 776.86 52.0043C784.242 53.1285 784.553 46.5854 784.553 40.6392C784.553 34.6931 782.576 16.3275 786.76 9.97131C790.944 3.61512 801.666 1.15464 805.85 11.4066C810.034 21.6585 805.701 39.1944 807.008 44.7305C808.316 50.2665 808.942 56.1051 815.741 54.4647C823.325 52.6352 820.055 29.5929 828.632 29.5929C839.354 29.5929 834.662 45.8531 839.323 55.695C843.23 63.9451 856.25 65.7525 860.766 54.4647C864.95 44.0078 860.505 34.576 861.812 25.3492C863.12 16.1225 874.626 13.457 877.503 19.8132C880.379 26.1694 873.319 45.033 874.365 52.0043C875.411 58.9756 878.026 63.8965 884.302 63.2814C890.578 62.6663 892.67 53.6446 893.455 42.3675C894.239 31.0903 892.147 14.0721 908.884 13.8671C925.62 13.662 926.666 28.2198 925.881 34.9861C925.097 41.7523 923.005 61.026 930.85 62.0512C938.695 63.0764 939.48 54.2597 939.48 47.6985C939.48 41.1372 938.695 32.5256 944.448 32.5256C952.817 32.5256 948.11 54.0547 948.894 59.1806C949.679 64.3066 951.502 66.357 956.478 66.357C964.585 66.357 962.754 53.2345 962.754 44.6229C962.754 36.0112 958.308 19.8132 967.723 19.8132C977.137 19.8132 973.476 43.5977 972.691 50.774C971.907 57.9504 974.545 63.2814 981.867 63.2814C990.759 63.2814 993.089 49.9539 993.873 44.6229C994.658 39.2919 993.873 32.5256 1002.5 32.5256C1007.73 32.5256 1009.3 41.5473 1009.3 46.6733C1009.3 51.7992 1008.78 55.2849 1012.44 55.2849C1019.24 55.2849 1017.93 42.9826 1023.42 42.7775C1028.92 42.5725 1027.92 55.5187 1031.56 58.2315C1036.79 62.1272 1042.36 54.9666 1044.66 47.6985C1047.06 40.112 1046.96 32.9357 1048.27 24.119C1049.57 15.3023 1049.31 3 1063.17 3C1077.03 3 1078.6 11.6116 1078.6 25.5543C1078.6 40.5207 1075.73 48.9287 1078.6 55.2849C1081.48 61.6411 1083.96 68.1062 1093.1 65.5957C1098.33 64.1604 1097.95 56.5151 1098.48 49.3388C1099 42.1624 1102.65 38.8818 1106.06 38.8818C1113.12 38.8818 1111.69 53.5048 1114.31 58.2315C1117.96 64.7927 1125.42 60.394 1128.03 52.2093C1130.64 44.0247 1127.29 25.9643 1132.21 16.3275C1136.39 8.12597 1139.49 5.5971 1147.16 6.88666C1158.15 8.73201 1157.05 35.3961 1155.75 43.8027C1154.44 52.2093 1153.8 62.436 1164 61.709C1169.76 61.2989 1171.18 52.6194 1171.96 45.6481C1173.04 36.0113 1175.08 30.6802 1182.92 30.6802C1190.77 30.6802 1192.1 51.1841 1192.1 57.9504C1192.1 64.1186 1200.36 66.423 1205.59 62.5273C1210.82 58.6315 1209.88 54.4647 1209.09 46.6733C1208.31 38.8818 1204.39 25.5543 1209.09 16.3275C1213.8 7.10078 1217.98 5.6655 1227.4 5.6655C1236.81 5.6655 1241.26 15.9174 1239.17 25.5543C1237.07 35.1911 1229.23 51.5942 1231.06 55.9C1232.89 60.2058 1239.17 59.5907 1242.31 55.9C1245.97 51.5942 1242.04 30.6802 1250.15 30.6802C1258.26 30.6802 1253.66 50.2211 1255.9 55.9C1258.26 61.8461 1266.36 58.1554 1267.67 49.9539C1268.98 41.7523 1263.23 23.7089 1267.67 16.3275C1272.12 8.94613 1277.01 8.51334 1281.27 10.7915C1287.02 13.8671 1283.62 26.1694 1281.27 33.1407C1278.92 40.112 1281.85 47.591 1288.13 49.0262C1294.41 50.4615 1296.7 34.576 1298.53 28.8349C1300.36 23.0938 1301.73 14.5801 1306.37 13.8671C1318.4 12.0217 1311.08 35.6012 1311.08 46.6733C1310.57 53.0489 1312.46 65.6366 1325.76 65.8002C1342.4 66.0048 1337.28 35.8776 1339.07 24.4789C1340.73 13.8599 1343.44 6.06842 1354.25 6.06842C1365.06 6.06842 1368.8 21.4105 1368.8 33.1407C1368.8 43.9607 1368.18 55.9 1376.5 55.9C1384.81 55.9 1384.81 39.95 1385.85 30.6802C1386.89 21.4105 1388.76 18.1375 1394.17 17.7284C1400.82 17.2249 1401.45 28.8799 1401.45 36.7526C1401.45 44.6253 1415 55.9 1416 64.5" stroke="#FE6807" stroke-width="5"/>
<path d="M1416 64.026C1416.26 66.2814 1417.99 70.8333 1422.8 70.9973C1428.81 71.2023 1435.08 59.6685 1433.52 45.1624C1431.95 30.6047 1429.34 11.9461 1445.29 11.9461C1461.24 11.9461 1457.32 33.0651 1457.32 41.2667C1457.32 53.364 1450.73 70.9973 1459.87 70.9973C1470.47 70.9973 1466.73 59.7202 1467.52 48.8531C1468.3 37.9861 1464.64 22.8132 1475.36 22.6081C1486.08 22.4031 1479.29 54.0035 1485.86 55.0043C1493.24 56.1285 1493.55 49.5854 1493.55 43.6392C1493.55 37.6931 1491.58 19.3275 1495.76 12.9713C1499.94 6.61512 1510.67 4.15465 1514.85 14.4066C1519.03 24.6585 1514.7 42.1944 1516.01 47.7305C1517.32 53.2665 1517.94 59.1051 1524.74 57.4647C1532.32 55.6352 1529.05 32.5929 1537.63 32.5929C1548.35 32.5929 1543.66 48.8531 1548.32 58.695C1552.23 66.9451 1565.25 68.7525 1569.77 57.4647C1573.95 47.0078 1569.5 37.576 1570.81 28.3492C1572.12 19.1225 1583.63 16.457 1586.5 22.8132C1589.38 29.1694 1582.32 48.033 1583.36 55.0043C1584.41 61.9756 1587.03 66.8965 1593.3 66.2814C1599.58 65.6663 1601.67 56.6446 1602.45 45.3675C1603.24 34.0903 1601.15 17.0721 1617.88 16.8671C1634.62 16.662 1635.67 31.2198 1634.88 37.9861C1634.1 44.7523 1632 64.026 1639.85 65.0512C1647.7 66.0764 1648.48 57.2597 1648.48 50.6985C1648.48 44.1372 1647.7 35.5256 1653.45 35.5256C1661.82 35.5256 1657.11 57.0547 1657.89 62.1806C1658.68 67.3066 1660.5 69.357 1665.48 69.357C1673.58 69.357 1671.75 56.2345 1671.75 47.6229C1671.75 39.0113 1667.31 22.8132 1676.72 22.8132C1686.14 22.8132 1682.48 46.5977 1681.69 53.774C1680.91 60.9504 1683.55 66.2814 1690.87 66.2814C1699.76 66.2814 1702.09 52.9539 1702.87 47.6229C1703.66 42.2919 1702.87 35.5256 1711.5 35.5256C1716.73 35.5256 1718.3 44.5473 1718.3 49.6733C1718.3 54.7992 1717.78 58.2849 1721.44 58.2849C1728.24 58.2849 1726.93 45.9826 1732.42 45.7775C1737.92 45.5725 1736.92 58.5187 1740.56 61.2315C1745.79 65.1272 1751.36 57.9666 1753.66 50.6985C1756.06 43.112 1755.96 35.9357 1757.27 27.119C1758.57 18.3023 1758.31 6 1772.17 6C1786.03 6 1787.6 14.6116 1787.6 28.5543C1787.6 43.5207 1784.73 51.9287 1787.6 58.2849C1790.48 64.6411 1792.96 71.1062 1802.1 68.5957C1807.33 67.1604 1806.95 59.5151 1807.48 52.3388C1808 45.1624 1811.65 41.8818 1815.06 41.8818C1822.12 41.8818 1820.69 56.5048 1823.31 61.2315C1826.96 67.7927 1834.42 63.394 1837.03 55.2093C1839.64 47.0247 1836.29 28.9643 1841.21 19.3275C1845.39 11.126 1848.49 8.5971 1856.16 9.88666C1867.15 11.732 1866.05 38.3961 1864.75 46.8027C1863.44 55.2093 1862.8 65.436 1873 64.709C1878.76 64.2989 1880.18 55.6194 1880.96 48.6481C1882.04 39.0113 1884.08 33.6802 1891.92 33.6802C1899.77 33.6802 1901.1 54.1841 1901.1 60.9504C1901.1 67.1186 1909.36 69.423 1914.59 65.5273C1919.82 61.6315 1918.88 57.4647 1918.09 49.6733C1917.31 41.8818 1913.39 28.5543 1918.09 19.3275C1922.8 10.1008 1926.98 8.6655 1936.4 8.6655C1945.81 8.6655 1950.26 18.9174 1948.17 28.5543C1946.07 38.1911 1938.23 54.5942 1940.06 58.9C1941.89 63.2058 1948.17 62.5907 1951.31 58.9C1954.97 54.5942 1951.04 33.6802 1959.15 33.6802C1967.26 33.6802 1962.66 53.2211 1964.9 58.9C1967.26 64.8461 1975.36 61.1554 1976.67 52.9539C1977.98 44.7523 1972.23 26.7089 1976.67 19.3275C1981.12 11.9461 1986.01 11.5133 1990.27 13.7915C1996.02 16.8671 1992.62 29.1694 1990.27 36.1407C1987.92 43.112 1990.85 50.591 1997.13 52.0262C2003.41 53.4615 2005.7 37.576 2007.53 31.8349C2009.36 26.0938 2010.73 17.5801 2015.37 16.8671C2027.4 15.0217 2020.08 38.6012 2020.08 49.6733C2019.57 56.0489 2021.46 68.6366 2034.76 68.8002C2051.4 69.0048 2046.28 38.8776 2048.07 27.4789C2049.73 16.8599 2052.44 9.06842 2063.25 9.06842C2074.06 9.06842 2077.8 24.4105 2077.8 36.1407C2077.8 46.9607 2077.18 58.9 2085.5 58.9C2093.81 58.9 2093.81 42.95 2094.85 33.6802C2095.89 24.4105 2097.76 21.1375 2103.17 20.7284C2109.82 20.2249 2110.45 31.8799 2110.45 39.7526C2110.45 47.6253 2118.35 56.322 2125 56.322" stroke="#FE6807" stroke-width="5"/>
</svg>
