<svg width="9240" height="385" viewBox="0 0 9240 385" fill="none" xmlns="http://www.w3.org/2000/svg">
<rect width="420" height="385" fill="#181BDF"/>
<rect x="420" width="420" height="385" fill="#FE6807"/>
<path d="M702.363 76.8646L604.277 181.585L652.757 45.8989C656.891 47.588 667.751 52.3173 678.124 57.7222C688.496 63.1271 698.605 72.7358 702.363 76.8646Z" fill="url(#paint0_linear_660_341)" stroke="#181BDF" stroke-width="2"/>
<circle cx="606.042" cy="180.042" r="140.542" fill="#FE6807" fill-opacity="0.2" stroke="#181BDF" stroke-width="5"/>
<path d="M604.307 180.768L701.575 76.96" stroke="#181BDF" stroke-width="5"/>
<circle cx="605.224" cy="179.227" r="112.751" stroke="#181BDF" stroke-width="5"/>
<path d="M689.368 180.045C689.368 226.978 651.502 265.005 604.817 265.005C558.132 265.005 520.266 226.978 520.266 180.045C520.266 133.111 558.132 95.0845 604.817 95.0845C651.502 95.0845 689.368 133.111 689.368 180.045Z" stroke="#181BDF" stroke-width="5"/>
<path d="M662.394 180.043C662.394 211.149 636.998 236.395 605.633 236.395C574.269 236.395 548.873 211.149 548.873 180.043C548.873 148.937 574.269 123.691 605.633 123.691C636.998 123.691 662.394 148.937 662.394 180.043Z" stroke="#181BDF" stroke-width="5"/>
<path d="M636.237 180.044C636.237 197.652 622.141 211.875 604.816 211.875C587.491 211.875 573.395 197.652 573.395 180.044C573.395 162.437 587.491 148.214 604.816 148.214C622.141 148.214 636.237 162.437 636.237 180.044Z" stroke="#181BDF" stroke-width="5"/>
<path d="M464.639 181.679L746.636 181.679" stroke="#181BDF" stroke-width="5"/>
<path d="M604.408 322.271V39.4561" stroke="#181BDF" stroke-width="5"/>
<path d="M292.72 274.086L188 176L323.686 224.479C321.997 228.613 317.267 239.474 311.862 249.846C306.457 260.219 296.849 270.328 292.72 274.086Z" fill="url(#paint1_linear_660_341)" stroke="#FE6807" stroke-width="2"/>
<circle cx="187.352" cy="178.042" r="140.542" transform="rotate(90 187.352 178.042)" fill="#FE6807" fill-opacity="0.2" stroke="#FE6807" stroke-width="5"/>
<path d="M186.628 176.307L290.436 273.576" stroke="#FE6807" stroke-width="5"/>
<circle cx="188.169" cy="177.223" r="112.751" transform="rotate(90 188.169 177.223)" stroke="#FE6807" stroke-width="5"/>
<path d="M187.35 261.368C140.417 261.368 102.39 223.502 102.39 176.816C102.39 130.131 140.417 92.2646 187.35 92.2646C234.284 92.2646 272.311 130.131 272.311 176.816C272.311 223.502 234.284 261.368 187.35 261.368Z" stroke="#FE6807" stroke-width="5"/>
<path d="M187.351 234.394C156.246 234.394 131 208.998 131 177.633C131 146.269 156.246 120.873 187.351 120.873C218.457 120.873 243.703 146.269 243.703 177.633C243.703 208.998 218.457 234.394 187.351 234.394Z" stroke="#FE6807" stroke-width="5"/>
<path d="M187.35 208.237C169.742 208.237 155.519 194.141 155.519 176.816C155.519 159.491 169.742 145.395 187.35 145.395C204.957 145.395 219.18 159.491 219.18 176.816C219.18 194.141 204.957 208.237 187.35 208.237Z" stroke="#FE6807" stroke-width="5"/>
<path d="M185.717 36.6377V318.635" stroke="#FE6807" stroke-width="5"/>
<path d="M45.1245 176.409H327.939" stroke="#FE6807" stroke-width="5"/>
<rect x="840" width="420" height="385" fill="#181BDF"/>
<rect x="1260" width="420" height="385" fill="#FE6807"/>
<circle cx="1446.04" cy="180.042" r="140.542" fill="#FE6807" fill-opacity="0.2" stroke="#181BDF" stroke-width="5"/>
<path d="M1501.82 51.2479L1443.56 182.374L1444.79 38.2928C1449.25 38.5304 1461.06 39.4302 1472.63 41.1286C1484.21 42.827 1496.91 48.5825 1501.82 51.2479Z" fill="url(#paint2_linear_660_341)" stroke="#181BDF" stroke-width="2"/>
<path d="M1443.32 181.593L1501.1 51.5966" stroke="#181BDF" stroke-width="5"/>
<circle cx="1445.22" cy="179.227" r="112.751" stroke="#181BDF" stroke-width="5"/>
<path d="M1529.37 180.045C1529.37 226.978 1491.5 265.005 1444.82 265.005C1398.13 265.005 1360.26 226.978 1360.26 180.045C1360.26 133.111 1398.13 95.0845 1444.82 95.0845C1491.5 95.0845 1529.37 133.111 1529.37 180.045Z" stroke="#181BDF" stroke-width="5"/>
<path d="M1502.39 180.043C1502.39 211.149 1477 236.395 1445.63 236.395C1414.27 236.395 1388.87 211.149 1388.87 180.043C1388.87 148.937 1414.27 123.691 1445.63 123.691C1477 123.691 1502.39 148.937 1502.39 180.043Z" stroke="#181BDF" stroke-width="5"/>
<path d="M1476.24 180.044C1476.24 197.652 1462.14 211.875 1444.82 211.875C1427.49 211.875 1413.39 197.652 1413.39 180.044C1413.39 162.437 1427.49 148.214 1444.82 148.214C1462.14 148.214 1476.24 162.437 1476.24 180.044Z" stroke="#181BDF" stroke-width="5"/>
<path d="M1304.64 181.679H1586.64" stroke="#181BDF" stroke-width="5"/>
<path d="M1444.41 322.271V39.4561" stroke="#181BDF" stroke-width="5"/>
<circle cx="1027.35" cy="178.042" r="140.542" transform="rotate(90 1027.35 178.042)" fill="#FE6807" fill-opacity="0.2" stroke="#FE6807" stroke-width="5"/>
<path d="M1155.72 236.288L1025.19 176.711L1169.25 179.397C1168.97 183.854 1167.95 195.656 1166.13 207.21C1164.32 218.765 1158.43 231.41 1155.72 236.288Z" fill="url(#paint3_linear_660_341)" stroke="#FE6807" stroke-width="2"/>
<path d="M1025.97 176.478L1155.38 235.572" stroke="#FE6807" stroke-width="5"/>
<circle cx="1028.17" cy="177.223" r="112.751" transform="rotate(90 1028.17 177.223)" stroke="#FE6807" stroke-width="5"/>
<path d="M1027.35 261.368C980.417 261.368 942.39 223.502 942.39 176.816C942.39 130.131 980.417 92.2646 1027.35 92.2646C1074.28 92.2646 1112.31 130.131 1112.31 176.816C1112.31 223.502 1074.28 261.368 1027.35 261.368Z" stroke="#FE6807" stroke-width="5"/>
<path d="M1027.35 234.394C996.246 234.394 971 208.998 971 177.633C971 146.269 996.246 120.873 1027.35 120.873C1058.46 120.873 1083.7 146.269 1083.7 177.633C1083.7 208.998 1058.46 234.394 1027.35 234.394Z" stroke="#FE6807" stroke-width="5"/>
<path d="M1027.35 208.237C1009.74 208.237 995.52 194.141 995.52 176.816C995.52 159.491 1009.74 145.395 1027.35 145.395C1044.96 145.395 1059.18 159.491 1059.18 176.816C1059.18 194.141 1044.96 208.237 1027.35 208.237Z" stroke="#FE6807" stroke-width="5"/>
<path d="M1025.72 36.6377V318.635" stroke="#FE6807" stroke-width="5"/>
<path d="M885.125 176.409H1167.94" stroke="#FE6807" stroke-width="5"/>
<rect x="1680" width="420" height="385" fill="#181BDF"/>
<rect x="2100" width="420" height="385" fill="#FE6807"/>
<circle cx="2286.04" cy="180.042" r="140.542" fill="#FE6807" fill-opacity="0.2" stroke="#181BDF" stroke-width="5"/>
<path d="M2277.23 43.4282L2284.95 186.703L2220.55 57.8113C2224.63 55.9958 2235.56 51.428 2246.64 47.6804C2257.72 43.9328 2271.65 43.2841 2277.23 43.4282Z" fill="url(#paint4_linear_660_341)" stroke="#181BDF" stroke-width="2"/>
<path d="M2284.38 186.116L2276.75 44.0633" stroke="#181BDF" stroke-width="5"/>
<circle cx="2285.22" cy="179.227" r="112.751" stroke="#181BDF" stroke-width="5"/>
<path d="M2369.37 180.045C2369.37 226.978 2331.5 265.005 2284.82 265.005C2238.13 265.005 2200.26 226.978 2200.26 180.045C2200.26 133.111 2238.13 95.0845 2284.82 95.0845C2331.5 95.0845 2369.37 133.111 2369.37 180.045Z" stroke="#181BDF" stroke-width="5"/>
<path d="M2342.39 180.043C2342.39 211.149 2317 236.395 2285.63 236.395C2254.27 236.395 2228.87 211.149 2228.87 180.043C2228.87 148.937 2254.27 123.691 2285.63 123.691C2317 123.691 2342.39 148.937 2342.39 180.043Z" stroke="#181BDF" stroke-width="5"/>
<path d="M2316.24 180.044C2316.24 197.652 2302.14 211.875 2284.82 211.875C2267.49 211.875 2253.39 197.652 2253.39 180.044C2253.39 162.437 2267.49 148.214 2284.82 148.214C2302.14 148.214 2316.24 162.437 2316.24 180.044Z" stroke="#181BDF" stroke-width="5"/>
<path d="M2144.64 181.679H2426.64" stroke="#181BDF" stroke-width="5"/>
<path d="M2284.41 322.271V39.4561" stroke="#181BDF" stroke-width="5"/>
<circle cx="1867.35" cy="178.042" r="140.542" transform="rotate(90 1867.35 178.042)" fill="#FE6807" fill-opacity="0.2" stroke="#FE6807" stroke-width="5"/>
<path d="M2004.29 169.348L1861 176.725L1990.05 112.632C1991.85 116.716 1996.39 127.657 2000.11 138.745C2003.84 149.834 2004.45 163.767 2004.29 169.348Z" fill="url(#paint5_linear_660_341)" stroke="#FE6807" stroke-width="2"/>
<path d="M1861.59 176.157L2003.66 168.87" stroke="#FE6807" stroke-width="5"/>
<circle cx="1868.17" cy="177.223" r="112.751" transform="rotate(90 1868.17 177.223)" stroke="#FE6807" stroke-width="5"/>
<path d="M1867.35 261.368C1820.42 261.368 1782.39 223.502 1782.39 176.816C1782.39 130.131 1820.42 92.2646 1867.35 92.2646C1914.28 92.2646 1952.31 130.131 1952.31 176.816C1952.31 223.502 1914.28 261.368 1867.35 261.368Z" stroke="#FE6807" stroke-width="5"/>
<path d="M1867.35 234.394C1836.25 234.394 1811 208.998 1811 177.633C1811 146.269 1836.25 120.873 1867.35 120.873C1898.46 120.873 1923.7 146.269 1923.7 177.633C1923.7 208.998 1898.46 234.394 1867.35 234.394Z" stroke="#FE6807" stroke-width="5"/>
<path d="M1867.35 208.237C1849.74 208.237 1835.52 194.141 1835.52 176.816C1835.52 159.491 1849.74 145.395 1867.35 145.395C1884.96 145.395 1899.18 159.491 1899.18 176.816C1899.18 194.141 1884.96 208.237 1867.35 208.237Z" stroke="#FE6807" stroke-width="5"/>
<path d="M1865.72 36.6377V318.635" stroke="#FE6807" stroke-width="5"/>
<path d="M1725.12 176.409H2007.94" stroke="#FE6807" stroke-width="5"/>
<rect x="2520" width="420" height="385" fill="#181BDF"/>
<rect x="2940" width="420" height="385" fill="#FE6807"/>
<circle cx="3126.04" cy="180.042" r="140.542" fill="#FE6807" fill-opacity="0.2" stroke="#181BDF" stroke-width="5"/>
<path d="M3043.61 68.413L3125.74 186.06L3003.04 110.531C3005.55 106.837 3012.42 97.1908 3019.86 88.1627C3027.3 79.1346 3038.79 71.2345 3043.61 68.413Z" fill="url(#paint6_linear_660_341)" stroke="#181BDF" stroke-width="2"/>
<path d="M3124.95 185.863L3043.54 69.2039" stroke="#181BDF" stroke-width="5"/>
<circle cx="3125.22" cy="179.227" r="112.751" stroke="#181BDF" stroke-width="5"/>
<path d="M3209.37 180.045C3209.37 226.978 3171.5 265.005 3124.82 265.005C3078.13 265.005 3040.26 226.978 3040.26 180.045C3040.26 133.111 3078.13 95.0845 3124.82 95.0845C3171.5 95.0845 3209.37 133.111 3209.37 180.045Z" stroke="#181BDF" stroke-width="5"/>
<path d="M3182.39 180.043C3182.39 211.149 3157 236.395 3125.63 236.395C3094.27 236.395 3068.87 211.149 3068.87 180.043C3068.87 148.937 3094.27 123.691 3125.63 123.691C3157 123.691 3182.39 148.937 3182.39 180.043Z" stroke="#181BDF" stroke-width="5"/>
<path d="M3156.24 180.044C3156.24 197.652 3142.14 211.875 3124.82 211.875C3107.49 211.875 3093.39 197.652 3093.39 180.044C3093.39 162.437 3107.49 148.214 3124.82 148.214C3142.14 148.214 3156.24 162.437 3156.24 180.044Z" stroke="#181BDF" stroke-width="5"/>
<path d="M2984.64 181.679H3266.64" stroke="#181BDF" stroke-width="5"/>
<path d="M3124.41 322.271V39.4561" stroke="#181BDF" stroke-width="5"/>
<circle cx="2707.35" cy="178.042" r="140.542" transform="rotate(90 2707.35 178.042)" fill="#FE6807" fill-opacity="0.2" stroke="#FE6807" stroke-width="5"/>
<path d="M2826.79 105.734L2702 176.547L2788.64 61.4168C2792.08 64.2588 2801.04 72.004 2809.34 80.2489C2817.64 88.4938 2824.43 100.674 2826.79 105.734Z" fill="url(#paint7_linear_660_341)" stroke="#FE6807" stroke-width="2"/>
<path d="M2702.27 175.776L2826.01 105.59" stroke="#FE6807" stroke-width="5"/>
<circle cx="2708.17" cy="177.223" r="112.751" transform="rotate(90 2708.17 177.223)" stroke="#FE6807" stroke-width="5"/>
<path d="M2707.35 261.368C2660.42 261.368 2622.39 223.502 2622.39 176.816C2622.39 130.131 2660.42 92.2646 2707.35 92.2646C2754.28 92.2646 2792.31 130.131 2792.31 176.816C2792.31 223.502 2754.28 261.368 2707.35 261.368Z" stroke="#FE6807" stroke-width="5"/>
<path d="M2707.35 234.394C2676.25 234.394 2651 208.998 2651 177.633C2651 146.269 2676.25 120.873 2707.35 120.873C2738.46 120.873 2763.7 146.269 2763.7 177.633C2763.7 208.998 2738.46 234.394 2707.35 234.394Z" stroke="#FE6807" stroke-width="5"/>
<path d="M2707.35 208.237C2689.74 208.237 2675.52 194.141 2675.52 176.816C2675.52 159.491 2689.74 145.395 2707.35 145.395C2724.96 145.395 2739.18 159.491 2739.18 176.816C2739.18 194.141 2724.96 208.237 2707.35 208.237Z" stroke="#FE6807" stroke-width="5"/>
<path d="M2705.72 36.6377V318.635" stroke="#FE6807" stroke-width="5"/>
<path d="M2565.12 176.409H2847.94" stroke="#FE6807" stroke-width="5"/>
<rect x="3360" width="420" height="385" fill="#181BDF"/>
<rect x="3780" width="420" height="385" fill="#FE6807"/>
<circle cx="3966.04" cy="180.042" r="140.542" fill="#FE6807" fill-opacity="0.2" stroke="#181BDF" stroke-width="5"/>
<path d="M3846.34 106.932L3968.55 182.107L3825.92 161.727C3826.75 157.339 3829.21 145.752 3832.43 134.509C3835.65 123.265 3843.05 111.439 3846.34 106.932Z" fill="url(#paint8_linear_660_341)" stroke="#181BDF" stroke-width="2"/>
<path d="M3967.75 182.242L3846.59 107.685" stroke="#181BDF" stroke-width="5"/>
<circle cx="3965.22" cy="179.227" r="112.751" stroke="#181BDF" stroke-width="5"/>
<path d="M4049.37 180.045C4049.37 226.978 4011.5 265.005 3964.82 265.005C3918.13 265.005 3880.26 226.978 3880.26 180.045C3880.26 133.111 3918.13 95.0845 3964.82 95.0845C4011.5 95.0845 4049.37 133.111 4049.37 180.045Z" stroke="#181BDF" stroke-width="5"/>
<path d="M4022.39 180.043C4022.39 211.149 3997 236.395 3965.63 236.395C3934.27 236.395 3908.87 211.149 3908.87 180.043C3908.87 148.937 3934.27 123.691 3965.63 123.691C3997 123.691 4022.39 148.937 4022.39 180.043Z" stroke="#181BDF" stroke-width="5"/>
<path d="M3996.24 180.044C3996.24 197.652 3982.14 211.875 3964.82 211.875C3947.49 211.875 3933.39 197.652 3933.39 180.044C3933.39 162.437 3947.49 148.214 3964.82 148.214C3982.14 148.214 3996.24 162.437 3996.24 180.044Z" stroke="#181BDF" stroke-width="5"/>
<path d="M3824.64 181.679H4106.63" stroke="#181BDF" stroke-width="5"/>
<path d="M3964.41 322.271V39.4561" stroke="#181BDF" stroke-width="5"/>
<circle cx="3547.35" cy="178.042" r="140.542" transform="rotate(90 3547.35 178.042)" fill="#FE6807" fill-opacity="0.2" stroke="#FE6807" stroke-width="5"/>
<path d="M3615.6 55.1189L3544.51 179.753L3560.15 36.519C3564.57 37.2019 3576.23 39.2799 3587.57 42.1285C3598.92 44.9771 3610.98 51.9757 3615.6 55.1189Z" fill="url(#paint9_linear_660_341)" stroke="#FE6807" stroke-width="2"/>
<path d="M3544.35 178.951L3614.85 55.3941" stroke="#FE6807" stroke-width="5"/>
<circle cx="3548.17" cy="177.223" r="112.751" transform="rotate(90 3548.17 177.223)" stroke="#FE6807" stroke-width="5"/>
<path d="M3547.35 261.368C3500.42 261.368 3462.39 223.502 3462.39 176.816C3462.39 130.131 3500.42 92.2646 3547.35 92.2646C3594.28 92.2646 3632.31 130.131 3632.31 176.816C3632.31 223.502 3594.28 261.368 3547.35 261.368Z" stroke="#FE6807" stroke-width="5"/>
<path d="M3547.35 234.394C3516.25 234.394 3491 208.998 3491 177.633C3491 146.269 3516.25 120.873 3547.35 120.873C3578.46 120.873 3603.7 146.269 3603.7 177.633C3603.7 208.998 3578.46 234.394 3547.35 234.394Z" stroke="#FE6807" stroke-width="5"/>
<path d="M3547.35 208.237C3529.74 208.237 3515.52 194.141 3515.52 176.816C3515.52 159.491 3529.74 145.395 3547.35 145.395C3564.96 145.395 3579.18 159.491 3579.18 176.816C3579.18 194.141 3564.96 208.237 3547.35 208.237Z" stroke="#FE6807" stroke-width="5"/>
<path d="M3545.72 36.6377V318.635" stroke="#FE6807" stroke-width="5"/>
<path d="M3405.12 176.409H3687.94" stroke="#FE6807" stroke-width="5"/>
<rect x="3360" width="420" height="385" fill="#181BDF"/>
<rect x="3780" width="420" height="385" fill="#FE6807"/>
<circle cx="3966.04" cy="180.042" r="140.542" fill="#FE6807" fill-opacity="0.2" stroke="#181BDF" stroke-width="5"/>
<path d="M3846.34 106.932L3968.55 182.107L3825.92 161.727C3826.75 157.339 3829.21 145.752 3832.43 134.509C3835.65 123.265 3843.05 111.439 3846.34 106.932Z" fill="url(#paint10_linear_660_341)" stroke="#181BDF" stroke-width="2"/>
<path d="M3967.75 182.242L3846.59 107.685" stroke="#181BDF" stroke-width="5"/>
<circle cx="3965.22" cy="179.227" r="112.751" stroke="#181BDF" stroke-width="5"/>
<path d="M4049.37 180.045C4049.37 226.978 4011.5 265.005 3964.82 265.005C3918.13 265.005 3880.26 226.978 3880.26 180.045C3880.26 133.111 3918.13 95.0845 3964.82 95.0845C4011.5 95.0845 4049.37 133.111 4049.37 180.045Z" stroke="#181BDF" stroke-width="5"/>
<path d="M4022.39 180.043C4022.39 211.149 3997 236.395 3965.63 236.395C3934.27 236.395 3908.87 211.149 3908.87 180.043C3908.87 148.937 3934.27 123.691 3965.63 123.691C3997 123.691 4022.39 148.937 4022.39 180.043Z" stroke="#181BDF" stroke-width="5"/>
<path d="M3996.24 180.044C3996.24 197.652 3982.14 211.875 3964.82 211.875C3947.49 211.875 3933.39 197.652 3933.39 180.044C3933.39 162.437 3947.49 148.214 3964.82 148.214C3982.14 148.214 3996.24 162.437 3996.24 180.044Z" stroke="#181BDF" stroke-width="5"/>
<path d="M3824.64 181.679H4106.63" stroke="#181BDF" stroke-width="5"/>
<path d="M3964.41 322.271V39.4561" stroke="#181BDF" stroke-width="5"/>
<circle cx="3547.35" cy="178.042" r="140.542" transform="rotate(90 3547.35 178.042)" fill="#FE6807" fill-opacity="0.2" stroke="#FE6807" stroke-width="5"/>
<path d="M3615.6 55.1189L3544.51 179.753L3560.15 36.519C3564.57 37.2019 3576.23 39.2799 3587.57 42.1285C3598.92 44.9771 3610.98 51.9757 3615.6 55.1189Z" fill="url(#paint11_linear_660_341)" stroke="#FE6807" stroke-width="2"/>
<path d="M3544.35 178.951L3614.85 55.3941" stroke="#FE6807" stroke-width="5"/>
<circle cx="3548.17" cy="177.223" r="112.751" transform="rotate(90 3548.17 177.223)" stroke="#FE6807" stroke-width="5"/>
<path d="M3547.35 261.368C3500.42 261.368 3462.39 223.502 3462.39 176.816C3462.39 130.131 3500.42 92.2646 3547.35 92.2646C3594.28 92.2646 3632.31 130.131 3632.31 176.816C3632.31 223.502 3594.28 261.368 3547.35 261.368Z" stroke="#FE6807" stroke-width="5"/>
<path d="M3547.35 234.394C3516.25 234.394 3491 208.998 3491 177.633C3491 146.269 3516.25 120.873 3547.35 120.873C3578.46 120.873 3603.7 146.269 3603.7 177.633C3603.7 208.998 3578.46 234.394 3547.35 234.394Z" stroke="#FE6807" stroke-width="5"/>
<path d="M3547.35 208.237C3529.74 208.237 3515.52 194.141 3515.52 176.816C3515.52 159.491 3529.74 145.395 3547.35 145.395C3564.96 145.395 3579.18 159.491 3579.18 176.816C3579.18 194.141 3564.96 208.237 3547.35 208.237Z" stroke="#FE6807" stroke-width="5"/>
<path d="M3545.72 36.6377V318.635" stroke="#FE6807" stroke-width="5"/>
<path d="M3405.12 176.409H3687.94" stroke="#FE6807" stroke-width="5"/>
<rect x="4200" width="420" height="385" fill="#181BDF"/>
<rect x="4620" width="420" height="385" fill="#FE6807"/>
<circle cx="4806.04" cy="180.042" r="140.542" fill="#FE6807" fill-opacity="0.2" stroke="#181BDF" stroke-width="5"/>
<path d="M4667.73 199.717L4810.05 181.489L4686.24 255.189C4684.13 251.254 4678.77 240.689 4674.22 229.915C4669.67 219.141 4667.99 205.294 4667.73 199.717Z" fill="url(#paint12_linear_660_341)" stroke="#181BDF" stroke-width="2"/>
<path d="M4809.5 182.1L4668.4 200.146" stroke="#181BDF" stroke-width="5"/>
<circle cx="4805.22" cy="179.227" r="112.751" stroke="#181BDF" stroke-width="5"/>
<path d="M4889.37 180.045C4889.37 226.978 4851.5 265.005 4804.82 265.005C4758.13 265.005 4720.27 226.978 4720.27 180.045C4720.27 133.111 4758.13 95.0845 4804.82 95.0845C4851.5 95.0845 4889.37 133.111 4889.37 180.045Z" stroke="#181BDF" stroke-width="5"/>
<path d="M4862.39 180.043C4862.39 211.149 4837 236.395 4805.63 236.395C4774.27 236.395 4748.87 211.149 4748.87 180.043C4748.87 148.937 4774.27 123.691 4805.63 123.691C4837 123.691 4862.39 148.937 4862.39 180.043Z" stroke="#181BDF" stroke-width="5"/>
<path d="M4836.24 180.044C4836.24 197.652 4822.14 211.875 4804.82 211.875C4787.49 211.875 4773.4 197.652 4773.4 180.044C4773.4 162.437 4787.49 148.214 4804.82 148.214C4822.14 148.214 4836.24 162.437 4836.24 180.044Z" stroke="#181BDF" stroke-width="5"/>
<path d="M4664.64 181.679H4946.64" stroke="#181BDF" stroke-width="5"/>
<path d="M4804.41 322.271V39.4561" stroke="#181BDF" stroke-width="5"/>
<circle cx="4387.35" cy="178.042" r="140.542" transform="rotate(90 4387.35 178.042)" fill="#FE6807" fill-opacity="0.2" stroke="#FE6807" stroke-width="5"/>
<path d="M4358.56 38.7362L4388.22 179.12L4304.77 61.6632C4308.52 59.242 4318.62 53.0481 4328.99 47.6415C4339.36 42.235 4353.03 39.4519 4358.56 38.7362Z" fill="url(#paint13_linear_660_341)" stroke="#FE6807" stroke-width="2"/>
<path d="M4387.57 178.627L4358.19 39.436" stroke="#FE6807" stroke-width="5"/>
<circle cx="4388.17" cy="177.222" r="112.751" transform="rotate(90 4388.17 177.222)" stroke="#FE6807" stroke-width="5"/>
<path d="M4387.35 261.367C4340.42 261.367 4302.39 223.501 4302.39 176.816C4302.39 130.13 4340.42 92.2642 4387.35 92.2642C4434.28 92.2642 4472.31 130.13 4472.31 176.816C4472.31 223.501 4434.28 261.367 4387.35 261.367Z" stroke="#FE6807" stroke-width="5"/>
<path d="M4387.35 234.393C4356.25 234.393 4331 208.997 4331 177.633C4331 146.269 4356.25 120.873 4387.35 120.873C4418.46 120.873 4443.7 146.269 4443.7 177.633C4443.7 208.997 4418.46 234.393 4387.35 234.393Z" stroke="#FE6807" stroke-width="5"/>
<path d="M4387.35 208.237C4369.74 208.237 4355.52 194.141 4355.52 176.815C4355.52 159.49 4369.74 145.394 4387.35 145.394C4404.96 145.394 4419.18 159.49 4419.18 176.815C4419.18 194.141 4404.96 208.237 4387.35 208.237Z" stroke="#FE6807" stroke-width="5"/>
<path d="M4385.72 36.6372V318.635" stroke="#FE6807" stroke-width="5"/>
<path d="M4245.12 176.409H4527.94" stroke="#FE6807" stroke-width="5"/>
<rect x="5040" width="420" height="385" fill="#181BDF"/>
<rect x="5460" width="420" height="385" fill="#FE6807"/>
<circle cx="5646.04" cy="180.042" r="140.542" fill="#FE6807" fill-opacity="0.2" stroke="#181BDF" stroke-width="5"/>
<path d="M5526.09 255.082L5648.13 179.63L5565.88 297.934C5562.33 295.223 5553.09 287.82 5544.49 279.893C5535.89 271.966 5528.64 260.049 5526.09 255.082Z" fill="url(#paint14_linear_660_341)" stroke="#181BDF" stroke-width="2"/>
<path d="M5647.89 180.411L5526.88 255.196" stroke="#181BDF" stroke-width="5"/>
<circle cx="5645.22" cy="179.227" r="112.751" stroke="#181BDF" stroke-width="5"/>
<path d="M5729.37 180.045C5729.37 226.978 5691.5 265.005 5644.82 265.005C5598.13 265.005 5560.26 226.978 5560.26 180.045C5560.26 133.111 5598.13 95.0845 5644.82 95.0845C5691.5 95.0845 5729.37 133.111 5729.37 180.045Z" stroke="#181BDF" stroke-width="5"/>
<path d="M5702.39 180.043C5702.39 211.149 5677 236.395 5645.63 236.395C5614.27 236.395 5588.87 211.149 5588.87 180.043C5588.87 148.937 5614.27 123.691 5645.63 123.691C5677 123.691 5702.39 148.937 5702.39 180.043Z" stroke="#181BDF" stroke-width="5"/>
<path d="M5676.24 180.044C5676.24 197.652 5662.14 211.875 5644.82 211.875C5627.49 211.875 5613.39 197.652 5613.39 180.044C5613.39 162.437 5627.49 148.214 5644.82 148.214C5662.14 148.214 5676.24 162.437 5676.24 180.044Z" stroke="#181BDF" stroke-width="5"/>
<path d="M5504.64 181.679H5786.64" stroke="#181BDF" stroke-width="5"/>
<path d="M5644.41 322.271V39.4561" stroke="#181BDF" stroke-width="5"/>
<circle cx="5227.35" cy="178.042" r="140.542" transform="rotate(90 5227.35 178.042)" fill="#FE6807" fill-opacity="0.2" stroke="#FE6807" stroke-width="5"/>
<path d="M5135.32 73.3512L5232.29 179.105L5100.68 120.464C5102.68 116.47 5108.22 106 5114.4 96.0675C5120.57 86.1355 5130.92 76.7849 5135.32 73.3512Z" fill="url(#paint15_linear_660_341)" stroke="#FE6807" stroke-width="2"/>
<path d="M5231.48 179.013L5135.36 74.1434" stroke="#FE6807" stroke-width="5"/>
<circle cx="5228.17" cy="177.223" r="112.751" transform="rotate(90 5228.17 177.223)" stroke="#FE6807" stroke-width="5"/>
<path d="M5227.35 261.368C5180.42 261.368 5142.39 223.502 5142.39 176.816C5142.39 130.131 5180.42 92.2646 5227.35 92.2646C5274.28 92.2646 5312.31 130.131 5312.31 176.816C5312.31 223.502 5274.28 261.368 5227.35 261.368Z" stroke="#FE6807" stroke-width="5"/>
<path d="M5227.35 234.394C5196.25 234.394 5171 208.998 5171 177.633C5171 146.269 5196.25 120.873 5227.35 120.873C5258.46 120.873 5283.7 146.269 5283.7 177.633C5283.7 208.998 5258.46 234.394 5227.35 234.394Z" stroke="#FE6807" stroke-width="5"/>
<path d="M5227.35 208.237C5209.74 208.237 5195.52 194.141 5195.52 176.816C5195.52 159.491 5209.74 145.395 5227.35 145.395C5244.96 145.395 5259.18 159.491 5259.18 176.816C5259.18 194.141 5244.96 208.237 5227.35 208.237Z" stroke="#FE6807" stroke-width="5"/>
<path d="M5225.72 36.6377V318.635" stroke="#FE6807" stroke-width="5"/>
<path d="M5085.12 176.409H5367.94" stroke="#FE6807" stroke-width="5"/>
<rect x="5880" width="420" height="385" fill="#181BDF"/>
<rect x="6300" width="420" height="385" fill="#FE6807"/>
<circle cx="6486.04" cy="180.042" r="140.542" fill="#FE6807" fill-opacity="0.2" stroke="#181BDF" stroke-width="5"/>
<path d="M6407.98 296.01L6486.63 176L6462.17 317.996C6457.81 317.042 6446.3 314.248 6435.15 310.705C6424.01 307.161 6412.4 299.432 6407.98 296.01Z" fill="url(#paint16_linear_660_341)" stroke="#181BDF" stroke-width="2"/>
<path d="M6486.74 176.81L6408.74 295.78" stroke="#181BDF" stroke-width="5"/>
<circle cx="6485.22" cy="179.227" r="112.751" stroke="#181BDF" stroke-width="5"/>
<path d="M6569.37 180.045C6569.37 226.978 6531.5 265.005 6484.82 265.005C6438.13 265.005 6400.26 226.978 6400.26 180.045C6400.26 133.111 6438.13 95.0845 6484.82 95.0845C6531.5 95.0845 6569.37 133.111 6569.37 180.045Z" stroke="#181BDF" stroke-width="5"/>
<path d="M6542.39 180.043C6542.39 211.149 6517 236.395 6485.63 236.395C6454.27 236.395 6428.87 211.149 6428.87 180.043C6428.87 148.937 6454.27 123.691 6485.63 123.691C6517 123.691 6542.39 148.937 6542.39 180.043Z" stroke="#181BDF" stroke-width="5"/>
<path d="M6516.24 180.044C6516.24 197.652 6502.14 211.875 6484.82 211.875C6467.49 211.875 6453.39 197.652 6453.39 180.044C6453.39 162.437 6467.49 148.214 6484.82 148.214C6502.14 148.214 6516.24 162.437 6516.24 180.044Z" stroke="#181BDF" stroke-width="5"/>
<path d="M6344.64 181.679H6626.64" stroke="#181BDF" stroke-width="5"/>
<path d="M6484.41 322.271V39.4561" stroke="#181BDF" stroke-width="5"/>
<circle cx="6067.35" cy="178.042" r="140.542" transform="rotate(90 6067.35 178.042)" fill="#FE6807" fill-opacity="0.2" stroke="#FE6807" stroke-width="5"/>
<path d="M5933.42 135.739L6070.62 177.713L5927.45 193.912C5927.15 189.457 5926.61 177.623 5926.9 165.931C5927.19 154.238 5931.36 140.931 5933.42 135.739Z" fill="url(#paint17_linear_660_341)" stroke="#FE6807" stroke-width="2"/>
<path d="M6069.88 178.046L5933.85 136.405" stroke="#FE6807" stroke-width="5"/>
<circle cx="6068.17" cy="177.223" r="112.751" transform="rotate(90 6068.17 177.223)" stroke="#FE6807" stroke-width="5"/>
<path d="M6067.35 261.368C6020.42 261.368 5982.39 223.502 5982.39 176.816C5982.39 130.131 6020.42 92.2646 6067.35 92.2646C6114.28 92.2646 6152.31 130.131 6152.31 176.816C6152.31 223.502 6114.28 261.368 6067.35 261.368Z" stroke="#FE6807" stroke-width="5"/>
<path d="M6067.35 234.394C6036.25 234.394 6011 208.998 6011 177.633C6011 146.269 6036.25 120.873 6067.35 120.873C6098.46 120.873 6123.7 146.269 6123.7 177.633C6123.7 208.998 6098.46 234.394 6067.35 234.394Z" stroke="#FE6807" stroke-width="5"/>
<path d="M6067.35 208.237C6049.74 208.237 6035.52 194.141 6035.52 176.816C6035.52 159.491 6049.74 145.395 6067.35 145.395C6084.96 145.395 6099.18 159.491 6099.18 176.816C6099.18 194.141 6084.96 208.237 6067.35 208.237Z" stroke="#FE6807" stroke-width="5"/>
<path d="M6065.72 36.6377V318.635" stroke="#FE6807" stroke-width="5"/>
<path d="M5925.12 176.409H6207.94" stroke="#FE6807" stroke-width="5"/>
<rect x="6720" width="420" height="385" fill="#181BDF"/>
<rect x="7140" width="420" height="385" fill="#FE6807"/>
<circle cx="7326.04" cy="180.043" r="140.542" fill="#FE6807" fill-opacity="0.2" stroke="#181BDF" stroke-width="5"/>
<path d="M7327.2 321.45L7324.14 178L7384.32 308.918C7380.18 310.599 7369.11 314.809 7357.92 318.195C7346.72 321.58 7332.77 321.775 7327.2 321.45Z" fill="url(#paint18_linear_660_341)" stroke="#181BDF" stroke-width="2"/>
<path d="M7324.69 178.605L7327.7 320.831" stroke="#181BDF" stroke-width="5"/>
<circle cx="7325.22" cy="179.228" r="112.751" stroke="#181BDF" stroke-width="5"/>
<path d="M7409.37 180.046C7409.37 226.979 7371.5 265.006 7324.82 265.006C7278.13 265.006 7240.26 226.979 7240.26 180.046C7240.26 133.112 7278.13 95.0854 7324.82 95.0854C7371.5 95.0854 7409.37 133.112 7409.37 180.046Z" stroke="#181BDF" stroke-width="5"/>
<path d="M7382.39 180.044C7382.39 211.15 7357 236.396 7325.63 236.396C7294.27 236.396 7268.87 211.15 7268.87 180.044C7268.87 148.938 7294.27 123.692 7325.63 123.692C7357 123.692 7382.39 148.938 7382.39 180.044Z" stroke="#181BDF" stroke-width="5"/>
<path d="M7356.24 180.045C7356.24 197.653 7342.14 211.876 7324.82 211.876C7307.49 211.876 7293.39 197.653 7293.39 180.045C7293.39 162.438 7307.49 148.215 7324.82 148.215C7342.14 148.215 7356.24 162.438 7356.24 180.045Z" stroke="#181BDF" stroke-width="5"/>
<path d="M7184.64 181.68H7466.64" stroke="#181BDF" stroke-width="5"/>
<path d="M7324.41 322.271V39.4565" stroke="#181BDF" stroke-width="5"/>
<circle cx="6907.35" cy="178.042" r="140.542" transform="rotate(90 6907.35 178.042)" fill="#FE6807" fill-opacity="0.2" stroke="#FE6807" stroke-width="5"/>
<path d="M6787.58 249.62L6910.84 176.175L6826.66 293.118C6823.16 290.35 6814.03 282.796 6805.57 274.729C6797.1 266.662 6790.05 254.629 6787.58 249.62Z" fill="url(#paint19_linear_660_341)" stroke="#FE6807" stroke-width="2"/>
<path d="M6910.58 176.953L6788.36 249.748" stroke="#FE6807" stroke-width="5"/>
<circle cx="6908.17" cy="177.223" r="112.751" transform="rotate(90 6908.17 177.223)" stroke="#FE6807" stroke-width="5"/>
<path d="M6907.35 261.368C6860.42 261.368 6822.39 223.502 6822.39 176.816C6822.39 130.131 6860.42 92.2646 6907.35 92.2646C6954.28 92.2646 6992.31 130.131 6992.31 176.816C6992.31 223.502 6954.28 261.368 6907.35 261.368Z" stroke="#FE6807" stroke-width="5"/>
<path d="M6907.35 234.394C6876.25 234.394 6851 208.998 6851 177.633C6851 146.269 6876.25 120.873 6907.35 120.873C6938.46 120.873 6963.7 146.269 6963.7 177.633C6963.7 208.998 6938.46 234.394 6907.35 234.394Z" stroke="#FE6807" stroke-width="5"/>
<path d="M6907.35 208.237C6889.74 208.237 6875.52 194.141 6875.52 176.816C6875.52 159.491 6889.74 145.395 6907.35 145.395C6924.96 145.395 6939.18 159.491 6939.18 176.816C6939.18 194.141 6924.96 208.237 6907.35 208.237Z" stroke="#FE6807" stroke-width="5"/>
<path d="M6905.72 36.6377V318.635" stroke="#FE6807" stroke-width="5"/>
<path d="M6765.12 176.409H7047.94" stroke="#FE6807" stroke-width="5"/>
<rect x="7560" width="420" height="385" fill="#181BDF"/>
<rect x="7980" width="420" height="385" fill="#FE6807"/>
<circle cx="8166.04" cy="180.042" r="140.542" fill="#FE6807" fill-opacity="0.2" stroke="#181BDF" stroke-width="5"/>
<path d="M8237.44 300.007L8160.34 179L8279.75 259.637C8277.09 263.222 8269.81 272.57 8262 281.276C8254.19 289.983 8242.38 297.391 8237.44 300.007Z" fill="url(#paint20_linear_660_341)" stroke="#181BDF" stroke-width="2"/>
<path d="M8161.13 179.231L8237.55 299.22" stroke="#181BDF" stroke-width="5"/>
<circle cx="8165.22" cy="179.227" r="112.751" stroke="#181BDF" stroke-width="5"/>
<path d="M8249.37 180.045C8249.37 226.978 8211.5 265.005 8164.82 265.005C8118.13 265.005 8080.26 226.978 8080.26 180.045C8080.26 133.111 8118.13 95.0845 8164.82 95.0845C8211.5 95.0845 8249.37 133.111 8249.37 180.045Z" stroke="#181BDF" stroke-width="5"/>
<path d="M8222.39 180.043C8222.39 211.149 8197 236.395 8165.63 236.395C8134.27 236.395 8108.87 211.149 8108.87 180.043C8108.87 148.937 8134.27 123.691 8165.63 123.691C8197 123.691 8222.39 148.937 8222.39 180.043Z" stroke="#181BDF" stroke-width="5"/>
<path d="M8196.24 180.045C8196.24 197.653 8182.14 211.875 8164.82 211.875C8147.49 211.875 8133.39 197.653 8133.39 180.045C8133.39 162.437 8147.49 148.215 8164.82 148.215C8182.14 148.215 8196.24 162.437 8196.24 180.045Z" stroke="#181BDF" stroke-width="5"/>
<path d="M8024.64 181.679H8306.64" stroke="#181BDF" stroke-width="5"/>
<path d="M8164.41 322.271V39.4561" stroke="#181BDF" stroke-width="5"/>
<circle cx="7747.35" cy="178.042" r="140.542" transform="rotate(90 7747.35 178.042)" fill="#FE6807" fill-opacity="0.2" stroke="#FE6807" stroke-width="5"/>
<path d="M7682.53 300.767L7745.83 172L7739.01 315.925C7734.56 315.515 7722.79 314.157 7711.3 312.011C7699.8 309.865 7687.33 303.621 7682.53 300.767Z" fill="url(#paint21_linear_660_341)" stroke="#FE6807" stroke-width="2"/>
<path d="M7746.03 172.791L7683.26 300.446" stroke="#FE6807" stroke-width="5"/>
<circle cx="7748.17" cy="177.223" r="112.751" transform="rotate(90 7748.17 177.223)" stroke="#FE6807" stroke-width="5"/>
<path d="M7747.35 261.368C7700.42 261.368 7662.39 223.502 7662.39 176.816C7662.39 130.131 7700.42 92.2646 7747.35 92.2646C7794.28 92.2646 7832.31 130.131 7832.31 176.816C7832.31 223.502 7794.28 261.368 7747.35 261.368Z" stroke="#FE6807" stroke-width="5"/>
<path d="M7747.35 234.394C7716.25 234.394 7691 208.998 7691 177.633C7691 146.269 7716.25 120.873 7747.35 120.873C7778.46 120.873 7803.7 146.269 7803.7 177.633C7803.7 208.998 7778.46 234.394 7747.35 234.394Z" stroke="#FE6807" stroke-width="5"/>
<path d="M7747.35 208.237C7729.74 208.237 7715.52 194.141 7715.52 176.816C7715.52 159.491 7729.74 145.395 7747.35 145.395C7764.96 145.395 7779.18 159.491 7779.18 176.816C7779.18 194.141 7764.96 208.237 7747.35 208.237Z" stroke="#FE6807" stroke-width="5"/>
<path d="M7745.72 36.6377V318.635" stroke="#FE6807" stroke-width="5"/>
<path d="M7605.12 176.409H7887.94" stroke="#FE6807" stroke-width="5"/>
<rect x="8400" width="420" height="385" fill="#181BDF"/>
<rect x="8820" width="420" height="385" fill="#FE6807"/>
<circle cx="9006.04" cy="180.042" r="140.542" fill="#FE6807" fill-opacity="0.2" stroke="#181BDF" stroke-width="5"/>
<path d="M9141.4 210.93L9001 181.338L9142.16 152.457C9142.86 156.868 9144.45 168.607 9145.2 180.278C9145.96 191.95 9142.98 205.576 9141.4 210.93Z" fill="url(#paint22_linear_660_341)" stroke="#181BDF" stroke-width="2"/>
<path d="M9001.71 180.939L9140.91 210.305" stroke="#181BDF" stroke-width="5"/>
<circle cx="9005.22" cy="179.227" r="112.751" stroke="#181BDF" stroke-width="5"/>
<path d="M9089.37 180.045C9089.37 226.978 9051.5 265.005 9004.82 265.005C8958.13 265.005 8920.26 226.978 8920.26 180.045C8920.26 133.111 8958.13 95.0845 9004.82 95.0845C9051.5 95.0845 9089.37 133.111 9089.37 180.045Z" stroke="#181BDF" stroke-width="5"/>
<path d="M9062.39 180.043C9062.39 211.149 9037 236.395 9005.63 236.395C8974.27 236.395 8948.87 211.149 8948.87 180.043C8948.87 148.937 8974.27 123.691 9005.63 123.691C9037 123.691 9062.39 148.937 9062.39 180.043Z" stroke="#181BDF" stroke-width="5"/>
<path d="M9036.24 180.045C9036.24 197.653 9022.14 211.875 9004.82 211.875C8987.49 211.875 8973.39 197.653 8973.39 180.045C8973.39 162.437 8987.49 148.215 9004.82 148.215C9022.14 148.215 9036.24 162.437 9036.24 180.045Z" stroke="#181BDF" stroke-width="5"/>
<path d="M8864.64 181.679H9146.64" stroke="#181BDF" stroke-width="5"/>
<path d="M9004.41 322.271V39.4561" stroke="#181BDF" stroke-width="5"/>
<circle cx="8587.35" cy="178.042" r="140.542" transform="rotate(90 8587.35 178.042)" fill="#FE6807" fill-opacity="0.2" stroke="#FE6807" stroke-width="5"/>
<path d="M8635.93 307.855L8579.35 176L8684.19 274.836C8680.98 277.945 8672.3 285.997 8663.18 293.33C8654.07 300.663 8641.22 306.069 8635.93 307.855Z" fill="url(#paint23_linear_660_341)" stroke="#FE6807" stroke-width="2"/>
<path d="M8580.08 176.355L8636.16 307.096" stroke="#FE6807" stroke-width="5"/>
<circle cx="8588.17" cy="177.223" r="112.751" transform="rotate(90 8588.17 177.223)" stroke="#FE6807" stroke-width="5"/>
<path d="M8587.35 261.368C8540.42 261.368 8502.39 223.502 8502.39 176.816C8502.39 130.131 8540.42 92.2646 8587.35 92.2646C8634.28 92.2646 8672.31 130.131 8672.31 176.816C8672.31 223.502 8634.28 261.368 8587.35 261.368Z" stroke="#FE6807" stroke-width="5"/>
<path d="M8587.35 234.394C8556.25 234.394 8531 208.998 8531 177.633C8531 146.269 8556.25 120.873 8587.35 120.873C8618.46 120.873 8643.7 146.269 8643.7 177.633C8643.7 208.998 8618.46 234.394 8587.35 234.394Z" stroke="#FE6807" stroke-width="5"/>
<path d="M8587.35 208.237C8569.74 208.237 8555.52 194.141 8555.52 176.816C8555.52 159.491 8569.74 145.395 8587.35 145.395C8604.96 145.395 8619.18 159.491 8619.18 176.816C8619.18 194.141 8604.96 208.237 8587.35 208.237Z" stroke="#FE6807" stroke-width="5"/>
<path d="M8585.72 36.6377V318.635" stroke="#FE6807" stroke-width="5"/>
<path d="M8445.12 176.409H8727.94" stroke="#FE6807" stroke-width="5"/>
<defs>
<linearGradient id="paint0_linear_660_341" x1="647.12" y1="62.2263" x2="706.835" y2="97.1978" gradientUnits="userSpaceOnUse">
<stop stop-color="#6A2A00"/>
<stop offset="1" stop-color="#FE6807"/>
</linearGradient>
<linearGradient id="paint1_linear_660_341" x1="307.358" y1="218.842" x2="272.387" y2="278.558" gradientUnits="userSpaceOnUse">
<stop stop-color="#6A2A00"/>
<stop offset="1" stop-color="#FE6807"/>
</linearGradient>
<linearGradient id="paint2_linear_660_341" x1="1444.83" y1="55.5659" x2="1512.72" y2="68.9845" gradientUnits="userSpaceOnUse">
<stop stop-color="#6A2A00"/>
<stop offset="1" stop-color="#FE6807"/>
</linearGradient>
<linearGradient id="paint3_linear_660_341" x1="1151.98" y1="179.26" x2="1137.87" y2="247.01" gradientUnits="userSpaceOnUse">
<stop stop-color="#6A2A00"/>
<stop offset="1" stop-color="#FE6807"/>
</linearGradient>
<linearGradient id="paint4_linear_660_341" x1="2228.43" y1="73.1792" x2="2295" y2="54.2706" gradientUnits="userSpaceOnUse">
<stop stop-color="#6A2A00"/>
<stop offset="1" stop-color="#FE6807"/>
</linearGradient>
<linearGradient id="paint5_linear_660_341" x1="1974.66" y1="120.481" x2="1993.41" y2="187.095" gradientUnits="userSpaceOnUse">
<stop stop-color="#6A2A00"/>
<stop offset="1" stop-color="#FE6807"/>
</linearGradient>
<linearGradient id="paint6_linear_660_341" x1="3017.85" y1="119.428" x2="3064.43" y2="68.2493" gradientUnits="userSpaceOnUse">
<stop stop-color="#6A2A00"/>
<stop offset="1" stop-color="#FE6807"/>
</linearGradient>
<linearGradient id="paint7_linear_660_341" x1="2778.4" y1="75.3291" x2="2825.01" y2="126.477" gradientUnits="userSpaceOnUse">
<stop stop-color="#6A2A00"/>
<stop offset="1" stop-color="#FE6807"/>
</linearGradient>
<linearGradient id="paint8_linear_660_341" x1="3843.04" y1="163.987" x2="3865.37" y2="98.4861" gradientUnits="userSpaceOnUse">
<stop stop-color="#6A2A00"/>
<stop offset="1" stop-color="#FE6807"/>
</linearGradient>
<linearGradient id="paint9_linear_660_341" x1="3558.46" y1="53.709" x2="3624.67" y2="73.858" gradientUnits="userSpaceOnUse">
<stop stop-color="#6A2A00"/>
<stop offset="1" stop-color="#FE6807"/>
</linearGradient>
<linearGradient id="paint10_linear_660_341" x1="3843.04" y1="163.987" x2="3865.37" y2="98.4861" gradientUnits="userSpaceOnUse">
<stop stop-color="#6A2A00"/>
<stop offset="1" stop-color="#FE6807"/>
</linearGradient>
<linearGradient id="paint11_linear_660_341" x1="3558.46" y1="53.709" x2="3624.67" y2="73.858" gradientUnits="userSpaceOnUse">
<stop stop-color="#6A2A00"/>
<stop offset="1" stop-color="#FE6807"/>
</linearGradient>
<linearGradient id="paint12_linear_660_341" x1="4700.98" y1="246.195" x2="4677.24" y2="181.196" gradientUnits="userSpaceOnUse">
<stop stop-color="#6A2A00"/>
<stop offset="1" stop-color="#FE6807"/>
</linearGradient>
<linearGradient id="paint13_linear_660_341" x1="4314.92" y1="75.6359" x2="4377.79" y2="46.7171" gradientUnits="userSpaceOnUse">
<stop stop-color="#6A2A00"/>
<stop offset="1" stop-color="#FE6807"/>
</linearGradient>
<linearGradient id="paint14_linear_660_341" x1="5575.59" y1="283.647" x2="5527.09" y2="234.287" gradientUnits="userSpaceOnUse">
<stop stop-color="#6A2A00"/>
<stop offset="1" stop-color="#FE6807"/>
</linearGradient>
<linearGradient id="paint15_linear_660_341" x1="5116.53" y1="127.324" x2="5155.94" y2="70.4361" gradientUnits="userSpaceOnUse">
<stop stop-color="#6A2A00"/>
<stop offset="1" stop-color="#FE6807"/>
</linearGradient>
<linearGradient id="paint16_linear_660_341" x1="6464.92" y1="300.943" x2="6400.09" y2="276.747" gradientUnits="userSpaceOnUse">
<stop stop-color="#6A2A00"/>
<stop offset="1" stop-color="#FE6807"/>
</linearGradient>
<linearGradient id="paint17_linear_660_341" x1="5944.59" y1="191.787" x2="5949.71" y2="122.773" gradientUnits="userSpaceOnUse">
<stop stop-color="#6A2A00"/>
<stop offset="1" stop-color="#FE6807"/>
</linearGradient>
<linearGradient id="paint18_linear_660_341" x1="7376.94" y1="293.301" x2="7309.79" y2="310.035" gradientUnits="userSpaceOnUse">
<stop stop-color="#6A2A00"/>
<stop offset="1" stop-color="#FE6807"/>
</linearGradient>
<linearGradient id="paint19_linear_660_341" x1="6836.6" y1="278.991" x2="6788.92" y2="228.844" gradientUnits="userSpaceOnUse">
<stop stop-color="#6A2A00"/>
<stop offset="1" stop-color="#FE6807"/>
</linearGradient>
<linearGradient id="paint20_linear_660_341" x1="8265.33" y1="250.124" x2="8216.64" y2="299.292" gradientUnits="userSpaceOnUse">
<stop stop-color="#6A2A00"/>
<stop offset="1" stop-color="#FE6807"/>
</linearGradient>
<linearGradient id="paint21_linear_660_341" x1="7739.64" y1="298.664" x2="7672.32" y2="282.621" gradientUnits="userSpaceOnUse">
<stop stop-color="#6A2A00"/>
<stop offset="1" stop-color="#FE6807"/>
</linearGradient>
<linearGradient id="paint22_linear_660_341" x1="9125.28" y1="156.1" x2="9126.33" y2="225.295" gradientUnits="userSpaceOnUse">
<stop stop-color="#6A2A00"/>
<stop offset="1" stop-color="#FE6807"/>
</linearGradient>
<linearGradient id="paint23_linear_660_341" x1="8671.5" y1="263.123" x2="8615.51" y2="303.795" gradientUnits="userSpaceOnUse">
<stop stop-color="#6A2A00"/>
<stop offset="1" stop-color="#FE6807"/>
</linearGradient>
</defs>
</svg>
