<svg width="368" height="376" viewBox="0 0 368 376" fill="none" xmlns="http://www.w3.org/2000/svg">
<path d="M111.256 0C126.47 30.4994 160.184 93.259 168.31 104.365C184 125.81 213.467 125.087 222.512 104.365C232.496 81.4905 251.039 29.5463 258.171 5.71863L238.202 111.513C233.922 132.958 252.465 142.141 265.302 138.677C294.971 130.671 346.129 101.029 368 87.2091L279.566 168.7C268.155 178.707 267.299 196.435 286.698 204.441C306.096 212.447 348.982 233.511 368 241.612L265.302 215.878C251.039 211.589 233.922 221.597 239.628 245.901C245.652 271.561 260.775 334.833 272.749 366.487L276.713 376C275.445 373.311 274.117 370.106 272.749 366.487L229.643 263.057C219.659 238.753 197.122 227.03 181.147 254.479C165.172 281.929 140.258 344.071 129.798 371.711L162.605 254.479C165.457 240.183 163.746 213.591 134.078 221.597C104.409 229.603 41.8398 257.338 14.2636 270.205L124.093 207.3C133.602 199.676 147.485 180.995 126.946 167.27C106.406 153.545 33.7571 124.38 0 111.513L126.946 145.825C141.685 146.778 165.213 142.293 154.047 111.513C142.636 80.0608 124.093 32.8821 111.256 0Z" fill="white"/>
</svg>
