<svg width="265" height="259" viewBox="0 0 265 259" fill="none" xmlns="http://www.w3.org/2000/svg">
<path d="M265 78.3023C243.504 89.0103 199.272 112.739 191.445 118.457C176.331 129.5 176.84 150.239 191.445 156.605C207.567 163.632 244.176 176.682 260.97 181.702L186.407 167.647C171.293 164.636 164.821 177.686 167.262 186.721C172.905 207.602 181.705 243.607 191.445 259L146.103 196.76C139.049 188.729 126.555 188.126 120.913 201.779C115.27 215.432 100.425 245.615 94.7148 259L112.852 186.721C115.875 176.682 108.821 164.636 91.692 168.651C73.6072 172.891 29.0141 183.535 6.70438 191.962L0 194.752C1.89502 193.859 4.15411 192.925 6.70438 191.962L79.6008 161.624C96.73 154.597 104.992 138.736 85.6464 127.492C66.3004 116.249 22.5032 98.7145 3.0228 91.3527L85.6464 114.442C95.7224 116.45 114.464 115.245 108.821 94.3643C103.179 73.4837 83.6312 29.447 74.5627 10.0388L118.897 87.3372C124.271 94.0297 137.437 103.801 147.11 89.345C156.783 74.8892 177.338 23.7584 186.407 0L162.224 89.345C161.553 99.7183 164.714 116.278 186.407 108.419C208.574 100.388 241.825 87.3372 265 78.3023Z" fill="#2125FF"/>
</svg>
