<svg width="230" height="232" viewBox="0 0 230 232" fill="none" xmlns="http://www.w3.org/2000/svg">
<path d="M69.5349 0C79.0439 18.8188 100.115 57.5428 105.194 64.3954C115 77.6274 133.417 77.1812 139.07 64.3954C145.31 50.2814 156.899 18.2307 161.357 3.52852L148.876 68.8061C146.202 82.038 157.791 87.704 165.814 85.5665C184.357 80.6266 216.331 62.3371 230 53.8099L174.729 104.091C167.597 110.266 167.062 121.205 179.186 126.144C191.31 131.084 218.114 144.081 230 149.08L165.814 133.202C156.899 130.555 146.202 136.73 149.767 151.726C153.532 167.559 162.984 206.599 170.468 226.13L172.946 232C172.153 230.341 171.323 228.363 170.468 226.13L143.527 162.312C137.287 147.316 123.202 140.082 113.217 157.019C103.233 173.956 87.6615 212.299 81.124 229.354L101.628 157.019C103.411 148.198 102.341 131.79 83.7984 136.73C65.2558 141.67 26.1499 158.783 8.91473 166.722L77.5581 127.909C83.5013 123.204 92.1783 111.678 79.3411 103.209C66.5039 94.7407 21.0982 76.7452 0 68.8061L79.3411 89.9772C88.553 90.5653 103.258 87.7977 96.2791 68.8061C89.1473 49.3992 77.5581 20.289 69.5349 0Z" fill="#2125FF"/>
</svg>
