<svg width="3290" height="38" viewBox="0 0 3290 38" fill="none" xmlns="http://www.w3.org/2000/svg">
<path d="M291.764 20.7678C292.742 19.7915 292.745 18.2085 291.771 17.2322L275.891 1.32236C274.916 0.346052 273.333 0.346052 272.355 1.32236C271.377 2.29867 271.374 3.88158 272.348 4.85789L286.464 19L272.296 33.1421C271.318 34.1184 271.315 35.7013 272.289 36.6776C273.264 37.6539 274.847 37.6539 275.825 36.6776L291.764 20.7678ZM-0.00464418 21.5L289.995 21.5L290.005 16.5L0.00464418 16.5L-0.00464418 21.5Z" fill="#FE6807"/>
<path d="M624.764 20.7678C625.742 19.7915 625.745 18.2085 624.771 17.2322L608.891 1.32236C607.916 0.346052 606.333 0.346052 605.355 1.32236C604.377 2.29867 604.374 3.88158 605.348 4.85789L619.464 19L605.296 33.1421C604.318 34.1184 604.315 35.7013 605.289 36.6776C606.264 37.6539 607.847 37.6539 608.825 36.6776L624.764 20.7678ZM332.995 21.5L622.995 21.5L623.005 16.5L333.005 16.5L332.995 21.5Z" fill="#FE6807"/>
<path d="M957.764 20.7678C958.742 19.7915 958.745 18.2085 957.771 17.2322L941.891 1.32236C940.916 0.346052 939.333 0.346052 938.355 1.32236C937.377 2.29867 937.374 3.88158 938.348 4.85789L952.464 19L938.296 33.1421C937.318 34.1184 937.315 35.7013 938.289 36.6776C939.264 37.6539 940.847 37.6539 941.825 36.6776L957.764 20.7678ZM665.995 21.5L955.995 21.5L956.005 16.5L666.005 16.5L665.995 21.5Z" fill="#FE6807"/>
<path d="M1290.76 20.7678C1291.74 19.7915 1291.75 18.2085 1290.77 17.2322L1274.89 1.32236C1273.92 0.346052 1272.33 0.346052 1271.36 1.32236C1270.38 2.29867 1270.37 3.88158 1271.35 4.85789L1285.46 19L1271.3 33.1421C1270.32 34.1184 1270.31 35.7013 1271.29 36.6776C1272.26 37.6539 1273.85 37.6539 1274.82 36.6776L1290.76 20.7678ZM998.995 21.5L1289 21.5L1289 16.5L999.005 16.5L998.995 21.5Z" fill="#FE6807"/>
<path d="M1623.76 20.7678C1624.74 19.7915 1624.75 18.2085 1623.77 17.2322L1607.89 1.32236C1606.92 0.346052 1605.33 0.346052 1604.36 1.32236C1603.38 2.29867 1603.37 3.88158 1604.35 4.85789L1618.46 19L1604.3 33.1421C1603.32 34.1184 1603.31 35.7013 1604.29 36.6776C1605.26 37.6539 1606.85 37.6539 1607.82 36.6776L1623.76 20.7678ZM1332 21.5L1622 21.5L1622 16.5L1332 16.5L1332 21.5Z" fill="#FE6807"/>
<path d="M1956.76 20.7678C1957.74 19.7915 1957.75 18.2085 1956.77 17.2322L1940.89 1.32236C1939.92 0.346052 1938.33 0.346052 1937.36 1.32236C1936.38 2.29867 1936.37 3.88158 1937.35 4.85789L1951.46 19L1937.3 33.1421C1936.32 34.1184 1936.31 35.7013 1937.29 36.6776C1938.26 37.6539 1939.85 37.6539 1940.82 36.6776L1956.76 20.7678ZM1665 21.5L1955 21.5L1955 16.5L1665 16.5L1665 21.5Z" fill="#FE6807"/>
<path d="M2289.76 20.7678C2290.74 19.7915 2290.75 18.2085 2289.77 17.2322L2273.89 1.32236C2272.92 0.346052 2271.33 0.346052 2270.36 1.32236C2269.38 2.29867 2269.37 3.88158 2270.35 4.85789L2284.46 19L2270.3 33.1421C2269.32 34.1184 2269.31 35.7013 2270.29 36.6776C2271.26 37.6539 2272.85 37.6539 2273.82 36.6776L2289.76 20.7678ZM1998 21.5L2288 21.5L2288 16.5L1998 16.5L1998 21.5Z" fill="#FE6807"/>
<path d="M2622.76 20.7678C2623.74 19.7915 2623.75 18.2085 2622.77 17.2322L2606.89 1.32236C2605.92 0.346052 2604.33 0.346052 2603.36 1.32236C2602.38 2.29867 2602.37 3.88158 2603.35 4.85789L2617.46 19L2603.3 33.1421C2602.32 34.1184 2602.31 35.7013 2603.29 36.6776C2604.26 37.6539 2605.85 37.6539 2606.82 36.6776L2622.76 20.7678ZM2331 21.5L2621 21.5L2621 16.5L2331 16.5L2331 21.5Z" fill="#FE6807"/>
<path d="M2955.76 20.7678C2956.74 19.7915 2956.75 18.2085 2955.77 17.2322L2939.89 1.32236C2938.92 0.346052 2937.33 0.346052 2936.36 1.32236C2935.38 2.29867 2935.37 3.88158 2936.35 4.85789L2950.46 19L2936.3 33.1421C2935.32 34.1184 2935.31 35.7013 2936.29 36.6776C2937.26 37.6539 2938.85 37.6539 2939.82 36.6776L2955.76 20.7678ZM2664 21.5L2954 21.5L2954 16.5L2664 16.5L2664 21.5Z" fill="#FE6807"/>
<path d="M3288.76 20.7678C3289.74 19.7915 3289.75 18.2085 3288.77 17.2322L3272.89 1.32236C3271.92 0.346052 3270.33 0.346052 3269.36 1.32236C3268.38 2.29867 3268.37 3.88158 3269.35 4.85789L3283.46 19L3269.3 33.1421C3268.32 34.1184 3268.31 35.7013 3269.29 36.6776C3270.26 37.6539 3271.85 37.6539 3272.82 36.6776L3288.76 20.7678ZM2997 21.5L3287 21.5L3287 16.5L2997 16.5L2997 21.5Z" fill="#FE6807"/>
</svg>
